<?xml version="1.0" encoding="utf-8"?>
<!-- Generator: Adobe Illustrator 25.4.1, SVG Export Plug-In . SVG Version: 6.00 Build 0)  -->
<svg version="1.1" id="Layer_1" xmlns="http://www.w3.org/2000/svg" xmlns:xlink="http://www.w3.org/1999/xlink" x="0px" y="0px"
	 viewBox="0 0 500 500" style="enable-background:new 0 0 500 500;" xml:space="preserve">
<style type="text/css">
	.st0{fill:#1976D2;}
	.st1{fill:#29ABE2;}
	.st2{fill:#2E3192;}
</style>
<g>
	<g>
		<g>
			<g>
				<path class="st0" d="M250.3,343c-51.2,0-92.8-41.7-92.8-92.9c0-51.2,41.6-92.8,92.8-92.8c51.2,0,92.9,41.6,92.9,92.8
					C343.1,301.3,301.5,343,250.3,343z M250.3,165c-47,0-85.2,38.2-85.2,85.2c0,47,38.2,85.2,85.2,85.2c47,0,85.2-38.2,85.2-85.2
					C335.5,203.2,297.3,165,250.3,165z"/>
			</g>
			<g>
				<path class="st0" d="M250.3,165c-2.1,0-3.8-1.7-3.8-3.8v-45.8c0-2.1,1.7-3.8,3.8-3.8c2.1,0,3.8,1.7,3.8,3.8v45.8
					C254.1,163.3,252.4,165,250.3,165z"/>
			</g>
			<g>
				<path class="st0" d="M278.5,141.3c-0.8,0-1.7-0.3-2.4-0.8l-25.8-20.3l-25.8,20.3c-1.7,1.3-4.1,1-5.4-0.6c-1.3-1.7-1-4.1,0.6-5.4
					l28.1-22.2c1.4-1.1,3.3-1.1,4.7,0l28.2,22.2c1.7,1.3,1.9,3.7,0.6,5.4C280.7,140.8,279.6,141.3,278.5,141.3z"/>
			</g>
			<g>
				<path class="st0" d="M313.3,191.1c-1,0-2-0.4-2.7-1.1c-1.5-1.5-1.5-3.9,0-5.4l32.4-32.4c1.5-1.5,3.9-1.5,5.4,0
					c1.5,1.5,1.5,3.9,0,5.4L316,189.9C315.2,190.7,314.2,191.1,313.3,191.1z"/>
			</g>
			<g>
				<path class="st0" d="M349.9,194.2c-1.9,0-3.6-1.4-3.8-3.4l-3.9-32.5l-32.6-3.9c-2.1-0.3-3.6-2.2-3.3-4.2
					c0.3-2.1,2.1-3.6,4.2-3.3l35.6,4.3c1.7,0.2,3.1,1.6,3.3,3.3l4.2,35.5c0.2,2.1-1.2,4-3.3,4.2C350.2,194.2,350,194.2,349.9,194.2z
					"/>
			</g>
			<g>
				<path class="st0" d="M385.2,254h-45.8c-2.1,0-3.8-1.7-3.8-3.8s1.7-3.8,3.8-3.8h45.8c2.1,0,3.8,1.7,3.8,3.8
					C389,252.2,387.3,254,385.2,254z"/>
			</g>
			<g>
				<path class="st0" d="M363,282.1c-0.8,0-1.7-0.3-2.4-0.8c-1.7-1.3-1.9-3.7-0.6-5.4l20.3-25.8L360,224.4c-1.3-1.7-1-4.1,0.6-5.4
					c1.7-1.3,4.1-1,5.4,0.6l22.2,28.1c1.1,1.4,1.1,3.3,0,4.7L366,280.7C365.3,281.6,364.1,282.1,363,282.1z"/>
			</g>
			<g>
				<path class="st0" d="M345.7,349.3c-1,0-2-0.4-2.7-1.1l-32.4-32.4c-1.5-1.5-1.5-3.9,0-5.4c1.5-1.5,3.9-1.5,5.4,0l32.4,32.4
					c1.5,1.5,1.5,3.9,0,5.4C347.6,348.9,346.6,349.3,345.7,349.3z"/>
			</g>
			<g>
				<path class="st0" d="M310.1,353.5c-1.9,0-3.6-1.4-3.8-3.4c-0.2-2.1,1.2-4,3.3-4.2l32.6-3.9l3.9-32.6c0.2-2.1,2.2-3.6,4.2-3.3
					c2.1,0.2,3.6,2.1,3.3,4.2l-4.2,35.6c-0.2,1.8-1.6,3.1-3.3,3.3l-35.6,4.2C310.4,353.5,310.2,353.5,310.1,353.5z"/>
			</g>
			<g>
				<path class="st0" d="M250.3,388.8c-2.1,0-3.8-1.7-3.8-3.8v-45.8c0-2.1,1.7-3.8,3.8-3.8c2.1,0,3.8,1.7,3.8,3.8V385
					C254.1,387.1,252.4,388.8,250.3,388.8z"/>
			</g>
			<g>
				<path class="st0" d="M250.3,388.8c-0.8,0-1.7-0.3-2.4-0.8l-28.1-22.2c-1.7-1.3-1.9-3.7-0.6-5.4c1.3-1.7,3.7-1.9,5.4-0.6
					l25.8,20.3l25.8-20.3c1.7-1.3,4.1-1,5.4,0.6c1.3,1.7,1,4.1-0.6,5.4L252.6,388C252,388.6,251.1,388.8,250.3,388.8z"/>
			</g>
			<g>
				<path class="st0" d="M155,349.3c-1,0-2-0.4-2.7-1.1c-1.5-1.5-1.5-3.9,0-5.4l32.4-32.4c1.5-1.5,3.9-1.5,5.4,0
					c1.5,1.5,1.5,3.9,0,5.4l-32.4,32.4C156.9,348.9,156,349.3,155,349.3z"/>
			</g>
			<g>
				<path class="st0" d="M190.5,353.5c-0.1,0-0.3,0-0.5,0l-35.5-4.2c-1.7-0.2-3.1-1.6-3.3-3.3l-4.3-35.6c-0.3-2.1,1.2-4,3.3-4.2
					c2.1-0.3,4,1.2,4.2,3.3l3.9,32.6l32.5,3.9c2.1,0.2,3.6,2.1,3.3,4.2C194.1,352.1,192.4,353.5,190.5,353.5z"/>
			</g>
			<g>
				<path class="st0" d="M161.3,254h-45.8c-2.1,0-3.8-1.7-3.8-3.8s1.7-3.8,3.8-3.8h45.8c2.1,0,3.8,1.7,3.8,3.8
					C165.1,252.2,163.4,254,161.3,254z"/>
			</g>
			<g>
				<path class="st0" d="M137.6,282.1c-1.1,0-2.2-0.5-3-1.5l-22.2-28.2c-1.1-1.4-1.1-3.3,0-4.7l22.2-28.1c1.3-1.7,3.7-1.9,5.4-0.6
					c1.7,1.3,1.9,3.7,0.6,5.4l-20.3,25.8l20.3,25.8c1.3,1.7,1,4.1-0.6,5.4C139.3,281.9,138.5,282.1,137.6,282.1z"/>
			</g>
			<g>
				<path class="st0" d="M187.4,191.1c-1,0-2-0.4-2.7-1.1l-32.4-32.4c-1.5-1.5-1.5-3.9,0-5.4c1.5-1.5,3.9-1.5,5.4,0l32.4,32.4
					c1.5,1.5,1.5,3.9,0,5.4C189.3,190.7,188.4,191.1,187.4,191.1z"/>
			</g>
			<g>
				<path class="st0" d="M150.7,194.2c-0.2,0-0.3,0-0.5,0c-2.1-0.3-3.6-2.2-3.3-4.2l4.3-35.5c0.2-1.7,1.6-3.1,3.3-3.3l35.5-4.3
					c2.1-0.2,4,1.2,4.2,3.3c0.3,2.1-1.2,4-3.3,4.2l-32.5,3.9l-3.9,32.5C154.3,192.8,152.6,194.2,150.7,194.2z"/>
			</g>
		</g>
	</g>
</g>
<g>
	<g>
		<path class="st1" d="M250.3,93.4c-16.4,0-29.7-13.3-29.7-29.7c0-16.4,13.3-29.8,29.7-29.8c16.4,0,29.8,13.4,29.8,29.8
			C280.1,80,266.7,93.4,250.3,93.4z M250.3,41.4c-12.2,0-22.1,10-22.1,22.2c0,12.2,9.9,22.1,22.1,22.1c12.2,0,22.2-9.9,22.2-22.1
			C272.5,51.4,262.5,41.4,250.3,41.4z"/>
	</g>
	<g>
		<path class="st1" d="M382.2,148.1c-8,0-15.4-3.1-21-8.8c-5.6-5.6-8.7-13.1-8.7-21.1s3.1-15.4,8.7-21.1c5.6-5.6,13.1-8.7,21-8.7
			c8,0,15.4,3.1,21,8.8c5.6,5.6,8.7,13.1,8.7,21.1s-3.1,15.4-8.7,21.1C397.7,144.9,390.2,148.1,382.2,148.1z M382.2,96.1
			c-5.9,0-11.5,2.3-15.6,6.5c-4.2,4.2-6.5,9.8-6.5,15.7c0,5.9,2.3,11.5,6.5,15.7c4.2,4.2,9.7,6.5,15.6,6.5c5.9,0,11.5-2.3,15.6-6.5
			c4.2-4.2,6.5-9.8,6.5-15.7c0-5.9-2.3-11.5-6.5-15.7C393.7,98.4,388.1,96.1,382.2,96.1z"/>
	</g>
	<g>
		<path class="st1" d="M436.9,280c-16.4,0-29.8-13.4-29.8-29.8c0-16.4,13.4-29.7,29.8-29.7c16.4,0,29.8,13.3,29.8,29.7
			C466.7,266.6,453.3,280,436.9,280z M436.9,228c-12.2,0-22.2,9.9-22.2,22.1c0,12.2,10,22.2,22.2,22.2c12.2,0,22.2-10,22.2-22.2
			C459.1,237.9,449.1,228,436.9,228z"/>
	</g>
	<g>
		<path class="st1" d="M382.2,411.9c-8,0-15.4-3.1-21-8.8c-5.6-5.6-8.7-13.1-8.7-21c0-8,3.1-15.4,8.8-21c5.6-5.6,13.1-8.7,21-8.7
			c8,0,15.4,3.1,21,8.8c5.6,5.6,8.7,13.1,8.7,21c0,8-3.1,15.4-8.8,21C397.7,408.7,390.2,411.9,382.2,411.9z M382.2,359.9
			c-5.9,0-11.5,2.3-15.6,6.5c-4.2,4.2-6.5,9.7-6.5,15.7c0,5.9,2.3,11.5,6.5,15.6c4.2,4.2,9.7,6.5,15.7,6.5c5.9,0,11.5-2.3,15.6-6.5
			c4.2-4.2,6.5-9.7,6.5-15.7c0-5.9-2.3-11.5-6.5-15.6C393.7,362.2,388.1,359.9,382.2,359.9z"/>
	</g>
	<g>
		<path class="st1" d="M250.3,466.5c-16.4,0-29.7-13.4-29.7-29.8s13.3-29.8,29.7-29.8c16.4,0,29.8,13.4,29.8,29.8
			S266.7,466.5,250.3,466.5z M250.3,414.5c-12.2,0-22.1,10-22.1,22.2c0,12.2,9.9,22.2,22.1,22.2c12.2,0,22.2-10,22.2-22.2
			C272.5,424.5,262.5,414.5,250.3,414.5z"/>
	</g>
	<g>
		<path class="st1" d="M118.4,411.9c-8,0-15.4-3.1-21.1-8.7c-5.6-5.6-8.7-13.1-8.7-21c0-8,3.1-15.4,8.8-21
			c5.6-5.6,13.1-8.7,21.1-8.7c8,0,15.4,3.1,21.1,8.7c5.6,5.6,8.7,13.1,8.7,21c0,8-3.1,15.4-8.8,21
			C133.8,408.8,126.3,411.9,118.4,411.9z M118.4,359.9c-5.9,0-11.5,2.3-15.7,6.5c-4.2,4.2-6.5,9.7-6.5,15.6c0,5.9,2.3,11.5,6.5,15.6
			c4.2,4.2,9.8,6.5,15.7,6.5c5.9,0,11.5-2.3,15.7-6.5c4.2-4.2,6.5-9.7,6.5-15.6c0-5.9-2.3-11.5-6.5-15.6
			C129.9,362.2,124.3,359.9,118.4,359.9z"/>
	</g>
	<g>
		<path class="st1" d="M63.8,280C47.3,280,34,266.6,34,250.1c0-16.4,13.4-29.7,29.8-29.7c16.4,0,29.7,13.3,29.7,29.7
			C93.5,266.6,80.2,280,63.8,280z M63.8,228c-12.2,0-22.2,9.9-22.2,22.1c0,12.2,10,22.2,22.2,22.2c12.2,0,22.1-10,22.1-22.2
			C85.9,237.9,76,228,63.8,228z"/>
	</g>
	<g>
		<path class="st1" d="M118.4,148.1c-8,0-15.4-3.1-21.1-8.7s-8.7-13.1-8.7-21.1s3.1-15.4,8.7-21.1c5.6-5.6,13.1-8.7,21.1-8.7
			c8,0,15.4,3.1,21.1,8.7c5.6,5.6,8.7,13.1,8.7,21.1s-3.1,15.4-8.7,21.1S126.3,148.1,118.4,148.1z M118.4,96.1
			c-5.9,0-11.5,2.3-15.7,6.5c-4.2,4.2-6.5,9.8-6.5,15.7c0,5.9,2.3,11.5,6.5,15.7c4.2,4.2,9.8,6.5,15.7,6.5c5.9,0,11.5-2.3,15.7-6.5
			c4.2-4.2,6.5-9.8,6.5-15.7c0-5.9-2.3-11.5-6.5-15.7C129.9,98.4,124.3,96.1,118.4,96.1z"/>
	</g>
</g>
<g transform="translate(0,-952.36218)">
	<path class="st2" d="M249.8,1135.9c-0.4,0.1-0.8,0.2-1.2,0.4l-73.6,38.6c-1.7,0.9-2.4,3-1.4,4.7c0.3,0.6,0.8,1.1,1.4,1.4l73.6,38.6
		c1,0.5,2.3,0.5,3.3,0l73.6-38.6c1.7-0.9,2.4-3,1.4-4.7c-0.3-0.6-0.8-1.1-1.4-1.4l-73.6-38.6C251.3,1136,250.6,1135.9,249.8,1135.9z
		 M250.3,1143.4l66,34.6l-66,34.6l-66-34.6C184.2,1178,250.3,1143.4,250.3,1143.4z M176.6,1199c-1.9,0-3.5,1.6-3.5,3.5
		c0,1.3,0.7,2.5,1.9,3.1l73.6,38.6c1,0.5,2.3,0.5,3.3,0l73.6-38.6c1.7-0.9,2.5-3,1.6-4.7c-0.9-1.7-3-2.5-4.7-1.6
		c-0.1,0-0.1,0.1-0.2,0.1l-72,37.7l-72-37.7C177.8,1199.1,177.2,1199,176.6,1199z M176.6,1223.5c-1.9,0-3.5,1.6-3.5,3.5
		c0,1.3,0.7,2.5,1.9,3.1l73.6,38.6c1,0.5,2.3,0.5,3.3,0l73.6-38.6c1.7-0.9,2.5-3,1.6-4.7c-0.9-1.7-3-2.5-4.7-1.6
		c-0.1,0-0.1,0.1-0.2,0.1l-72,37.7l-72-37.7C177.8,1223.7,177.2,1223.5,176.6,1223.5L176.6,1223.5z"/>
</g>
</svg>
