<?xml version="1.0" encoding="utf-8"?>
<!-- Generator: Adobe Illustrator 25.4.1, SVG Export Plug-In . SVG Version: 6.00 Build 0)  -->
<svg version="1.1"
	 id="Layer_1" xmlns:cc="http://creativecommons.org/ns#" xmlns:dc="http://purl.org/dc/elements/1.1/" xmlns:inkscape="http://www.inkscape.org/namespaces/inkscape" xmlns:rdf="http://www.w3.org/1999/02/22-rdf-syntax-ns#" xmlns:sodipodi="http://sodipodi.sourceforge.net/DTD/sodipodi-0.dtd" xmlns:svg="http://www.w3.org/2000/svg"
	 xmlns="http://www.w3.org/2000/svg" xmlns:xlink="http://www.w3.org/1999/xlink" x="0px" y="0px" viewBox="0 0 442.2 344.1"
	 style="enable-background:new 0 0 442.2 344.1;" xml:space="preserve">
<style type="text/css">
	.st0{font-family:'Arial-BoldMT';}
	.st1{font-size:5px;}
	.st2{fill:#1976D2;}
	.st3{fill:#6A9BC4;}
	.st4{fill:#C5DBEA;}
	.st5{fill:#486D82;}
	.st6{fill:#21C7D8;}
</style>
<text transform="matrix(1 0 0 1 170.2349 225.8313)" class="st0 st1">Created by Three Six Five</text>
<text transform="matrix(1 0 0 1 170.2349 230.8313)" class="st0 st1">from the Noun Project</text>
<path class="st2" d="M194.6,132.2v83.4h-83.4v-83.4H194.6 M211.1,93.8H94.7l-21.8,21.8v116.5L94.7,254h116.5l21.8-21.8V115.7
	L211.1,93.8z"/>
<path class="st3" d="M280.6,25.4v51.8h-51.8V25.4H280.6 M290.8,1.6h-72.3L205,15.2v72.3l13.6,13.6h72.3l13.6-13.6V15.2L290.8,1.6z"
	/>
<path class="st4" d="M388.2,149.9v106.3H281.9V149.9H388.2 M409.3,101H260.8L233,128.8v148.5l27.8,27.8h148.5l27.8-27.8V128.8
	L409.3,101z"/>
<path class="st5" d="M108.6,291v35.7H72.9V291H108.6 M115.6,274.6H65.8l-9.3,9.3v49.8l9.3,9.3h49.8l9.3-9.3v-49.8L115.6,274.6z"/>
<path class="st6" d="M56.4,59.3V95H20.8V59.3H56.4 M63.5,42.9H13.7l-9.3,9.3v49.8l9.3,9.3h49.8l9.3-9.3V52.3L63.5,42.9z"/>
</svg>
