<?xml version="1.0" encoding="utf-8"?>
<!-- Generator: Adobe Illustrator 25.4.1, SVG Export Plug-In . SVG Version: 6.00 Build 0)  -->
<svg version="1.1" id="Layer_1" xmlns="http://www.w3.org/2000/svg" xmlns:xlink="http://www.w3.org/1999/xlink" x="0px" y="0px"
	 viewBox="0 0 262 262" style="enable-background:new 0 0 262 262;" xml:space="preserve">
<style type="text/css">
	.st0{fill:#1976D2;}
</style>
<g>
	<path class="st0" d="M146.2,85.6C146.2,85.6,146.2,85.6,146.2,85.6c0.1,0,3.1-0.9,5.2-0.1c0.1,0.1,0.3,0,0.4-0.2
		c0.1-0.1,0-0.3-0.2-0.4c-2.2-0.9-5.3,0.1-5.5,0.1c-0.1,0-0.2,0.2-0.2,0.3C146,85.5,146.1,85.6,146.2,85.6z"/>
	<path class="st0" d="M146.2,86.4c-0.2,0-0.3,0.1-0.3,0.3c0,0.2,0.1,0.3,0.3,0.3c0,0,3.5-0.1,5.6,0.8c0,0,0.1,0,0.1,0
		c0.1,0,0.2-0.1,0.3-0.2c0.1-0.1,0-0.3-0.2-0.4C149.8,86.4,146.3,86.4,146.2,86.4z"/>
	<path class="st0" d="M123.3,78C123.3,78,123.3,78,123.3,78c0.1,0,6-1.1,11.2-0.2c0.2,0,0.3-0.1,0.3-0.2c0-0.2-0.1-0.3-0.2-0.3
		c-5.3-0.9-11.2,0.2-11.3,0.2c-0.2,0-0.3,0.2-0.2,0.3C123,77.9,123.1,78,123.3,78z"/>
	<path class="st0" d="M129.3,92c0,0-0.2,0.4-0.7,0.9c0.6-0.3,1.1-0.7,1.4-1c0,0,1.9,0.6,4.8,1.4c-0.1-0.1-0.2-0.3-0.3-0.4l9.9,2.1
		c0,0,0.3,0.2,1.2,0.6c2.3,0.3,4.5,0.6,6.6,0.6c8.9,0,13.6-2.9,13.6-7.4c0-4.5-10.5-9.1-23-7.5c0,0,0.7-6.4-12.4-6.6
		c-13.1-0.2-12.1,4.8-12.1,4.8l-0.2,4.5c0,0-22.1-5.8-22.1,5.5c0,0,1.2,9.7,25.8,5.9c0,0,0.2,0,0.5-0.1c0.3-0.1,0.5-0.2,0.8-0.4
		L129.3,92z M142.8,90.1c10.1-0.7,13.3,2.8,13.3,2.8c-5.4,0.9-13.3-1.7-13.3-1.7V90.1z M130.8,76.1c5.9,0.2,10.7,1.6,10.7,3.2
		c-0.1,1.6-4.9,2.8-10.9,2.6c-5.9-0.2-10.7-1.6-10.7-3.2C119.9,77.1,124.8,75.9,130.8,76.1z M118.9,79c0,0,1.4,3.9,12.3,3.9
		c9.5,0,10.8-2.6,10.8-2.6v4.3c0,5.4-12,3.5-12,3.5c-2.4-0.8-11.1-3.9-11.1-3.9V79z M142,89v2l-3.6-0.8L142,89z M97.1,88.5
		c0-6.1,13.7-5.9,20.9-3.5c7.3,2.4,19.2,6,23.9,6.7c4.7,0.8,7,2.1,12.5,2.1c8.3,0,8.8-4.5,8.8-4.5c-2.1,3-6.4,3.4-6.4,3.4
		c-4.5-4.8-14.1-3.5-14.1-3.5v-7.3c11.6-1,22,2.3,22,7c0,4.7-7,6.2-13.3,6.2c-6.4,0-13.6-2-21.1-4.1c-7.5-2.1-12.8-4.8-19.4-4.8
		c-12.5,0-11.5,6.4-11.5,6.4C96.7,90.9,97.1,88.5,97.1,88.5z M111.1,95.4c-6.4,0-10.8-2-10.8-3.9c0-1.8,3.9-4.3,10.8-4.3
		c7,0,10.7,2.1,10.7,2.1c-11.5-1.2-14.9,0.4-14.9,2c0,1.6,1.4,3,5.8,3c4.4,0,14.5-1.7,14.5-1.7C122.4,94.8,117.5,95.4,111.1,95.4z
		 M127.3,91.6c-2.6,0.7-19.9,3.6-18.8,0C109.6,87.9,127.3,91.6,127.3,91.6z"/>
	<path class="st0" d="M125.4,94.2c0.6-0.2,1.3-0.4,1.9-0.7c0.1-0.2,0.1-0.4,0.1-0.4L125.4,94.2z"/>
	<path class="st0" d="M136.3,93.4c0,0.1,0,0.2,0,0.2c0.6,0.2,1.3,0.3,2,0.5L136.3,93.4z"/>
	<path class="st0" d="M151.9,127.3c-1.4,0.4-2.6,0.8-4.1,1.1c0.3-2.7,1.4-5.4,2.5-7.6c-1.8-0.3-2.6-0.6-3.8-1.7
		c-1.2,1.1-2.3,1.6-4,1.7c1.1,2.1,2.3,4.9,2.6,7.6c-2.6-0.4-4.9-1.3-7.1-2.4c-0.3,1.7-0.4,2.5-1.6,4c1.1,1.4,1.5,2.1,1.6,4.1
		c2.5-1.1,4.3-1.7,7.1-2.3c-0.4,3.2-1.1,5.9-2.6,8.9c1.9,0.3,2.6,0.5,4,1.8c1.5-1.4,1.8-1.5,3.8-1.8c-1.4-3.1-2.1-5.5-2.5-8.9
		c1.5,0.3,2.8,0.6,4.1,1c1,0.3,1.9,0.7,3,1.3c0.1-2,0.3-2.5,1.6-4.1c-1.4-1.6-1.4-2.1-1.6-4C154,126.4,152.9,126.9,151.9,127.3z
		 M154.4,132c0,0-2.1,0-3.5-0.9l-3.6-0.2c0,0-0.4,3.3,0,4.7c0.4,1.4,1.4,3.1,0.9,4.3l-1.8,1.1l-1.8-1.1c-0.4-1.2,0.6-2.9,0.9-4.3
		c0.4-1.4,0-4.7,0-4.7L142,131c-1.4,0.9-3.4,0.9-3.4,0.9l-1-2l1-2.1c1.4-0.2,3.4,1.1,3.4,1.1l3.8,0.2c0-1.9-0.2-3.4-0.2-3.4
		c-1.3-2.7-0.9-4-0.9-4l1.8-1.1l1.8,1.1c0,0,0.4,1.3-0.9,4c0,0-0.3,1.5-0.2,3.4l3.8-0.2c0,0,2-1.4,3.5-1.1l1,2.1L154.4,132z"/>
	<path class="st0" d="M126.4,202.2c0,0,2.4,4.5,4.4,4.5c0,0,2.8-0.9,4.1-4.4c0,0,2.6-0.6,2.9-1.1c0,0-5-4.2-6.2-8.1v-46h26.6
		c0,0,0.8,1.9,3.3,2.8c0,0,1.6,3.1,0.7,8c-0.9,4.9-5.2,15.6-3.9,20c1.3,4.4,3.3,4.3,3.3,4.3s-4.7-0.6-1.7-11.9
		c1.3-4.6,5.3-13.6,2.9-20c0,0,3.1-0.7,3.8-2.7c0,0,1.5,6.6-1.1,12.4c-2.6,5.8-6.3,17.4-4,22.2c0,0-1.3,2.9-9.2,3.7
		c-7.9,0.9-14.7,2.6-15.1,8.1c0,0-0.4,3.3,3.2,3.3c3.5,0,4-3.8,3.1-4.7c0,0-0.4-1.2,7.7-2.2c8.1-1,16.9-4.2,16.9-9.9
		c0-1.8-1.9-3-3.8-3c-0.9,0-2,0.7-2,0.7s1-4.4,3.7-10.2c2.7-5.8,3.6-9.3,4.9-15.2c1.3-5.9-0.3-11.4-5.4-11.4c0,0-1.3-0.5-2.7,0.4
		c0,0,2.3-4.7,5.1-9.4c0,0,2.5-4.6,2.5-10.2c0-5.6-4.4-9.9-8.5-9.9c0,0-1.9-0.5-3.7,1.9l-2.4-1.2c0,0,1.1-5.2-4.2-7.4
		c-5.3-2.2-14,0-20.8-4.9c0,0-2.4,2.6-11.1,3.1c-8.7,0.5-12.9,1.5-13.2,8.4l-2.6,2c0,0-0.9-1.9-3.7-1.9c-3.7,0-6.6,3.4-6.6,9.7
		c0,6.3,1,7.5,2.3,11.4c1.3,4,3.5,7.4,3.4,10.1c0,0-0.7-1.5-4-1.5c-3.4,0-5.8,4.5-5.8,8.7c0,4.2,2.6,8.8,4.8,13.6
		c2.2,4.8,4.1,10,4.3,12.8c0,0-0.8-0.5-2.7-0.5c-1.9,0-3.8,1.5-3.8,4.2c0,2.8,2.6,6.5,7.6,8.6c5.1,2.1,11.5,2.3,15.4,3.1
		c3.8,0.7,4.3,1.6,4.3,1.6s-0.7,0.6-0.7,3c0,1.2,1.2,2.1,3.1,2.1c1.9,0,3.1-0.8,3.1-4.1c0-3.3-3.5-5.2-7.7-6.4
		c0,0-11.5-3.3-16.6-5.6c0,0,2.3-1.7,2.3-8.9c0-7.2-6.1-17.4-6.2-21.1c-0.1-3.7,0.5-4.5,0.5-4.5s1.7-0.1,2.2-1.8h30.5v46
		c0,0-2.2,5.6-7.3,8.1L126.4,202.2z M164.6,179.1c1.5,0,2,1,2,2.5c0,1.4-3.5,4.9-7.2,6.2c-3.7,1.3-9.5,1.8-13.1,2.8
		c-3.6,1-2.8,1.7-4,1.6c0,0,0.9,0.7,0.9,1.8c0,1.1-1,2.5-2.7,2.5c-1.7,0-3-1.5-2.3-3.1c0.6-1.7,1.5-4.2,8.3-5.6
		c6.9-1.4,13.5-2,16-5.3c0,0-0.4-0.6-0.4-1.6C162,179.8,163,179.1,164.6,179.1z M164.8,142.4c2.8,0,5.6,3.5,5.6,6.4
		c0,2.9-2,10.4-3.9,15.4c-1.9,5-4.3,9.5-4.6,12.3c0,0-1.6-2.3,3-12c4.5-9.7,3.1-15.1,3-16.9c-0.2-1.8-1.7-1.9-1.7-1.9
		s-0.3,2.5-2.1,2.5c-1.9,0-2.4-1.4-2.4-2.5C161.5,144.6,162,142.4,164.8,142.4z M167.6,130.4c-2.6,5.4-6.2,12.4-6.2,12.4
		c-0.2-3.1,4.2-10.9,5.8-17.4c1.6-6.5-1.9-11-1.9-11C170.3,117.3,170.2,125,167.6,130.4z M161.5,113.1c3.2,0,5.7,5.6,5.8,9.1
		c0.1,3.5-2.9,10.6-4.5,14.5c-1.6,3.9-3.4,7.1-1.8,12.1c0,0-3-2.2-2.7-5.3c0.3-3.1,5.2-9.4,5.3-16.9c0,0,0.4-3.6-0.3-4.9
		c-0.6-1.3-0.8-2.1-0.3-2.9c0,0-4.5,2.2-4.7-2.5C158.2,116.3,158.3,113.1,161.5,113.1z M145.8,105.8c8.4,0.5,9.6,4.4,9.6,6.8
		c0,2.3-2.2,2.4-3,2.4c-0.9,0-3-0.4-3-2.8c0,0-0.2-1.4,1.5-2.6c0,0-15-1.5-18-6.1C132.8,103.4,137.4,105.3,145.8,105.8z
		 M131.7,103.4c0,0,4.7,5,17.8,6.8c0,0-2.8,3.3,1.8,5.2c0,0,2.1,0.8,4.1-1.5l2.5,1.3c0,0-0.9,2.5,1,3.8c1.8,1.4,3.4,0.6,3.4,0.6
		s-0.8,0.6,0,2.4c0.8,1.8,1.1,6.6-1.1,10.6c-2.2,4.1-5.1,10.1-4,13.1h-25.5L131.7,103.4z M103.5,190.1c-7.2-1.9-8.7-5.3-8.7-5.3
		s3.7,3.1,11.3,5c5.9,1.4,9.1,2.1,9.1,2.1S110.4,191.9,103.5,190.1z M106.1,186.4c7.7,2.8,10.4,2.7,14.6,5.1
		c2.7,1.5,3.5,3.7,3.5,5.2c0,1.5-1.3,2.2-2.4,2.2c-1.1,0-2.3-0.7-2.3-2.1c0-1.4,1-2.5,1-2.5c0-3.1-15.5-5.1-21-7.3
		c-5.5-2.2-6-4.8-6-6.3c0-1.4,0.9-2.9,2.7-2.9c1.8,0,2.2,1,2.2,2.2c0,2.3-2.4,1.6-2.4,1.6S98.5,183.6,106.1,186.4z M96.8,148
		c-1.2,0-1.7-0.5-1.7-0.5c0.9,0.7,0.7,1.1,0,1.7c-0.6,0.6-0.8,2.6-0.8,2.6c0,5.9,7.4,15.9,7.4,23.3c0,5.6-2.1,7.4-2.1,7.4
		c0.2-5.2-1.2-9.4-3.4-15.6c-2.2-6.2-6.1-10.4-6.1-16c0-5.6,4.1-8.1,5.5-8.1c1.3,0,3,0.7,3,2.7C98.7,147.5,98,148,96.8,148z
		 M130.8,205.8c-2.4-0.8-3.3-3.8-3.3-3.8c2.1-1,2.6-2.6,2.6-2.6h1.6c0,0,0.5,1.6,2.5,2.6C134.1,201.9,133.1,204.9,130.8,205.8z
		 M116.8,105.2c8.4-0.5,12.9-2.4,12.9-2.4c-3,4.6-18,6.1-18,6.1c1.7,1.2,1.5,2.6,1.5,2.6c0,2.4-2.1,2.8-3,2.8c-0.9,0-3-0.1-3-2.4
		C107.2,109.6,108.4,105.6,116.8,105.2z M94.4,121.9c-0.5-6.4,4-8.8,5.7-8.8c1.8,0,2.9,0.8,2.9,2.7c0,1.9-1.3,2.5-2.5,2.5
		c-1.2,0-1.8-0.4-1.8-0.4c1.7,1.6-0.5,2-0.6,5c-0.2,3,0.7,5.6,2.8,12.9c2.1,7.3-0.8,9.1-0.8,9.1C100.9,141,95.2,133.4,94.4,121.9z
		 M100,145.8c5.1-3.7,1.8-14,0.5-18.4c-1.3-4.5,0.3-7.7,0.3-7.7c4.2-1,3.4-4.7,3.4-4.7l2.6-1.9c0,0,0.7,1.6,3.1,1.6
		c2.1,0,4.1-0.7,4.1-2.8c0-2-0.8-2.4-0.8-2.4c15.9-2.5,16.9-6.1,16.9-6.1v42.4H100z M130.5,194.1l0.3-0.6l0.3,0.6c0,0,1.8,4.7,5.6,7
		c0,0-3.5,0.5-5.8-4.3c-2.3,4.8-5.8,4.3-5.8,4.3C128.7,198.8,130.5,194.1,130.5,194.1z"/>
	<path class="st0" d="M119.7,138v5.3h5.3l2.1-2.1v-5.3h-5.3L119.7,138z M124.3,142.5h-3.8v-3.8h3.8V142.5z M126.8,140.5l-1.8,1.8
		v-3.6l1.8-2.1V140.5z M125.9,136.4l-1.4,1.6h-3.8l1.6-1.6H125.9z"/>
	<path class="st0" d="M109.5,138v5.3h5.3l2.1-2.1v-5.3h-5.3L109.5,138z M114,142.5h-3.8v-3.8h3.8V142.5z M116.5,140.5l-1.8,1.8v-3.6
		l1.8-2.1V140.5z M115.7,136.4l-1.4,1.6h-3.8l1.6-1.6H115.7z"/>
	<path class="st0" d="M119.7,120.5v5.3h5.3l2.1-2.1v-5.3h-5.3L119.7,120.5z M124.3,125h-3.8v-3.8h3.8V125z M126.8,123l-1.8,1.8v-3.6
		l1.8-2.1V123z M125.9,118.9l-1.4,1.6h-3.8l1.6-1.6H125.9z"/>
	<path class="st0" d="M109.5,120.5v5.3h5.3l2.1-2.1v-5.3h-5.3L109.5,120.5z M114,125h-3.8v-3.8h3.8V125z M116.5,123l-1.8,1.8v-3.6
		l1.8-2.1V123z M115.7,118.9l-1.4,1.6h-3.8l1.6-1.6H115.7z"/>
	<path class="st0" d="M112.1,123.6c0.3,0,0.5-0.2,0.5-0.5c0-0.3-0.2-0.5-0.5-0.5c-0.3,0-0.5,0.2-0.5,0.5
		C111.6,123.4,111.9,123.6,112.1,123.6z"/>
	<path class="st0" d="M119.7,129v5.3h5.3l2.1-2.1v-5.3h-5.3L119.7,129z M124.3,133.5h-3.8v-3.8h3.8V133.5z M126.8,131.5l-1.8,1.8
		v-3.6l1.8-2.1V131.5z M125.9,127.4l-1.4,1.6h-3.8l1.6-1.6H125.9z"/>
	<path class="st0" d="M109.5,129v5.3h5.3l2.1-2.1v-5.3h-5.3L109.5,129z M114,133.5h-3.8v-3.8h3.8V133.5z M116.5,131.5l-1.8,1.8v-3.6
		l1.8-2.1V131.5z M115.7,127.4l-1.4,1.6h-3.8l1.6-1.6H115.7z"/>
	<path class="st0" d="M112.1,132.1c0.3,0,0.5-0.2,0.5-0.5s-0.2-0.5-0.5-0.5c-0.3,0-0.5,0.2-0.5,0.5S111.9,132.1,112.1,132.1z"/>
	<path class="st0" d="M111.1,131.1c0.3,0,0.5-0.2,0.5-0.5c0-0.3-0.2-0.5-0.5-0.5c-0.3,0-0.5,0.2-0.5,0.5
		C110.6,130.9,110.8,131.1,111.1,131.1z"/>
	<path class="st0" d="M113.2,133.2c0.3,0,0.5-0.2,0.5-0.5c0-0.3-0.2-0.5-0.5-0.5c-0.3,0-0.5,0.2-0.5,0.5
		C112.7,133,112.9,133.2,113.2,133.2z"/>
	<path class="st0" d="M121.4,131.1c0.3,0,0.5-0.2,0.5-0.5c0-0.3-0.2-0.5-0.5-0.5c-0.3,0-0.5,0.2-0.5,0.5
		C120.9,130.9,121.1,131.1,121.4,131.1z"/>
	<path class="st0" d="M123.5,132.2c-0.3,0-0.5,0.2-0.5,0.5c0,0.3,0.2,0.5,0.5,0.5c0.3,0,0.5-0.2,0.5-0.5
		C124,132.4,123.7,132.2,123.5,132.2z"/>
	<path class="st0" d="M121.4,122.5c0.3,0,0.5-0.2,0.5-0.5c0-0.3-0.2-0.5-0.5-0.5c-0.3,0-0.5,0.2-0.5,0.5
		C120.9,122.3,121.1,122.5,121.4,122.5z"/>
	<path class="st0" d="M123.5,124.6c0.3,0,0.5-0.2,0.5-0.5c0-0.3-0.2-0.5-0.5-0.5c-0.3,0-0.5,0.2-0.5,0.5
		C123,124.4,123.2,124.6,123.5,124.6z"/>
	<path class="st0" d="M123.5,131.1c0.3,0,0.5-0.2,0.5-0.5c0-0.3-0.2-0.5-0.5-0.5c-0.3,0-0.5,0.2-0.5,0.5
		C123,130.9,123.2,131.1,123.5,131.1z"/>
	<path class="st0" d="M121.3,133.2c0.3,0,0.5-0.2,0.5-0.5c0-0.3-0.2-0.5-0.5-0.5c-0.3,0-0.5,0.2-0.5,0.5
		C120.9,133,121.1,133.2,121.3,133.2z"/>
	<path class="st0" d="M112.1,141.1c0.3,0,0.5-0.2,0.5-0.5c0-0.3-0.2-0.5-0.5-0.5c-0.3,0-0.5,0.2-0.5,0.5
		C111.6,140.9,111.8,141.1,112.1,141.1z"/>
	<path class="st0" d="M111.1,140c0.3,0,0.5-0.2,0.5-0.5c0-0.3-0.2-0.5-0.5-0.5c-0.3,0-0.5,0.2-0.5,0.5
		C110.6,139.8,110.8,140,111.1,140z"/>
	<path class="st0" d="M113.2,141.2c-0.3,0-0.5,0.2-0.5,0.5c0,0.3,0.2,0.5,0.5,0.5c0.3,0,0.5-0.2,0.5-0.5
		C113.7,141.4,113.5,141.2,113.2,141.2z"/>
	<path class="st0" d="M113.2,140c0.3,0,0.5-0.2,0.5-0.5c0-0.3-0.2-0.5-0.5-0.5c-0.3,0-0.5,0.2-0.5,0.5
		C112.7,139.8,112.9,140,113.2,140z"/>
	<path class="st0" d="M111.1,142.2c0.3,0,0.5-0.2,0.5-0.5c0-0.3-0.2-0.5-0.5-0.5c-0.3,0-0.5,0.2-0.5,0.5
		C110.6,141.9,110.8,142.2,111.1,142.2z"/>
	<path class="st0" d="M123.5,141.1c0.3,0,0.5-0.2,0.5-0.5c0-0.3-0.2-0.5-0.5-0.5c-0.3,0-0.5,0.2-0.5,0.5
		C123,140.9,123.2,141.1,123.5,141.1z"/>
	<path class="st0" d="M121.4,141.1c0.3,0,0.5-0.2,0.5-0.5c0-0.3-0.2-0.5-0.5-0.5c-0.3,0-0.5,0.2-0.5,0.5
		C120.9,140.9,121.1,141.1,121.4,141.1z"/>
	<path class="st0" d="M121.4,140c0.3,0,0.5-0.2,0.5-0.5c0-0.3-0.2-0.5-0.5-0.5c-0.3,0-0.5,0.2-0.5,0.5
		C120.9,139.7,121.1,140,121.4,140z"/>
	<path class="st0" d="M123.5,141.2c-0.3,0-0.5,0.2-0.5,0.5c0,0.3,0.2,0.5,0.5,0.5s0.5-0.2,0.5-0.5
		C124,141.4,123.8,141.2,123.5,141.2z"/>
	<path class="st0" d="M123.5,140c0.3,0,0.5-0.2,0.5-0.5c0-0.3-0.2-0.5-0.5-0.5c-0.3,0-0.5,0.2-0.5,0.5
		C123,139.7,123.2,140,123.5,140z"/>
	<path class="st0" d="M121.4,142.2c0.3,0,0.5-0.2,0.5-0.5c0-0.3-0.2-0.5-0.5-0.5c-0.3,0-0.5,0.2-0.5,0.5
		C120.9,142,121.1,142.2,121.4,142.2z"/>
	<path class="st0" d="M136.6,182.8c0,0,17,1.6,20.1-5.2c0,0-4.5-0.6-8.2-0.7v-4.2c0,0,3.8-3.4,3.8-11.9c0-6.1-6.7-11.1-6.7-11.1
		s-5.9,5.9-5.9,14c0,8.1,5.2,9.2,5.2,9.2l0,3.6C145,176.5,137,180.3,136.6,182.8z M149.6,157.7c-0.4,0.4-1,0.4-1.1,0
		c-0.1-0.4,0.8-0.1,0.5-0.5c-0.3-0.4-0.8-0.6-0.3-0.8C149.1,156.3,150,157.4,149.6,157.7z M148.1,154.4c0.2-0.6,1.3,0.9,0.7,1.1
		C148.2,155.8,147.7,155.4,148.1,154.4z M144.4,166.7c0.6-0.9,0.4-3.7,0-3.7c-0.4,0,0,1.1-0.6,1.2c-0.6,0.1-0.3-1.3-0.6-1.3
		c-0.3-0.1-0.1-0.7,0.1-1.4c0.2-0.6-0.8-1.9,0-3.5c0.8-1.6,0-1.5,0-1.8c0-0.4,2-0.1,2-0.5c0-0.5-2,0-2-0.5c0-0.4,1.3-0.4,1.6-0.4
		c-0.3-0.1-0.7-0.9-0.4-1c0.4-0.1,0.8-1.4,0.8-1.4c0.4,0.4,1,1,1.4,1.1c0.4,0.2-1.4,0.2-1,0.3c0.4,0.1,1,0.7,0.7,0.7
		c-0.4,0-0.7,0.5-0.4,0.9c0.3,0.5,1.6,1,0.3,1c-1.4,0-0.3,1.6-0.3,1.6s0.7,0.2,1.1,0.4c0.4,0.3-0.5,0.5,0.4,0.7
		c0.9,0.2,0.5-0.4,0.9-0.7c0.4-0.3,0.1,1.1-0.3,1.1c-0.3,0-1.3,1.4-0.3,2.1c1,0.7,0.9,0.2,1.1,0.9c0.2,0.7-1.1,0.1-1.1,0.4
		c0,0.3,1.7,1,0.7,0.9c-1-0.1-0.8,0.7-0.8,0.9c0,0.2,1.1,0.5,0.7,0.9c-0.4,0.4-0.7,0-1.3,0c-0.6,0,0.1,0.7,0.6,0.8
		c0.6,0.1,0.6,1.6,1,1.6c0.4,0,0.3,1.1-0.7,1.1c-1-0.1,0-0.9-0.6-1c-0.5-0.1-1.1,0.8-1.8,0.9c-0.7,0-0.5,1.4-0.4-1
		C145.3,165.4,143.8,167.5,144.4,166.7z M147.4,176.5c-0.2,1-1.4,0.5-1.4,0.5V173h1.4C147.4,173,147.6,175.5,147.4,176.5z
		 M139.1,181.2c0.1-0.4,2.4-1.5,2.8-0.9c0.4,0.5,1.1,0.9,2,0.8c0.9-0.1-0.1-0.4-0.4-1.1c-0.3-0.7,1-0.6,1.6,0
		c0.6,0.6,0.5,1.1,1.2,1.1c0.7,0-0.2-1.7,0.4-1.6c0.6,0.2,0.5,0.9,1.4,0.9c0.8-0.1,1-0.2,1.3,0.2c0.3,0.5,1.8-1.6,1.8-0.8
		c0,0.8-0.4,1.2,0,1.3c0.4,0,0.8-1,1.6-1c0.7,0,0.7,0.5,0.7,0.5s-6.5,3.1-15.8,2h3C140.6,182.5,139.1,181.6,139.1,181.2z"/>
	<path class="st0" d="M125.2,177.6c3.1,0,3.2-4.5,3.2-7.1c0-2.6-0.7-7.5-1.2-9.3c-0.5-1.8,0.5-4,0.5-5.8c0-1.8-0.5-3.6-1.6-3.6
		c-1.2,0-2,1.3-2,3.8c0,2.5,0.4,2.7,0.4,4.2c0,1.5-1.5,6.5-1.5,8.7c0,2.2-0.2-0.2-0.2-0.2s-0.8-7.2-0.8-8.1c0-0.9,0.9-3.6,0.9-5.2
		c0-1.7-0.5-3.2-1.6-3.2c0,0-1.9-0.4-1.9,3.6c0,3.9,0.3,3.2,0.3,4.9c0,1.7-1.3,6.1-1.3,6.1s-1.4-3.7-1.4-6.1c0-2.4,0.5-3,0.5-5.3
		c0-2.3-0.5-3.6-1.6-3.6c-1.1,0-1.8,1.3-1.8,4c0,2.7,0.5,3.1,0.5,5c0,1.3-1.2,4.3-1.2,4.3s-1-3.7-1-5.4c0-1.8,0.8-3.4,0.8-5.4
		c0-2-0.8-2.7-1.5-2.7c-0.7,0-2,0.5-2,2.7c0,2.1,0.1,3.9,0.1,5.5c0,1.6-1,3.9-1,3.9s-0.6-4.8-0.8-6.1c-0.1-0.7,0.5-1.7,0.5-3.3
		c0-1.6-0.4-2.9-1.5-2.9c-0.7,0-1.5,1.2-1.5,2.9c0,1.6,0.3,2.5,0.3,3.5c0,1-1.6,3.4-1.6,5.9c0,2.5,0.4,4.3,2.2,4.3
		c1.8,0,2-1.4,2-1.4s0.1,3.2,2.3,3.2c1.3,0,2-1.3,2-1.3s-0.4,3.4,2.4,3.4c1.7,0,2.1-1.1,2.1-1.1s-0.7,5.1,2.6,5.1
		c2.2,0,2.5-1.9,2.5-1.9S122.1,177.6,125.2,177.6z M125.1,161.9c0.5-4-0.3-4.1-0.3-6.1c0-2,0.4-3.1,1.3-3.1c0.5,0,0.9,1.6,0.7,3
		c-0.4,2.8-0.7,2.1-0.3,6.2c0.2,1.9,1,6.1,1,9.2c0,3.1-0.8,5.3-2.4,5.3c-1.6,0-1.7-2-1.7-4.5C123.5,169.4,124.6,165.9,125.1,161.9z
		 M106.6,166.5c-0.9,0-1.3-0.8-1.3-3c0-2.2,1.4-5.1,1.4-6.1c0-1-0.4-2.1-0.4-3.4c0-1.3,0.2-2,0.8-2c0.6,0,0.8,0.5,0.8,1.8
		c0,1.3-0.5,2.6-0.5,3.5c0,0.9,0.7,4.6,0.7,6.2C108.1,165,107.6,166.5,106.6,166.5z M111.1,168.5c-0.9,0-1.3-0.9-1.3-3.3
		c0-2.4,0.9-3.6,0.9-4.7c0-1.1-0.2-4.5-0.2-6c0-1.3,0.3-2.2,1-2.2c0.7,0,0.8,0.2,0.8,2.2c0,1.4-0.5,1.7-0.5,6c0,1,0.7,2.8,0.7,4.6
		C112.6,166.9,112.1,168.5,111.1,168.5z M115.5,170.7c-0.9,0-1.6-0.9-1.6-3.7c0-2,1.5-4.3,1.5-6.5c0-1.3-0.4-3.9-0.4-5.6
		c0-2.1,0.4-2.6,1-2.6c0.6,0,0.8,0.3,0.8,2.5c0,1.6-0.5,2.6-0.5,5.7c0,1.1,1,3.9,1,6C117.3,168.5,116.5,170.7,115.5,170.7z
		 M122.1,170.7c0,2.1-0.4,4-1.9,4c-1.5,0-1.8-1.4-1.8-4c0-2.6,1.5-5.8,1.9-9.6c0.4-3.8,0-4.2,0-5.8c0-1.6,0.2-2.5,1-2.5
		c0.8,0,0.8,0.5,0.8,2.1c0,1.6-0.7,4.2-0.7,6.1C121.4,162.9,122.1,168.5,122.1,170.7z"/>
	<path class="st0" d="M80.3,179.1c1.9,4.9,8.5,10.6,14.6,14c6.1,3.3,15,5.8,15,5.8c0.3,1,1.4,1,1.4,1c0.1,1.5,0.6,2.4,1.8,3.8
		c1.2,1.5,3.2,3.4,3.2,3.4c6.5-1.4,5.6-5.6,5.6-5.6s-1-0.6-3.4-2.7c-2.4-2.1-4-1.6-4-1.6c-0.3-0.8-3.2-1.3-3.2-1.3
		c-7-1.6-16-7.4-16-7.4c-7.1-4.3-9.6-9.4-11-12.1c-1.4-2.7-0.9-6.6-0.9-6.6h1.8c0-4.7-2.3-6.6-2.3-6.6s0.5-0.3,0.5-1.6
		c0-0.9-0.4-1.4-0.4-1.4c0.6-0.7,0-1.3,0-1.3c1.8-0.9,1.9-2.1,1.9-2.1l2.8-0.2c0.7-6.4-3.2-9.9-3.2-9.9c0.3-0.4,0.5-1.1,0.1-1.7
		c0.6-1.6,0-3.6-0.4-3.8c-0.5-0.3-0.7-4.5-0.7-5.4c0-0.9,0.6-5.3,0.8-7.6c0.2-2.4,1.9-11.4,1.9-11.4s2.6,0.4,5.3-1
		c2.6-1.4,1-7.2,1-7.2c1.9,0,2.6-1.7,2.6-1.7c2.3-0.4,2.8-2.6,2.8-2.6c1.7,0.2,2.4-2.1,2.4-2.1c5.1,0.3,14.2-1.1,20.5-3.6
		c4.5-1.8,7-4.4,8.1-5.8c-0.4,0.2-0.8,0.4-1.3,0.6c-0.2,0.5-0.7,1.1-1.9,0.7l0,0c-1.3,0.4-2.5,0.7-3.2,0.9
		c-8.9,4.3-22.2,4.1-22.2,4.1s1.1-6.2-5.1-7.1c-9.1-0.8-8.8,8-8.8,8c-4.5,0.8-5.8,3.4-5.8,3.4c-2.7,7.4,2.5,10.9,2.5,10.9
		c-3.6,5.6-4.1,27-4.1,27c-1,0.8-0.8,2.2-0.6,3.6c-0.5,1.1,0.2,2.1,0.2,2.1c-5.4,2.2-4.9,9.9-4.9,9.9h3.2c0,1.2,2.3,2.3,2.3,2.3
		s-0.5,0.2-0.1,1c0,0-1,0.4-1,1.5c0,1.8,0.6,1.9,0.6,1.9c-2.6,2.7-2.6,6.4-2.5,6.6l3.5,0C79.2,170.1,78.3,174.2,80.3,179.1z
		 M125.2,94.7c1.4,0.3-1.2,1.7-1.9,1.2C122.7,95.6,123.7,94.4,125.2,94.7z M122.7,96.3c0.4,1-2.5,2.2-3,1.1
		C119.1,96.4,122.3,95.3,122.7,96.3z M118.8,97.8c0.1,0.8-2.4,1.5-2.6,0.5C116,97.3,118.6,97,118.8,97.8z M115.3,98.7
		c0.2,1-2.4,1.9-2.6,0.6C112.6,98,115.2,98.2,115.3,98.7z M109.8,99.3c0,0,1-0.7,2.3,0.4C111.5,101.5,109.4,100,109.8,99.3z
		 M106.8,99.5c0.4-0.5,2.8,0.5,1.9,1.6C107.7,102.2,106.1,100.3,106.8,99.5z M103.9,99.7c0.5-0.5,2.7,0.5,1.8,1.6
		C104.8,102.4,103,100.6,103.9,99.7z M100.9,100.2c0.5-0.4,2.9,0,2.2,1.1C101.8,102.5,100.4,100.6,100.9,100.2z M79.9,175.1
		c-1.2-1.6,1.6-3.4,2.3-3.3C83.3,172,80.7,176.1,79.9,175.1z M79.8,170.1h2.5C82.3,170.1,79.6,172.3,79.8,170.1z M80.8,178
		c-1.4-0.6,1-4.1,1.8-3.8C83.5,174.6,82.2,178.6,80.8,178z M115,200.8c0.6-0.6-1.9-1.5-1.5-2.1c0.4-0.5,1.9,1,2.3,0.6
		c0.3-0.3-1.8-1.2-1.8-1.2c0.1-0.2,0.6-0.4,0.6-0.4c2-0.1,7.3,3.8,6.6,4.7c-0.7,0.9-1.2-1-1.8-0.5c-1.1,0.9,2.2,0.5,1.1,2.1
		c-1.3,1.8-1.7-1.5-2.6-0.6c-0.9,0.8,2.4,1,1,2.1c-1.4,1.2-2.1-1.3-2.6-0.9c-0.5,0.4,1.8,1.1,0.8,1.6c-1.1,0.5-1.3-0.9-3.7-3.1
		c-2.4-2.2-1.2-3.5-1.2-3.5c-0.1,0.3,1.2,3,1.7,2.7c0.5-0.3-1.5-2.1-1-2.6C113.3,199.3,114.4,201.4,115,200.8z M111.2,197.7
		c0.5-0.4,0.9-1.1,1.3-0.7c0.4,0.3,0,0.7-0.6,1.3c-0.6,0.6-1.1,1-1.4,0.8C110.2,198.8,110.8,198.1,111.2,197.7z M109.6,196.1
		c0.7-0.1,1.2,1.9,0.3,1.9C108.9,198,109.3,196.1,109.6,196.1z M107.4,195.5c0.8-0.2,1.4,1.5,0.5,1.8
		C107,197.6,106.8,195.6,107.4,195.5z M104.5,194.3c0.9-0.4,2.6,1.2,1.5,2.2C104.9,197.6,103.7,194.7,104.5,194.3z M101.5,193.3
		c0.9-0.7,3,1.3,1.7,2.3C101.9,196.7,100.9,193.9,101.5,193.3z M98.5,191.9c1.3-0.9,2.9,1.6,1.9,2.6
		C99.3,195.5,97.6,192.5,98.5,191.9z M95.4,189.9c1.1-0.9,3.3,2.4,2,3.2C96,194,94.6,190.5,95.4,189.9z M92.2,187.8
		c1.2-0.7,3.8,2.7,2.1,3.7C92.7,192.5,91.5,188.3,92.2,187.8z M89.4,185.5c1-0.5,3,2.8,1.4,3.7C89.4,190,88.6,186,89.4,185.5z
		 M87.5,183.7c0.9-0.3,2.1,2.9,0.7,3.5C86.9,187.8,86.6,184,87.5,183.7z M86,181.4c1.1-0.1,1.5,3.6-0.2,3.8
		C84.1,185.4,85,181.5,86,181.4z M84.4,179.5c1.2,0,1,3.3-0.5,3.3C82.3,182.8,83.5,179.5,84.4,179.5z M81.9,180.4
		c-1.7-0.8,0.4-3.4,1.3-3C84.3,177.9,83.6,181.2,81.9,180.4z M84.5,119c-1.6,1.2-2.3-3-1.2-3.7C84,114.9,86.1,117.7,84.5,119z
		 M85.5,115.7c-0.7,0-1.5-0.7-1.5-1.5c0-0.7,0.6-2.2,1.4-1.8C86.8,113,86.1,115.7,85.5,115.7z M86.8,110.1c0.8-0.3,1.6,2.7,0.4,3
		C85.6,113.6,86,110.4,86.8,110.1z M86.7,116.1c-0.8-0.5,0.4-2.2,1.1-1.9C88.6,114.6,87.4,116.6,86.7,116.1z M89,116.2
		c-1.2,0-0.7-2.2-0.1-2.2C89.8,113.8,90.2,116.2,89,116.2z M87.8,113.2l1.9-2.1C90.1,114.3,87.8,113.2,87.8,113.2z M89.5,105.4
		c-1.1,0.9-3.1-2.1-2.4-2.6C88.3,101.9,90.6,104.5,89.5,105.4z M89,99.7c0.5-0.8,2.8,0.3,2.1,1.3C90.6,101.8,88.4,100.6,89,99.7z
		 M90.8,108.2c-1.1,0.9-2.4-1.4-1.8-2.1C89.5,105.5,91.9,107.2,90.8,108.2z M91.9,110.7c-0.6,0.6-1.8-0.9-1.4-1.5
		C91,108.5,92.5,110,91.9,110.7z M88.5,108.6c0.9-0.3,1.3,2.2,0.2,2.5C87.6,111.4,87.9,108.8,88.5,108.6z M90.6,115.1
		c-1.1,0.1-0.6-2.2,0-2.2C91.6,112.8,91.7,115,90.6,115.1z M92.1,112.4c-0.3,0.8-1.8-0.7-1.6-1.2C90.9,110.7,92.5,111.7,92.1,112.4z
		 M92.2,107.7c-1.2-0.9,0.7-2.9,1.5-2.6C94.6,105.4,93.4,108.6,92.2,107.7z M90.9,105.9c-0.9-0.3-1.6-3.8-1.6-3.8s5,0,5.1,0.7
		C94.5,103.5,90.9,105.9,90.9,105.9z M92,99.8c1.2-0.4,2.6,1.6,1.9,2.2C93.1,102.5,90.8,100.2,92,99.8z M95,106.2
		c-1.5-0.6,0.5-4,1.4-3.5C97.2,103.1,96.4,106.7,95,106.2z M96,101.9c-1.1,0.5-1.3-1.2-1.3-1.2c0.5-0.6,2.2-0.5,2.2-0.5
		S97.1,101.4,96,101.9z M98.5,103.4c-1.1,0.6-1.7-2.1-0.9-2.7C98.4,100.2,99.6,102.8,98.5,103.4z M99.8,100.9
		c-0.9,1.1-3.1-2.4-2.4-2.9C98.4,97.2,100.7,99.8,99.8,100.9z M99.2,97c-0.3,1.2-3.1-0.3-2.7-1.1C97.1,94.8,99.5,96,99.2,97z
		 M98.1,94c0.4,0.7-3.8,2.1-4,0.6C93.9,93.2,97.4,92.9,98.1,94z M96.9,99.2c0,0-2.1,0.1-2.6,1c0,0-1.1-0.9-1.7-0.9
		c-0.6,0-3-0.3-3-0.3s1.5-3.3,4.1-2.9C96.4,96.4,96.9,99.2,96.9,99.2z M93.1,93c1,0.8-0.9,3-1.9,2.6C90,95.1,91.6,91.9,93.1,93z
		 M89.4,94.2c0.8,0,1.5,2.6,0,2.8C87.8,97.2,88.6,94.2,89.4,94.2z M87.4,97c0.5-0.2,1.5,1.3,1.5,1.9c0,0.6-2.1,0.8-2.1,0.8
		S86.8,97.2,87.4,97z M86.2,100.7c0.6-0.8,3.1,0.1,2.3,1.1C87.7,102.8,85.5,101.6,86.2,100.7z M86.3,102.8c0,0,1.6,3.9,1.8,4.9
		c0.2,1-4,4-4,4s-1.6-3-1.4-5.2C82.8,104.3,85.9,103.6,86.3,102.8z M82.4,102.2c1.5-1.5,2.9,0.5,2,1.2
		C83.6,104.1,82,102.6,82.4,102.2z M82.8,103.6c1.1,1-1.4,2.6-2.2,1.9C79.9,104.9,81.7,102.6,82.8,103.6z M80.3,109
		c-1.1-0.4,0-3.1,1.2-2.5C82.5,107,81.4,109.4,80.3,109z M81.2,111.9c-1.1-0.6,0-2.7,0.9-2.4C83.1,109.8,82.4,112.4,81.2,111.9z
		 M83.5,112.2l-0.8,1.7C82.8,114,81.8,112.1,83.5,112.2z M82.2,118.9c0.7-0.5,3.2,2.5,1.7,3.8C82.4,123.8,81.2,119.6,82.2,118.9z
		 M81.5,122.5c0.8-0.5,3.6,2.4,2,3.6C81.9,127.4,80.8,123,81.5,122.5z M80.8,125.7c0.8-0.5,3.6,2.9,2.1,3.9
		C81.4,130.6,79.5,126.5,80.8,125.7z M80.5,129.9c0.8-0.6,3.1,2.2,1.7,3.1C80.2,134,80,130.3,80.5,129.9z M80.2,133.4
		c1-0.6,3.4,3,2.2,3.9C80.6,138.3,79.4,133.8,80.2,133.4z M79.8,137.6c1.4-0.4,2.7,1.5,2.4,1.9c-0.3,0.4-1.3,0.3-1.9,0
		C79.6,139.2,79.1,137.9,79.8,137.6z M81.1,140.1c1.3,0,2,0,2,0.5c0,0.5-1.5,0.4-2,0.4c-0.4,0-2,0.1-2-0.4
		C79.2,140,79.9,140.1,81.1,140.1z M79.5,141.7c0.4,0,0,1.1,0.3,1.1c0.3,0,0-0.6,0.3-0.7c0.2-0.1,0.4-0.5,0.8-0.5
		c0.4,0,0.1,0.7,0.4,0.7c0.4,0,0-0.7,0.4-0.7c0.3,0,0.4,0.4,0.4,0.4c0.9,0,0.6,0.9,0.9,0.9c0.3,0,0-1,0.5-1c0.5,0,0.5,0.7,0.5,1.1
		c0,0.4,0,1.2-0.5,1.2c-0.5,0,0-0.7-0.5-0.7c-0.5,0,0.2,1.1-0.6,1.1c-0.7,0,0.1-1.6-0.4-1.6c-0.5,0,0.1,1.6-0.7,1.6
		c-0.8,0-0.2-1-0.6-1c-0.4,0,0.1,1-0.6,1c-0.7,0,0-1-0.4-1c-0.3,0-0.3,0.7-0.5,0.7c-0.2,0-0.8,0.1-0.8-1
		C78.5,142.3,79,141.7,79.5,141.7z M81.2,145.3c1.8,0,2.7,0,2.7,0.5c0,0.5-2.1,0.4-2.7,0.4c-0.6,0-2.8,0.2-2.8-0.4
		C78.5,145.2,79.4,145.3,81.2,145.3z M77,153.3c-0.9,0.4,0.3,2.8-1.1,2.8c-1.2,0-0.5-1.8-0.9-1.8c-0.4,0,0,1.6-0.2,1.6
		c-0.2,0-0.6,0-0.6,0s-0.3-2.5,0.6-4.3c1.2-2.4,1.9-3,2.6-3c0.9,0-1.7,3.9-0.9,3.9c0.8,0,1.7-5.2,2.8-5.2c0.4,0,0.1,1.2,0.6,1.2
		s0.4-2,0.9-2c0.5,0-0.2,1.6,0.5,1.6c0.7,0-0.2-1.6,0.4-1.6c1.5,0,1.6,4.6,2.2,4.6c1,0-1.2-4.2-0.6-4.2c0.6,0,1.1,0.4,2.6,2.9
		c1.6,2.5,1.3,5.5,0.9,5.5s-0.1-0.8-0.5-0.8c-0.4,0,0.3,1.5-0.4,1.5c-0.8,0-0.1-2.2-0.4-2.2s-0.4,0.3-0.5,1.2
		c-0.1,1-0.4,1.1-1.5,1.1c-1.1,0-0.4-0.8-0.9-0.8c-0.5,0-0.5,0.7-0.5,0.7s-1.2,0-2.1,0c-0.9,0,0-1.4-0.6-1.4c-0.6,0-0.1,1.6-0.7,1.6
		c-0.6,0-0.4-0.3-1-0.3C76.2,155.9,77.7,153,77,153.3z M78.5,157.5c-0.1-0.1-0.4-0.6-0.6-0.6c-0.2,0,0-0.1,0-0.1h1.8
		c0,0,0.1,0.9,0.5,0.9c0.3,0,0-1.1,0.2-1.1c0.2,0,0.8,0,0.8,0s-0.1,0.5,0.2,0.5c0.3,0,0-0.5,0.3-0.5c0.3,0,2.1,0,2.1,0
		s0.2,1.1-0.3,1.1c-0.5,0-0.2-0.4-0.5-0.4c-0.3,0-0.2,0.7-0.6,0.7c-0.4,0-0.2-0.7-0.5-0.7c-0.3,0-0.2,1.1-0.5,1.1
		c-0.3,0-0.9-0.2-1.2-0.2c-0.3,0-0.2,0.5-0.5,0.5c-0.3,0-0.3-0.8-0.6-0.8C78.7,158.1,78.6,157.6,78.5,157.5z M78.8,161.1
		c0.6-0.4,0.5,0.3,0.8,0.3c0.3,0,0-0.9,0.4-0.9c1.1,0,0.7,1.2,1.1,1.2c0.3,0,0.1-0.6,0.5-0.6c0.4,0,0.9-0.6,0.9,0.3
		c0,0.8,0.1,1.3-0.3,1.4c-0.4,0.1-0.1-0.6-0.5-0.6c-0.4,0,0.3,1-0.4,1c-0.7,0-0.3-1-0.6-1c-0.3,0,0.3,1-0.6,1
		c-0.9,0-0.4-1.4-0.7-1.4c-0.3,0,0,1.1-0.3,1.1c-0.3,0-0.6-0.5-0.6-1.1C78.4,161.8,78.4,161.4,78.8,161.1z M78.4,169.6
		c-0.8,0.1-0.3-0.3-0.6-0.5c-0.3-0.3-0.4,0.3-1,0.3c-0.7-0.1,1.4-5.4,1.9-5c0.2,0.2-1.1,3.8-0.9,3.8c0.2,0.1,0.8-2,0.8-2
		s0.2-2,1.9-2.1c1.9-0.1,1.8,2.9,2.4,2.8c0.6-0.1-0.9-2.8-0.9-2.8c2.7,1.3,2.7,5.1,2.4,5.1c-0.3,0-0.5-1.1-0.6-0.6
		c-0.1,0.5,0.6,0.8-0.1,1c-0.8,0.2-0.7-1.7-0.7-0.7c0,1-0.4,0.7-0.4,0.7c0,0-0.3-2.2-0.4-2.9c-0.1-0.7-0.6-0.7-0.6-0.7
		c0.6,1.2,0.8,3.8,0.4,3.8c-0.4,0,0-1.1-0.4-1.1c-0.4,0,0,0.9-0.6,1c-0.6,0-0.2-1-0.5-1c-0.3,0,0,0.9-0.7,1c-0.7,0,0.1-1.2-0.4-1.1
		C78.8,168.6,79.3,169.5,78.4,169.6z"/>
	<path class="st0" d="M138.4,94.1c0,0-1.6,1.4-2-0.5c-0.5-0.1-1-0.3-1.5-0.4c2.5,3.6,9.7,5.5,14.7,6.9c5.2,1.4,13.2,1.6,13.2,1.6
		c0.7,6.3,6.1,8,6.1,8s2.2,6.6,9,6.5c0,0,0.9,3.2,1.1,5.4c0.2,2.2,0.2,7.9,0.1,9.4c-0.1,1.5-0.4,8.1-0.4,8.1
		c-0.7,0.4-0.1,1.3-0.1,1.3c-1.7,2-0.3,3.6-0.3,3.6c-0.7,0.7,0.1,1.5,0.1,1.5c-5.5,3.8-4.6,10.3-4.6,10.3h2.9
		c0.5,1.7,2.1,2.3,2.1,2.3c-0.6,0.8-0.1,1.5-0.1,1.5s-0.7,0-0.7,1.3c0,1.2,0.5,2,0.5,2c-2.2,2.8-2,6.5-2,6.5h2.5
		c-0.2,2.5-1.5,5.8-3.8,9.1c-2.2,3.2-6.3,7.2-9.4,9.4c-3.1,2.3-6.6,3.6-11.2,5.7c-4.6,2.1-8.6,3.5-8.6,3.5c-1.6-0.1-1.7,0.8-1.7,0.8
		s-2.9,1.3-4.4,1.9c-1.5,0.6-2.7,2.9-2.7,2.9l0.6,0.3l-0.1,0.8l0.6,0.2l0.1,0.9l0.9,0.2v0.9h0.8l0.1,0.9h0.7l0.5,0.5h0.8l0.4,0.5
		c4.2-2.2,4.3-6.6,4.3-6.6s0.6,0.3,1.2-0.4c0.4-0.4,0.6-0.8,0.6-0.8c2.5-1.6,5.4-1.6,11.9-5.1c8.4-4.6,13.3-8.9,17.3-14.5
		c4-5.6,5-11.1,5-11.1h2.6c0-4.8-2.7-6.9-2.7-6.9s0.6-0.4,0.6-1.4c0-1-0.5-1.3-0.5-1.3s0.3-0.5,0.3-0.9c0-0.4-0.2-0.7-0.2-0.7
		c1.8-0.4,2-2.3,2-2.3h2.9c-0.1-7.3-3.7-10.1-3.7-10.1s0.3,0,0.3-0.7c0-0.7-0.3-0.8-0.3-0.8s0.6-0.8,0.6-2.1c0-1.3-1.2-1.6-1.2-1.6
		c0.5-0.4-0.2-1.4-0.2-1.4s-0.6-8.3-0.5-13.7c0.2-7.2-0.7-10.3-0.7-10.3s1.8-0.9,1.9-4.8c0.1-4.6-8.3-9.7-8.3-9.7
		c0.4-1.5,1.4-7.5-5.6-7.8c-7-0.3-7.4,5.9-7.4,5.9c-10.1-0.5-15-2.1-17-2.9C143.1,95.1,140.6,94.6,138.4,94.1L138.4,94.1z
		 M147.6,197.3c0,0,0.1,2.1-0.8,0.9C145.9,197.1,147.6,197.3,147.6,197.3z M143.5,204.5c0.5,0.3,2.2-2.5,2.2-2.4
		c0.1,0.1,0,0.5,0,0.5c-0.3,1.8-2.7,4-2.9,4.1c-0.2,0.1-0.4-0.2-0.4-0.2l-0.9,0.3l-0.1-0.6h-0.7l-0.1-1h-0.9l-0.1-1h-0.8
		c-0.1-0.2,0.7-0.8,0.3-1c-0.3-0.2-1.1,0-1.1,0s1.3-1.3,1.3-1.5c0-0.4-1.7,0.9-1.3,0.2c0.4-0.7,3.2-2.9,3.7-2.5
		c0.5,0.4-1.6,0.8-1.1,1.2c0.5,0.4,3.6-1.9,4-1.5c1,0.9-2.6,2.7-1.9,3.1c0.7,0.4,2.3-2.7,2.9-2.2C146.5,201,143,204.2,143.5,204.5z
		 M147.6,200.5c-0.8,0.6-2.8-2.4-2.5-2.8C145.4,197.3,148.4,199.9,147.6,200.5z M148.8,198.5c-1.1-1,0.5-2.7,1.2-2.4
		C150.9,196.5,149.9,199.5,148.8,198.5z M151.2,197.5c-1.2-1.4,0.9-2.6,1.6-2.1C153.3,195.9,152.3,198.8,151.2,197.5z M153.7,196.6
		c-1-1.2,1.2-3.1,2-2.4C156.6,195,154.7,197.7,153.7,196.6z M157,195.4c-1.4-1,1.3-3.4,2.2-2.8C160.2,193.3,158.4,196.4,157,195.4z
		 M160.9,193.3c-1.3-0.6,0.8-2.9,1.4-2.5C163.3,191.3,162.2,193.9,160.9,193.3z M163.7,191.9c-1.2-0.6,0.7-2.8,1.3-2.5
		C166,189.9,164.9,192.5,163.7,191.9z M163.6,101.7h1.6c0,0-0.1,0.9-0.8,0.9C163.8,102.6,163.6,101.7,163.6,101.7z M164.8,105.5
		c-0.5-0.4-1-2.2,0.5-2.2C166.7,103.3,165.1,105.7,164.8,105.5z M165.9,99.8c1-0.7,2.8,0.5,1.9,1.4
		C167,102.2,165.1,100.3,165.9,99.8z M166.6,107.4c-0.9,0.1-1-2-0.3-2.2C167.1,104.9,167.5,107.2,166.6,107.4z M165.9,101.8
		c0,0,4.2,0.3,4.8,0.8c0,0-1.7,3.6-2.2,3.7C168.1,106.3,166,104.5,165.9,101.8z M173.5,102c0,0-0.3,1.1-1.4,1.1
		c-1.1,0-0.7-1.1-0.7-1.1H173.5z M174.7,99.4c0.8,1.1-1.5,2.2-2.2,1.7C171.9,100.4,173.9,98.3,174.7,99.4z M172,103.9
		c1.3,0.7-0.8,2.3-1.7,2C169.4,105.6,170.7,103.2,172,103.9z M170,107.2c-0.2-0.4,0.1-0.7,0.1-0.7c1.1-0.6,1.5,0.1,1.5,0.7
		c0,0.5-0.9,0.5-0.9,0.5v-0.5H170z M170.8,101.4c-0.6,0.4-2.7-0.3-1.9-1.5C169.7,98.8,171.4,101,170.8,101.4z M169,108.7
		c-1.3,0.7-1.7-1.5-1-1.9C168.7,106.4,170.3,108,169,108.7z M170.7,111.7c-0.5-0.1-0.9-1.4-0.9-1.4s1.2,0.3,1.7,0.7
		C172.1,111.3,171.2,111.8,170.7,111.7z M170.5,108.2c1.1-0.5,2.3,1.2,1.4,1.9C171.1,110.9,169.4,108.7,170.5,108.2z M172.7,114
		c-0.9,0.1-1-2-0.3-2.1C173.1,111.7,173.5,113.9,172.7,114z M173.3,109.6c0.9-0.8,2,1,1.2,1.7C174,111.7,172.4,110.3,173.3,109.6z
		 M175.9,113.3c-1.4,0.2-2.2-1.5-2.2-1.5C174.8,112.3,175.9,113.3,175.9,113.3z M175.8,115.2c-0.9,0.7-2-0.9-1.6-1.4
		C174.6,113.3,176.7,114.6,175.8,115.2z M175.4,112.1c-0.7-0.2,0.3-1.8,0.7-1.8c0.3,0.1,1.2,0.5,1.2,1
		C177.4,111.9,176.4,112.4,175.4,112.1z M177,113.4c0,0,0.3-1.2,1.2-1.3c0.8-0.1,1.2,1,1.2,1S177.5,113.4,177,113.4z M181.2,114.2
		c0,0.8-2,1-2.1,0C179.1,113.1,181.2,113.4,181.2,114.2z M176.8,114.5c0-1,1.9-0.6,1.9,0.3C178.7,115.8,176.8,115.6,176.8,114.5z
		 M178.7,116.1c0,0,2-0.4,2.5-0.6c0.5-0.3,0.8,1.8-0.7,2C178.9,117.7,178.7,116.1,178.7,116.1z M177.4,155.6h0.8
		c0,0,0.3,1.5,0.8,1.7C178.9,157.3,177.8,157.4,177.4,155.6z M181,161.2c-0.6,0-0.1,1.2-0.7,1.2c-0.6,0-0.3-0.5-0.7-0.6
		c-0.4,0,0-0.6-0.1-0.6c-0.1,0.1-0.5,0.4-0.7-0.3c-0.2-0.7,0.3-0.9,0.5-0.9c0.2,0-0.1,0.4,0.2,0.4c0.3,0,0.3-0.6,0.6-0.6
		c0.4,0,0.1,0.4,0.4,0.4c0.4,0,0.1-0.4,0.5-0.4c0.4,0,0,0.9,0.3,0.9l0,0c0.2,0,0-0.2,0.3-0.5c0.3-0.2,0.8-0.2,0.8,0.5
		c0,0.7-0.7,0.4-0.7,0.4c0.1,0.8-0.3,1-0.8,1C180.6,162.1,181.6,161.2,181,161.2z M180.6,159c-1.6,0-1.7,0-1.7-0.6
		c0-0.3,0.9-0.3,1.7-0.3c0.8,0,1.7-0.1,1.7,0.4C182.3,159,182.2,159,180.6,159z M166.1,190.5c-1-0.1,0-2.7,0.8-2.6
		C167.9,188.1,167.1,190.7,166.1,190.5z M168.4,188.9c-1.3-0.2,0-3.2,0.9-3.1C170.3,185.9,169.6,189.1,168.4,188.9z M170.8,186.7
		c-1.1-0.1-0.3-3,0.6-3C172.6,183.6,172,186.7,170.8,186.7z M173,184.6c-1.1,0-0.5-3,0.4-3.1C174.5,181.4,174.1,184.6,173,184.6z
		 M175.1,182.3c-1.4,0.1-0.8-3,0.4-3.2C176.3,179,176.5,182.2,175.1,182.3z M177.3,179.5c-1.5,0.2-0.6-3.1,0.1-3.2
		C178.2,176.2,178.8,179.3,177.3,179.5z M179,176.1c-1.6,0.2-1.3-2.6-0.4-2.9C179.8,173,180.6,175.9,179,176.1z M180.6,173.3
		c-1.6,0.4-2-2.6-0.9-3C180.7,169.8,182.2,172.9,180.6,173.3z M184.2,165.6c0.8,2.1,0.3,2.6-0.3,2.6c-0.6,0-0.5-0.6-0.5-0.6
		c-0.3,1.3-0.5,0.6-0.5,0.6c-0.2-2-0.8-1.8-0.8-1.8c0.6,1.1,0.5,2.2,0.1,2.1c-0.4,0-0.1-1.1-0.6-1.1c-0.4,0,0.1,1-0.3,1.1
		c-0.4,0.1-0.3-1-0.6-1c-0.3,0,0,1-0.6,1c-0.6,0,0-1.6-0.4-1.6c-0.4,0-0.2,1.2-0.5,1.1c-0.4-0.1-0.1-0.8-0.4-0.8
		c-0.4,0,0.1,0.7-0.2,0.8c-0.3,0.1-1.3,0-1.3,0c0.5-3.1,2.9-5.1,2.9-5.1c1.2-0.2,1.2,0.2,1.2,0.2c-0.3,0.8,0.1,2.1,0.7,2.7
		c0.6,0.5-1-2.1-0.5-2.1c0.9,0,0.8,2,1.4,1.7c0.6-0.3-1.1-1.9-0.7-1.9C182.6,163.4,183.4,163.5,184.2,165.6z M183.6,156.8
		c-0.6,0-0.1-0.6-0.5-0.6c-0.4,0,0,0.6-0.3,0.6c-0.3,0-0.7-0.1-0.9,0c-0.2,0.1,0.2,0.7-0.4,0.7c-0.6,0-0.7-0.3-1.2-0.3
		c-0.5,0,0.6,0.3,0.1,0.3c-0.5,0-1.5-0.2-1.7-1.8h1.3c0,0,0.1,1.1,0.4,1.1c0.3,0-0.1-1.1,0.3-1.1c0.4,0,0.8,0.1,0.8,0.1
		s-0.1,0.5,0.2,0.5c0.3,0-0.1-0.5,0.2-0.5c0.4,0,2.4-0.1,2.4-0.1S184.2,156.8,183.6,156.8z M186.6,151.4c0.7,2,0.2,3.4,0,3.3
		c-0.3-0.1-0.5-1.3-0.5-1.3c0.2,1.9-0.3,1.6-0.6,1.6c-0.3,0,0.1-2.4-0.3-2.4c-0.4,0-0.2,1.6-0.3,2.1c-0.1,0.6-0.5,0.1-1.3,0.3
		c-0.8,0.1-0.4-0.5-0.9-0.5c-0.4,0,0,0.6-0.3,0.6c-0.3,0-0.7-0.2-1.3-0.1c-0.6,0-0.5,0.1-1.3,0.1c-0.8,0,0.1-1.6-0.5-1.5
		c-0.7,0.1,0.1,1.2-0.4,1.3c-0.5,0-0.8,0.2-1.5,0.2c-0.7,0-0.4-0.4-0.5-1.3c-0.1-0.9-0.4-0.6-0.4-0.6c0,1.8-0.2,1.7-1,1.7
		c-0.8,0,0-1.9-0.5-1.9c-0.5,0-0.1,2-0.4,2c-0.4,0-0.4-0.3-0.4-0.3c-0.2-5.8,3.2-7.2,3.2-7.2c0.4,0.6-0.3,0.2-1,2.2
		c-0.7,2.1-0.1,1.9-0.1,1.9c0.6-0.1,0.7-3.4,2.9-5.1c0.4-0.3-0.2,1.2,0.3,1.2c0.5,0,0.6-2,1.1-2c0.5,0-0.1,1.4,0.4,1.4
		c0.5,0,0.3-1.2,0.3-1.2c1.4,0,2,4.4,2.5,4.3c0.5-0.1-0.3-1.3-0.8-2.8c-0.5-1.5,0.1-1.3,0.1-1.3
		C184.7,146.7,185.9,149.4,186.6,151.4z M178.7,144.8c0-0.5,0.9-0.5,2.3-0.5c1.3,0,2.7-0.2,2.7,0.3c0,0.5-0.5,0.6-2.5,0.6
		C179.1,145.2,178.7,145.3,178.7,144.8z M183.2,140.9c0.4,0,0.5,0.8,0.6,1.2c0.1,0.4,0,1-0.5,1c-0.5,0.1,0-0.7-0.4-0.6
		c-0.4,0,0,0.9-0.5,0.9c-0.5,0-0.3-1.6-0.7-1.5c-0.4,0,0.1,1.6-0.5,1.6c-0.6,0.1-0.2-0.9-0.6-0.9c-0.4,0,0,0.7-0.5,0.7
		c-0.5,0,0.1-1-0.3-1c-0.4,0-0.4,1-0.5,1c-0.2,0-0.5,0.1-0.7-1c-0.2-1.1,0.7-1.7,1-1.7c0.4,0,0.3,0.6,0.5,0.6c0.2,0,0.4-0.6,0.7-0.6
		c0.3,0,0.1,0.9,0.4,0.9c0.3,0,0.2-0.9,0.5-0.9c0.3-0.1,0,0.3,0.4,0.3c0.4,0,0.3,1,0.8,1C183.3,141.8,182.8,140.9,183.2,140.9z
		 M182.8,139.6c0,0.4-0.4,0.5-1.8,0.5c-1.6,0-1.8-0.2-1.8-0.5c0-0.4,0.4-0.5,1.8-0.5C182.4,139.1,182.8,139.3,182.8,139.6z
		 M181.7,130.4c-0.7,1-2.4-0.8-1.8-1.5C180.6,128.2,182.4,129.5,181.7,130.4z M181.7,132.6c-0.5,0.8-2.5-0.4-1.7-1.2
		C180.6,130.9,182.2,131.8,181.7,132.6z M181.8,128.2c-0.6,0.9-2.8-0.7-2-1.5C180.7,125.9,182.5,127.3,181.8,128.2z M179.8,136.3
		c0.7-0.9,3,0.1,2.2,1.4C181,139,178.9,137.4,179.8,136.3z M179.8,124.1c0.7-0.6,2.7,0.5,1.6,1.5
		C180.4,126.5,179.3,124.5,179.8,124.1z M181.7,123.3c-1.1,1-3-1.4-2.1-2.2C180.5,120.4,182.8,122.3,181.7,123.3z M182.1,134.9
		c-0.7,1.1-2.7-0.3-2.2-1.2C180.4,132.9,182.8,133.8,182.1,134.9z M181.7,120.4c-1.2,0.9-3.3-1.8-2.2-2.3
		C180.9,117.5,182.9,119.5,181.7,120.4z M181.2,113.3c-0.8-0.8,1-1.9,1.5-1.3C183.3,112.6,182,114.1,181.2,113.3z M182.9,109.4
		c0.8,0.6-0.6,2.5-1.3,1.8C180.8,110.5,182.2,108.8,182.9,109.4z M182,107c0.7,0.3,0.2,2.3-0.8,1.9C180.3,108.5,181.3,106.7,182,107
		z M180.5,104.8c0.8,0.1,0.4,2.4-0.6,2.1C178.9,106.7,179.7,104.8,180.5,104.8z M178.7,103.4c0.6,0,1,1.9,0,1.9
		S177.9,103.5,178.7,103.4z M176.7,102c0.6-0.1,1.5,2.2,0.2,2.1C175.6,104.2,176,102.2,176.7,102z M177.5,105.5c1.6,1,3.3,3,3.5,4.5
		c0.2,1.5-1.1,2.4-1.1,2.4c-1.9-2.6-7.7-4.4-7.7-4.4c-0.1-3.8,1.9-4.9,1.9-4.9S175.9,104.4,177.5,105.5z M175.4,102.1
		c-0.5,0.8-1.2,0.4-1.2,0.4l0.9-1.7C175.1,100.9,175.9,101.4,175.4,102.1z M174.7,96.6c1.3,0.6,0.3,2.1-1.1,2.3
		C172.8,99,173.4,96.1,174.7,96.6z M172,94c0.7-0.2,3,1.1,1.6,2.1C172.1,97.2,171.1,94.3,172,94z M172.4,99.6l-6.4-1.2
		c1.2-2.4,2.2-3.6,4.6-2.7C173,96.6,172.4,99.6,172.4,99.6z M168.8,93.5c1-0.5,2.8,0.1,2.3,1.2C170.5,95.8,167.9,94,168.8,93.5z
		 M167.9,94.4c0.2,1.4-2.4,1.2-2.6,0.5C165.1,94.3,167.6,93,167.9,94.4z M165.4,96.1c1.5,0.7-0.8,2.4-1.6,1.9
		C163.2,97.7,163.9,95.5,165.4,96.1z M162.8,99.4c0.4-0.4,2.1-0.3,2.1,0.6c0.1,0.9-0.4,1-1.4,1.1C162.6,101.1,162.8,99.4,162.8,99.4
		z M159.5,98.9c0.6-0.9,3.3,0.8,2.5,2C161.4,102.1,159,99.7,159.5,98.9z M156.1,98.9c0.6-0.9,3.3,0.9,2.8,1.8
		C158.3,101.5,155.5,99.8,156.1,98.9z M153.2,98.6c0.8-0.8,2.7,0.8,2.2,1.5C154.9,100.9,152.4,99.4,153.2,98.6z M149.7,97.8
		c0.8-0.6,3,0.7,2.2,1.5C151,100.2,148.9,98.4,149.7,97.8z M146.5,96.9c0.9-0.5,3.1,1,2.3,1.8C147.8,99.5,145.7,97.3,146.5,96.9z
		 M143.5,96.3c0.8-1,2.4,0.7,1.7,1.5C144.5,98.6,142.9,97.1,143.5,96.3z M141.1,95.3c0.1-0.3,2.3,0.3,1.4,1.3
		C141.7,97.7,140.8,96.1,141.1,95.3z M138.5,94.6c0.9-0.8,2.2,0.5,1.7,1.3C139.8,96.7,137.9,95.2,138.5,94.6z"/>
	<path class="st0" d="M141,216.8c-1.8,3.3-1.9,6.3-1.9,6.3s0.1-0.9,2-5.3c1.9-4.3,1.3-5.3,1.3-5.3S142.9,213.5,141,216.8z"/>
	<path class="st0" d="M162.5,218.6c4.9,1.5,12,1,11.2,1c-0.8,0-3.4-1.4-6-1.7C165.1,217.5,162.5,218.6,162.5,218.6z"/>
	<path class="st0" d="M150,213.4c0,0-1.6,3.1-3.1,5.5c-1.5,2.4-4.3,6.8-4.3,6.8s3.9-4.1,5.2-6.9C149.1,216.1,150,213.4,150,213.4z"
		/>
	<path class="st0" d="M145.9,229.4c3.8,0.8,12.5,1,12.5,1C148.7,227.8,145.9,229.4,145.9,229.4z"/>
	<path class="st0" d="M166.1,202.6c-5.6,7.3-4.7,11.9-4.7,11.9C162.8,213.2,166.1,202.6,166.1,202.6z"/>
	<path class="st0" d="M176.1,210.1l-4,0.2C172.2,210.3,174.4,211.4,176.1,210.1z"/>
	<path class="st0" d="M141.5,230.2c3.4,3.5,10.3,6,15.4,5.8c5.1-0.2,6.8-2.4,6.8-2.4l-4.6-0.8l4.1-1.3c-4.4-4-8.8-4.2-8.8-4.2
		c3.2-2,4.9-5.6,4.9-5.6s2.8,3.2,8.1,3.8c5.3,0.6,8.1-2,8.1-2c-0.7,0.1-2.6-1.2-2.6-1.2c4.3-1.5,6-3.6,6-3.6
		c-3.3,0.1-8.8-3.2-8.8-3.2c1.4-1.3,2.2-3.2,2.2-3.2c2.9,0,4.4-0.3,4.4-0.3c4.3-0.8,5-4,5-4l-9,0.5c0,0,0.7-1.4,2.9-2.6
		c2.2-1.2,2.1-4,2.1-4c-1,1.6-4.1,1.7-4.1,1.7l0.5-2.3c0,0,1.4-0.6,3-2c3.7-3.1,3.8-6.4,3.8-6.4c-1.4,1.5-4.9,1.7-4.9,1.7
		c2-1.5,2.9-5.3,2.9-5.3c3.8-1.6,3.9-3.8,3.9-5.2c0-1.4,1.2-3.2,1.2-3.2c-3.8,0.3-5.3,3.1-5.5,5.2c-0.2,2.1-0.7,2.4-0.7,2.4
		c0-1.1-2.1-3.1-2.1-3.1s-0.1,1.4-0.3,2.2c-0.2,0.7-1.8,3.2-1.8,3.2c-0.2,0.1-1.5-3.5-1.5-3.5c-0.4,2.5-3,4.1-3.2,6.5
		c-0.2,2.4,2.4,6.2,2.4,6.2l-1.3,0.9l-0.6-2.6l-1.3,2l-0.7-2.8l-2.4,2.8l-0.4-3.7c-0.8,1.2-7.2,6.2-7.5,11.1
		c-0.3,4.9,1.6,9.7,1.6,9.7l-5.6,3.6c0,0,0.9-2.8,2.1-5.1c1.2-2.3,0-4.7,0-4.7c-0.7,1-3.5,3.6-3.5,3.6c1.4-3.8,0.4-7.4,0.4-7.4
		c-1.2,1.1-7.4,8.2-7.4,8.2c1.1-6-2.1-7.5-2.1-7.5s-3.9,5.9-5.3,10.2c-1.4,4.4,2.6,8.8,2.6,8.8l-2.7,1.7c0.7,0.8,1.4,1.5,2.1,2.3
		L141.5,230.2z M182.9,181.9c-0.9,1.3,0,1.9-0.6,3.9c-0.6,2-3.3,3-3.3,3C178.5,182.6,182.9,181.9,182.9,181.9z M161.4,233.8
		c0,0-8.1,3.7-18.2-3.4C143.2,230.4,148.3,233,161.4,233.8z M161.4,231.1c0,0-4.9,1.8-10.2,0.9c-5.3-0.9-8-2.8-8-2.8s4.1-1.9,9-1.4
		C157.1,228.3,161.4,231.1,161.4,231.1z M150,227.1c0,0,5.8-4,7.9-5.3C157.9,221.8,157,226.5,150,227.1z M161.8,221.3
		c0,0,6.7,2.4,10.2,2.1C172,223.4,167.5,225.3,161.8,221.3z M176.9,219.3c0,0-3.5,3.1-8.6,2.5c-5.1-0.6-7.8-3.2-7.8-3.2
		s1.3-2.4,6.7-1.8C172.5,217.4,175.1,219.1,176.9,219.3z M180.7,208.7c0,0-2.8,5-10,1.4C170.6,210.1,172.7,209.1,180.7,208.7z
		 M175.9,203.9c0,0,0.8-0.1,1-0.5c0.2-0.4-0.1,1.1-2,2.2c-0.8,0.4-1.6,1-2.8,1.6C172.2,207.1,173,204.5,175.9,203.9z M174.6,191
		c1.2-1.6,1.7-2.6,1.8-3.6c0,0,1.6,2.2,0.8,4.2c-0.8,2-2.6,3.7-2.6,3.7S173.4,192.6,174.6,191z M179.6,194.8c0,0-1.8,7.1-6.9,4.3
		C172.7,199,172.5,195.9,179.6,194.8z M171.2,198.6c0,0-2.3-3.3-1.1-5.5c1.2-2.2,2.1-4,2.1-4S175.3,193.8,171.2,198.6z M173.3,200.4
		c0.1,7-5,9.8-5,9.8C167.9,203.6,173.3,200.4,173.3,200.4z M169.3,200.4c0.8,2.8-0.9,3.8-0.9,3.8
		C167.3,201.9,169.3,200.4,169.3,200.4z M171,211.6c0,0,0,4.2-5.8,3.9C165.2,215.5,166.4,211.8,171,211.6z M167.1,199.7
		c0,0,2.7,10.2-6,16.5C161.1,216.2,157.6,209.9,167.1,199.7z M163.7,199.7c0,0-1.3,3.3-2.4,4.9c-1.1,1.6-2.5,6.8-2.5,6.8
		C158.8,205.1,163.7,199.7,163.7,199.7z M159.1,218.6l0.7,1c0,0-9,5.7-10.2,6.3c0,0,2-2.7,3.3-3.5
		C154.1,221.7,159.1,218.6,159.1,218.6z M146.3,226.7c0,0,3.3-3.3,5.1-5.4c0,0,1.1,0.6,0.6,1.2C151.5,223.1,148.3,225.4,146.3,226.7
		z M154.3,213.7c0,0,0.5,2-0.8,3.7c-1.3,1.7-1.5,2.6-3.5,3.7C150,221.1,152.9,216.9,154.3,213.7z M151.8,209.4c0,0-0.6,6.7-3.2,11.6
		c-2.3,4.2-4.1,6.3-7.5,6.9c0,0-1.4-3.8,3.1-9.4C148.6,212.9,151.8,209.4,151.8,209.4z M139.7,225.7c0,0-3.2-3.7-1-8.2
		c2.2-4.6,4.2-6.6,4.1-7.6c0,0,1.9,3.9,1.1,6.5C143.1,219.1,139.8,223,139.7,225.7z M140.3,228l0.9,1.8l-1.8,1l-1.2-1.4L140.3,228z"
		/>
	<path class="st0" d="M117.5,241.2l3.3,1.3l12.2-7.3l3.1-1.9c-1.1-0.5-2.4-1-3.8-1.3L117.5,241.2z M120.9,241.8l-1.9-0.9l2.5-1.5
		l1.3,1.1L120.9,241.8z M134.6,233.6l-10.9,6.4l-1.5-1l10.4-6.2C133.9,232.7,134.6,233.6,134.6,233.6z"/>
	<path class="st0" d="M171.2,196.8c1.2-2.1,0.8-5.5,0.8-5.5C170.1,193.3,171.2,196.8,171.2,196.8z"/>
	<path class="st0" d="M171.8,203.4c0,0-1.7,3-2.3,3.5C169.5,206.9,171.6,206.6,171.8,203.4z"/>
	<path class="st0" d="M181.6,183.7c-0.9,0.9-1.4,3.3-1.4,3.3C181.8,185.9,181.6,183.7,181.6,183.7z"/>
	<path class="st0" d="M176,190.1c-0.7,1.5-0.8,3.7-0.8,3.7C176.5,192.5,176,190.1,176,190.1z"/>
	<path class="st0" d="M178,195.9c-2,0.2-4,2.4-4,2.4C176.7,198,178,195.9,178,195.9z"/>
	<path class="st0" d="M110.3,207.4h-1.4c0,0,5,3.2,6.3,4.4C115.2,211.8,112.2,208.3,110.3,207.4z"/>
	<path class="st0" d="M116.6,213.2c2.7,1.7,17.5,15.2,17.5,15.2c-1.9-2.4-15.6-15.2-15.6-15.2H116.6z"/>
	<path class="st0" d="M145.4,241.2c-9.1-14.8-21.7-8.3-21.7-8.3c-7.5,2-15.7,9.1-15.7,9.1c5.8-14,20.3-12.2,20.3-12.2
		c-14.1-4.1-20.3,6.1-20.3,6.1c5-13.2,21.3-7.7,21.3-7.7c-17.5-7.4-25.1,8.2-25.1,8.2c-0.1-4,3.8-8.2,3.8-8.2
		c9.6-7.3,21.3-1.9,21.3-1.9c-8.5-4.5-11.9-1.9-19-1.5c-7.1,0.5-14.1-2.3-14.1-2.3c10.4-3.9,25.8,0,25.8,0s-8.8-2.2-15.7-3.5
		C99.5,217.7,86,216,86,216s-0.5-0.8,9.4-0.7c9.8,0.1,23.7,4.5,23.7,4.5c-5-3.6-20.6-5.6-27.7-6.5c-7.1-0.9-8.7-3.7-8.7-3.7
		c6.4,2.2,19.1,2.9,19.1,2.9c-0.9-1.4-13.5-4.5-13.5-4.5c10.7-0.1,22.7,2.9,22.7,2.9s-2.3-1.4-12.6-4.5c-10.3-3.2-13.1-6.2-13.1-6.2
		c4.7,1.7,14.2,4.8,14.2,4.8c-3-1.7-15.3-9.7-15.3-9.7c2.7,1.2,9.1,3.6,9.4,3.1c0.3-0.6-0.9-2.1-0.9-2.1
		c8.6,3.7,18.2,10.7,27.6,17.5c9,6.6,25.9,25.9,27.4,27.6c-2.8-3.6-5.6-6.9-8.2-9.9l-0.2,0.1l-2-2.4l0.1-0.1
		c-12.1-13.4-22.4-21.1-29.9-26c-3.7-2.4-17.2-9.7-17.2-9.7s2,1.7,1.3,2.6c-0.7,0.9-11.2-3.1-11.2-3.1l8.1,6.9l-5.3-0.6
		c4.4,5.1,15.7,8.4,15.7,8.4c-6.9-0.7-13.5-0.6-13.5-0.6l5.6,3.2l-10.6-1.7c1.6,4.4,9.4,5.4,9.4,5.4l-6.6,1.9c0,0,3.1,1.2,11.3,1.8
		c8.3,0.6,10.1,2,10.1,2c-3.9,0.6-10.7,3-10.7,3c3.3,2.4,16.1,3.2,16.1,3.2c-8.2,5.3-6.8,13.2-6.8,13.2c2.6-3.9,5-5.5,5-5.5
		c-1.8,2.2-1.5,5.1-1.5,5.1c9.5-9.2,9.8-7.7,9.8-7.7c-8.8,5.6-9.8,13.2-9.8,13.2s7.2-5,13.7-8.7c6.5-3.7,11.5-3.3,11.5-3.3
		c0.2,0,0.3,0.1,0.5,0.1l0.3-0.2c0,0,2.1,0.4,3.8,1.3l-0.4,0.2c6.5,3,8.9,8.6,8.9,8.6l3.5,0.5c-0.3-0.3-0.5-0.7-0.8-1L145.4,241.2z"
		/>
	<path class="st0" d="M147.8,241.5c0,0,0-0.1-0.1-0.1C147.7,241.4,147.7,241.5,147.8,241.5L147.8,241.5z"/>
	<path class="st0" d="M63.6,199.7c-1.3,0-2.7,0-4,0.1c-1.6,0.1-3.1,0.4-3.8,0.7c-0.2,0.1-0.3,0.2-0.4,0.3c0,0,0,0.1,0,0.1
		c0,0.7,1.5,1,3.5,1.9c0.8,0.3,1.6,0.7,2.4,1.1c1.1,0.5,2.1,1.1,2.5,1.2L63.6,199.7z"/>
	<polygon class="st0" points="63.6,199.7 63.6,199.7 63.6,199.7 	"/>
	<path class="st0" d="M63.8,199.7L63.8,199.7c0,0-0.1,0-0.1,0C63.7,199.7,63.7,199.7,63.8,199.7z"/>
	<path class="st0" d="M66.4,199.8c-0.1,0-0.3,0-0.4,0l0.2,5.8c0.1,0,0.3,0,0.4,0h0L66.4,199.8z"/>
	<path class="st0" d="M67.8,205.6c0.2,0,0.3,0,0.5,0l0-5.8c-0.2,0-0.4,0-0.6,0L67.8,205.6z"/>
	<path class="st0" d="M64.4,199.7c-0.3,0-0.5,0-0.6,0l0.2,5.4c0.1,0.1,0.3,0.1,0.4,0.2c0.1,0,0.2,0,0.3,0.1L64.4,199.7z"/>
	<path class="st0" d="M64.9,205.4c0.3,0.1,0.5,0.1,0.7,0.2c0.2,0,0.3,0,0.5,0L64.9,205.4z"/>
	<path class="st0" d="M63.8,205L63.8,205C63.8,205,63.8,205,63.8,205C63.8,205,63.8,205,63.8,205z"/>
	<path class="st0" d="M68.8,205.6c0.9,0,1.6,0.1,1.7,0.1l0-1.7v-1.2l0,0l0-2.9c-0.2,0-0.4,0-0.8,0v5.8H68.8z"/>
	<path class="st0" d="M64.6,205.3L64.6,205.3c0,0,0.1,0,0.1,0l0.2,0C64.8,205.4,64.7,205.3,64.6,205.3z"/>
	<path class="st0" d="M64.4,199.7c0.4,0,0.9,0,1.5,0.1v0c-0.3,0-0.6,0-0.9,0L64.4,199.7L64.4,199.7z"/>
	<path class="st0" d="M67.8,199.8l-1.4,0v0C66.8,199.8,67.3,199.8,67.8,199.8L67.8,199.8z"/>
	<path class="st0" d="M46,170.4l-4.4,2.2c-0.5,0.2-0.8,0.3-1,0.4c-0.2,0-0.3,0-0.4-0.1c0,0,0,0,0-0.1c0,0,0,0-0.1-0.1
		c0-0.1-0.1-0.1-0.1-0.1c-0.1,0-0.2,0-0.3,0.1l-0.2,0.1l1,2l0.2,0.5l0.2-0.1c0.1-0.1,0.2-0.1,0.2-0.2c0-0.1,0-0.1,0-0.2
		c0,0,0,0,0-0.1c0,0,0-0.1,0-0.1c0-0.1,0.1-0.2,0.2-0.4c0.1-0.2,0.4-0.3,0.9-0.6l4.3-2.1c0.1-0.1,0.3-0.1,0.5-0.2
		c0.2-0.1,0.5-0.1,0.7-0.2c0.4-0.1,0.8,0,1.2,0.1c0.4,0.1,0.8,0.5,1.1,1c0.3,0.6,0.3,1.2,0,1.7c-0.3,0.5-0.7,0.9-1.4,1.3l-5.2,2.6
		c-0.3,0.1-0.5,0.2-0.6,0.2c-0.1,0-0.2-0.1-0.2-0.2c0,0,0,0,0,0c0,0,0,0,0,0c0-0.1-0.1-0.1-0.1-0.1c0,0-0.1,0-0.3,0l-0.2,0.1
		l1.2,2.5l0.2,0.5l0.2-0.1c0.1-0.1,0.2-0.1,0.2-0.2c0-0.1,0-0.1,0-0.2c0,0,0,0,0,0c0,0,0,0,0,0c0-0.1,0-0.2,0-0.3
		c0-0.1,0.2-0.2,0.5-0.4l5.1-2.5c1-0.5,1.6-1.1,1.9-1.9c0.2-0.8,0.1-1.7-0.3-2.6l-0.2-0.5c-0.5-0.9-1.1-1.5-1.9-1.8
		C48,169.8,47.1,169.9,46,170.4z"/>
	<path class="st0" d="M39.6,171.6c0-0.1,0-0.1,0-0.2c0,0,0,0,0,0c0,0,0,0,0,0c0-0.1,0-0.2,0-0.3c0.1-0.1,0.2-0.2,0.5-0.3l6.4-2.4
		c0.5-0.2,0.8-0.2,1-0.2c0.2,0,0.3,0.1,0.4,0.2c0,0,0,0,0,0.1c0,0,0,0,0,0.1c0,0.1,0.1,0.1,0.2,0.1c0.1,0,0.2,0,0.3,0l0.2-0.1
		l-0.9-2.3l-0.2-0.5l-0.2,0.1c-0.1,0.1-0.2,0.1-0.3,0.2c0,0.1,0,0.1,0,0.2c0,0,0,0.1,0,0.1c0,0,0,0.1,0,0.1c0,0.1-0.1,0.3-0.2,0.4
		c-0.1,0.1-0.4,0.3-0.9,0.5l-5.7,2.1l5.9-7.4l-0.2-0.6l-0.2-0.5l-7.6,2.8c-0.5,0.2-0.8,0.3-1,0.2c-0.2,0-0.3-0.1-0.4-0.2
		c0,0,0,0,0-0.1c0,0,0,0,0,0c0-0.1-0.1-0.1-0.2-0.2c-0.1,0-0.2,0-0.3,0l-0.2,0.1l0.8,2.2l0.2,0.5l0.3-0.1c0.2-0.1,0.2-0.1,0.3-0.2
		c0-0.1,0-0.1,0-0.2c0,0,0,0,0-0.1c0,0,0,0,0-0.1c0-0.1,0.1-0.2,0.2-0.4c0.1-0.1,0.4-0.3,0.9-0.5l4-1.5l-4.6,5.7l0.9,2.3l0.2,0.5
		l0.3-0.1C39.5,171.7,39.6,171.7,39.6,171.6z"/>
	<path class="st0" d="M36.3,162.5c0-0.1,0-0.1,0-0.2c0,0,0,0,0,0c0,0,0,0,0,0c0-0.1,0-0.2,0.1-0.3c0.1-0.1,0.2-0.2,0.5-0.3l7.3-2
		c0.3-0.1,0.5-0.1,0.6,0c0.1,0,0.2,0.1,0.2,0.2c0,0,0,0,0,0c0,0,0,0,0,0c0,0.1,0.1,0.1,0.1,0.2c0,0,0.1,0,0.2,0l0.3-0.1l-0.7-2.7
		l-0.1-0.5l-0.2,0.1c-0.1,0-0.2,0.1-0.2,0.1c0,0.1,0,0.1,0,0.2c0,0,0,0,0,0c0,0,0,0,0,0c0,0.1,0,0.2-0.1,0.3
		c-0.1,0.1-0.2,0.2-0.5,0.3l-7.3,2c-0.3,0.1-0.5,0.1-0.6,0c-0.1-0.1-0.2-0.1-0.2-0.2c0,0,0,0,0,0c0,0,0,0,0,0c0-0.1-0.1-0.1-0.1-0.2
		c0,0-0.1,0-0.3,0l-0.3,0.1l0.7,2.7l0.1,0.5l0.3-0.1C36.2,162.6,36.3,162.6,36.3,162.5z"/>
	<path class="st0" d="M33.9,152.3l0.3,0c0.1,0,0.2-0.1,0.2-0.1c0-0.1,0.1-0.1,0.1-0.2c0,0,0,0,0,0c0,0,0,0,0,0
		c0-0.1,0.1-0.2,0.1-0.2c0-0.1,0.1-0.1,0.3-0.1c0.1,0,0.1,0,0.2,0c0.1,0,0.1,0,0.2,0c0.1,0,0.1,0,0.2,0c0,0,0.1,0,0.2,0
		c0,0,0,0,0.1,0c0,0,0,0,0.1,0l5.8,1.3l-5.7,2.7l0,0c0,0,0,0,0,0c0,0,0,0,0,0c0,0-0.1,0-0.1,0c0,0-0.1,0-0.1,0c0,0-0.1,0-0.1,0
		c0,0-0.1,0-0.1,0c-0.1,0-0.2,0-0.3-0.1c0-0.1-0.1-0.1-0.1-0.2c0-0.1-0.1-0.1-0.1-0.2c0-0.1-0.1-0.1-0.3-0.1l-0.3,0l0.3,2.7l0.1,0.5
		l0.3,0c0.1,0,0.2,0,0.2-0.1c0,0,0-0.1,0.1-0.2c0-0.1,0-0.1,0-0.2c0-0.1,0.1-0.1,0.1-0.2c0,0,0.1-0.1,0.2-0.1c0.1,0,0.1-0.1,0.2-0.1
		l8.6-4.1l-0.1-0.7l-0.1-0.5l-9-2c-0.5-0.1-0.8-0.2-0.9-0.4c-0.1-0.1-0.2-0.2-0.2-0.3c0,0,0-0.1-0.1-0.1c0,0-0.1,0-0.2,0l-0.3,0
		l0.3,2.2L33.9,152.3z"/>
	<path class="st0" d="M33.7,142.7c0,0.1,0.1,0.2,0.1,0.3c0,0.1,0,0.1,0,0.2c0,0.1,0,0.1,0,0.2l0,5.3l0.3,0c0.1,0,0.2,0,0.2-0.1
		c0-0.1,0-0.1,0.1-0.2c0,0,0,0,0,0c0,0,0,0,0,0c0-0.1,0.1-0.2,0.1-0.2c0.1-0.1,0.3-0.1,0.6-0.1l7.6,0.1c0.3,0,0.5,0,0.6,0.1
		c0.1,0.1,0.1,0.2,0.1,0.3c0,0,0,0,0,0c0,0,0,0,0,0c0,0.1,0,0.1,0.1,0.2c0,0.1,0.1,0.1,0.2,0.1l0.3,0l0.1-6.8l0-0.5l-2.7,0l0,0.2
		l0,0.5c0,0.2,0.1,0.3,0.2,0.4c0.1,0.1,0.3,0.1,0.5,0.1c0.1,0,0.1,0,0.2,0c0.1,0,0.1,0,0.2,0c0.3,0.1,0.5,0.2,0.7,0.4
		c0.2,0.2,0.3,0.6,0.3,1.3l0,1.7l-4.3,0l0-0.5c0-0.3,0.1-0.5,0.2-0.6c0.1-0.1,0.2-0.2,0.4-0.2c0,0,0,0,0,0c0,0,0,0,0,0
		c0.1,0,0.2-0.1,0.3-0.1c0.1-0.1,0.1-0.2,0.1-0.4l0-0.2l0-0.5l-2.6,0v0.2l0,0.5c0,0.2,0,0.3,0.1,0.3c0.1,0,0.2,0.1,0.3,0.1
		c0,0,0,0,0,0c0,0,0,0,0.1,0c0.1,0,0.2,0.1,0.3,0.2c0.1,0.1,0.1,0.3,0.1,0.7l0,0.5l-3.9,0l0-1.4c0-0.5,0.1-0.8,0.3-1
		c0.2-0.2,0.4-0.3,0.6-0.4c0,0,0.1,0,0.1,0c0.1,0,0.1,0,0.1,0c0.1,0,0.3-0.1,0.4-0.2c0.1-0.1,0.2-0.2,0.2-0.3l0-0.3l0-0.5l-2.5,0
		l0,0.5C33.6,142.6,33.7,142.6,33.7,142.7z"/>
	<path class="st0" d="M34.2,140.6c0-0.1,0.1-0.1,0.1-0.2c0,0,0,0,0,0c0,0,0,0,0,0c0-0.1,0.1-0.2,0.2-0.2c0.1-0.1,0.3-0.1,0.6-0.1
		l7.5,0.6c0.3,0,0.5,0.1,0.6,0.2c0.1,0.1,0.1,0.2,0.1,0.3c0,0,0,0,0,0.1c0,0,0,0,0,0c0,0.1,0,0.1,0,0.2c0,0.1,0.1,0.1,0.2,0.1l0.3,0
		l0.2-2.8l0-0.5l-0.2,0c-0.1,0-0.2,0-0.2,0.1c0,0-0.1,0.1-0.1,0.2c0,0,0,0,0,0c0,0,0,0,0,0c0,0.1-0.1,0.2-0.2,0.2
		c-0.1,0.1-0.3,0.1-0.6,0.1l-3.6-0.3c0-0.2,0.1-0.4,0.1-0.5c0.1-0.1,0.2-0.3,0.3-0.4c0.1-0.1,0.3-0.2,0.6-0.3
		c0.2-0.1,0.5-0.2,0.8-0.4l3.3-1.5l0.1-2l0,0l-0.6-0.2c0,0.1,0,0.1-0.1,0.2c-0.1,0.1-0.3,0.3-0.7,0.5l-2.8,1.3
		c-0.1,0-0.1,0.1-0.2,0.1c-0.1,0-0.1,0-0.1,0.1c-0.2,0.1-0.4,0.2-0.5,0.3c-0.1,0.1-0.2,0.3-0.3,0.6h0c0,0,0,0,0,0c0,0,0,0,0,0
		c0-0.7-0.2-1.3-0.5-1.9c-0.4-0.6-1-0.9-1.8-1c-0.7,0-1.2,0.1-1.6,0.4c-0.4,0.3-0.7,0.7-0.8,1.1c-0.1,0.2-0.1,0.4-0.2,0.6
		c0,0.2-0.1,0.4-0.1,0.5l-0.3,4.1l0,0.5l0.3,0C34.1,140.6,34.2,140.6,34.2,140.6z M34.6,136.9C34.6,136.9,34.6,136.9,34.6,136.9
		c0-0.1,0-0.1,0-0.1c0.1-0.4,0.3-0.7,0.6-1c0.3-0.3,0.8-0.4,1.4-0.4c0.8,0.1,1.3,0.3,1.5,0.7c0.3,0.4,0.4,0.9,0.4,1.4c0,0,0,0,0,0.1
		c0,0,0,0,0,0.1l-0.1,0.8l-4-0.3L34.6,136.9z"/>
	<path class="st0" d="M43.9,132.9c0,0,0.1,0,0.3,0l0.2,0l0,0.5l0.3,0.1l0.1-0.6l0.1-0.5c0,0,0,0,0,0c0,0,0,0,0,0c0,0,0,0-0.1-0.1
		c0,0,0,0-0.1-0.1c0-0.1,0.1-0.1,0.1-0.2c0-0.1,0.1-0.1,0.1-0.2c0.1-0.2,0.2-0.3,0.3-0.5c0.1-0.2,0.2-0.4,0.2-0.6l0.1-0.5
		c0.2-0.8,0.1-1.6-0.4-2.3c-0.5-0.7-1.2-1.2-2.1-1.4c-0.9-0.2-1.6-0.1-2.2,0.2c-0.5,0.4-1,0.8-1.4,1.3c-0.1,0.1-0.1,0.2-0.2,0.2
		c-0.1,0.1-0.1,0.2-0.2,0.2c-0.3,0.4-0.6,0.8-1,1.1c-0.3,0.3-0.8,0.4-1.3,0.2c-0.4-0.1-0.7-0.3-0.9-0.6c-0.2-0.3-0.3-0.6-0.3-1
		c0.1-0.3,0.3-0.6,0.6-0.7c0.2-0.1,0.5-0.2,0.7-0.2c0.1,0,0.2,0,0.3,0c0.1,0,0.2,0,0.3,0c0.1,0,0.3,0,0.4-0.1c0.1,0,0.1-0.1,0.2-0.2
		l0.1-0.4l0.1-0.5l-2.2-0.5l-0.1,0.5l-0.1,0.5c0,0,0,0,0,0c0,0,0,0,0,0c0,0-0.1,0.1-0.1,0.1c0,0-0.1,0.1-0.1,0.1
		c-0.1,0.1-0.2,0.2-0.3,0.4c-0.1,0.2-0.2,0.4-0.3,0.6l-0.1,0.5c-0.2,0.7-0.1,1.3,0.3,1.9c0.4,0.6,0.9,1,1.7,1.2
		c0.9,0.2,1.6,0.1,2.1-0.2c0.5-0.4,0.9-0.8,1.3-1.3c0,0,0.1-0.1,0.1-0.1c0,0,0.1-0.1,0.1-0.1c0.4-0.5,0.7-0.9,1.1-1.2
		c0.4-0.3,0.9-0.4,1.5-0.3c0.5,0.1,0.9,0.4,1.2,0.8c0.3,0.4,0.4,0.9,0.3,1.3c-0.2,0.4-0.4,0.7-0.6,0.9c-0.3,0.2-0.5,0.3-0.8,0.4
		c-0.2,0-0.3,0.1-0.5,0.1c-0.2,0-0.3,0-0.4,0.1c-0.1,0-0.2,0-0.2,0.1c-0.1,0-0.1,0.1-0.1,0.1l-0.1,0.4l-0.1,0.5l1.7,0.4
		c0-0.1,0.1-0.2,0.1-0.2C43.9,133,43.9,132.9,43.9,132.9z"/>
	<path class="st0" d="M37,124.2c0,0,0.1-0.1,0.1-0.2c0,0,0,0,0,0c0,0,0,0,0,0c0-0.1,0.1-0.1,0.2-0.2c0.1,0,0.3,0,0.6,0l7.3,2.1
		c0.3,0.1,0.5,0.2,0.5,0.3c0.1,0.1,0.1,0.2,0.1,0.3c0,0,0,0,0,0c0,0,0,0,0,0c0,0.1,0,0.1,0,0.2c0,0.1,0.1,0.1,0.2,0.1l0.3,0.1
		l0.8-2.7l0.1-0.5l-0.2-0.1c-0.1,0-0.2,0-0.3,0c0,0-0.1,0.1-0.1,0.2c0,0,0,0,0,0c0,0,0,0,0,0c0,0.1-0.1,0.1-0.2,0.2
		c-0.1,0-0.3,0-0.6-0.1l-7.2-2.1c-0.3-0.1-0.5-0.2-0.5-0.3c-0.1-0.1-0.1-0.2-0.1-0.3c0,0,0,0,0,0c0,0,0,0,0,0c0-0.1,0-0.1,0-0.2
		c0-0.1-0.1-0.1-0.2-0.1l-0.2-0.1l-0.8,2.7l-0.1,0.5l0.3,0.1C36.8,124.3,36.9,124.3,37,124.2z"/>
	<path class="st0" d="M38,120.5c0,0,0.1-0.1,0.1-0.2c0,0,0,0,0,0c0,0,0,0,0,0c0-0.1,0.1-0.2,0.2-0.2c0.1,0,0.3,0,0.6,0.1l7.2,2.3
		c0.3,0.1,0.5,0.2,0.5,0.3c0.1,0.1,0.1,0.2,0.1,0.3c0,0,0,0,0,0.1c0,0,0,0,0,0c0,0.1,0,0.1,0,0.2c0,0.1,0.1,0.1,0.2,0.1l0.2,0.1
		l1.2-3.6l0.2-0.5c0,0,0-0.1,0-0.1c0,0,0,0,0-0.1c0.3-1,0.1-2-0.5-3.1c-0.6-1.1-1.7-1.9-3.2-2.4c-1.4-0.4-2.6-0.4-3.7,0
		c-1.1,0.4-1.9,1.3-2.3,2.5l-1.2,3.6l-0.2,0.5l0.3,0.1C37.9,120.6,37.9,120.6,38,120.5z M39.1,117.2c0.3-1.1,1-1.7,2-1.8
		c1-0.1,2-0.1,3.1,0.3c1.4,0.4,2.4,1,3,1.8c0.6,0.7,0.7,1.6,0.4,2.7l-0.2,0.7l-8.5-2.7L39.1,117.2z"/>
	<path class="st0" d="M41.8,107.9C41.8,107.9,41.8,108,41.8,107.9c0,0.1,0,0.1,0,0.2c0,0.1,0,0.1,0,0.1c0,0,0,0.1,0,0.1
		c0,0.1,0,0.1,0,0.2c0,0,0,0.1,0,0.1c0,0,0,0.1,0,0.1c0,0,0,0.1,0.1,0.1c0,0,0,0,0.1,0.1c0,0,0.1,0,0.1,0c0.1,0,0.1,0,0.2,0
		c0,0,0,0,0.1,0c0,0,0,0,0,0c0.1,0,0.1,0,0.1,0c0,0,0.1,0,0.1,0l0.5,0l5.4,5.1c0.4,0.4,0.6,0.7,0.6,0.8c0,0.2,0.1,0.3,0,0.5
		c0,0.1,0,0.1,0,0.2c0,0.1,0.1,0.1,0.2,0.1l0.2,0.1l0.9-2.1l0.2-0.5l-0.2-0.1c-0.1,0-0.2-0.1-0.3,0c-0.1,0-0.1,0.1-0.2,0.2
		c0,0,0,0,0,0c-0.1,0.1-0.1,0.1-0.2,0.2c-0.1,0-0.2,0-0.3,0c-0.1,0-0.1-0.1-0.2-0.1c-0.1,0-0.1-0.1-0.2-0.1c0,0,0,0-0.1-0.1
		c0,0,0,0,0,0c0,0-0.1-0.1-0.1-0.1c0,0-0.1-0.1-0.1-0.1l-0.7-0.6l1.2-2.9l1.2,0l0,0c0,0,0.1,0,0.1,0c0,0,0.1,0,0.1,0
		c0,0,0.1,0,0.1,0c0,0,0.1,0,0.1,0c0.1,0,0.1,0,0.2,0c0.1,0,0.1,0,0.2,0c0.1,0.1,0.2,0.1,0.2,0.2c0,0.1,0,0.2,0,0.3
		c0,0.1,0,0.2,0,0.2c0,0.1,0.1,0.1,0.2,0.2l0.2,0.1l1.1-2.7l0.2-0.5l-0.2-0.1c-0.1,0-0.2-0.1-0.3,0c0,0-0.1,0-0.1,0.1
		c0,0.1-0.1,0.2-0.2,0.2c-0.1,0.1-0.4,0.1-0.8,0.1l-9.4-0.4c0,0,0,0,0,0c0,0-0.1,0-0.1,0c0,0-0.1,0-0.1,0c0,0-0.1,0-0.1,0l-0.2,0.5
		c0,0,0,0,0,0.1C41.8,107.8,41.8,107.9,41.8,107.9z M48.6,109.2l-1,2.4l-2.7-2.6L48.6,109.2z"/>
	<path class="st0" d="M44.3,104.1c0,0,0.1-0.1,0.1-0.2c0,0,0,0,0,0c0,0,0,0,0,0c0-0.1,0.1-0.2,0.2-0.2c0.1-0.1,0.3,0,0.6,0l7.2,2.1
		c0.3,0.1,0.5,0.2,0.5,0.3c0.1,0.1,0.1,0.2,0.1,0.3c0,0,0,0,0,0c0,0,0,0,0,0c0,0.1,0,0.1,0,0.2c0,0.1,0.1,0.1,0.2,0.1l0.2,0.1
		l1.1-3.7l0.1-0.5c0,0,0,0,0-0.1c0,0,0,0,0-0.1c0.3-1,0.1-2-0.6-3.1c-0.6-1.1-1.7-1.8-3.3-2.3c-1.4-0.4-2.6-0.4-3.7,0.1
		c-1.1,0.5-1.8,1.3-2.2,2.6l-1.1,3.6l-0.1,0.5l0.3,0.1C44.2,104.2,44.3,104.2,44.3,104.1z M45.4,100.8c0.3-1.1,1-1.7,2-1.9
		c1-0.2,2-0.1,3.1,0.2c1.4,0.4,2.4,1,3,1.7c0.6,0.7,0.8,1.6,0.4,2.7l-0.2,0.7l-8.6-2.5L45.4,100.8z"/>
	<path class="st0" d="M47.6,88.6c0.1,0,0.1-0.1,0.2-0.1c0,0,0,0,0,0c0,0,0,0,0,0c0.1-0.1,0.2-0.1,0.3-0.1c0.1,0,0.3,0.1,0.5,0.3
		l5.3,4.3c0.4,0.3,0.6,0.6,0.7,0.7c0.1,0.2,0.1,0.3,0.1,0.4c0,0,0,0.1,0,0.1c0,0,0,0,0,0.1c0,0.1,0,0.1-0.1,0.2
		c0,0.1,0.1,0.1,0.2,0.2l0.2,0.2l1.5-1.9l0.3-0.4l-0.2-0.2c-0.1-0.1-0.2-0.1-0.3-0.1c-0.1,0-0.1,0.1-0.2,0.1c0,0,0,0-0.1,0
		c0,0,0,0-0.1,0.1c-0.1,0.1-0.3,0.1-0.4,0c-0.2,0-0.5-0.2-0.9-0.5l-4.2-3.3l7.3,2.7l0.4-0.6l0.3-0.4l-4.3-6.5l4.8,3.8l0,0
		c0.2,0.2,0.4,0.3,0.4,0.4c0,0.1,0,0.2,0,0.3c0,0,0,0,0,0c0,0,0,0,0,0c0,0.1-0.1,0.1-0.1,0.2c0,0.1,0,0.1,0.1,0.2l0.2,0.2l1.8-2.2
		l0.3-0.4l-0.2-0.2c-0.1-0.1-0.2-0.1-0.2-0.1c-0.1,0-0.1,0.1-0.2,0.1c0,0,0,0,0,0c0,0,0,0,0,0c-0.1,0.1-0.2,0.1-0.3,0.1
		c-0.1,0-0.3-0.1-0.5-0.3l-5.9-4.7c-0.2-0.2-0.4-0.3-0.4-0.5c0-0.1,0-0.2,0-0.3c0,0,0,0,0,0c0,0,0,0,0,0c0-0.1,0.1-0.1,0.1-0.2
		c0-0.1,0-0.1-0.1-0.2L53.8,80l-1.5,1.9l-0.3,0.4l4,6.2l-6.9-2.5l-1.6,2l-0.3,0.4l0.2,0.2C47.5,88.6,47.5,88.6,47.6,88.6z"/>
	<path class="st0" d="M56.6,79.5c0.1,0,0.1,0,0.2-0.1c0,0,0,0,0,0c0,0,0,0,0,0c0.1,0,0.2-0.1,0.3,0c0.1,0,0.3,0.2,0.4,0.4l4.4,6.1
		c0.2,0.2,0.3,0.4,0.2,0.5c0,0.1,0,0.2-0.1,0.3c0,0,0,0,0,0c0,0,0,0,0,0c0,0-0.1,0.1-0.1,0.2c0,0.1,0,0.1,0.1,0.2l0.1,0.2l2.2-1.6
		l0.4-0.3l-0.1-0.2c-0.1-0.1-0.1-0.2-0.2-0.2c-0.1,0-0.1,0-0.2,0.1c0,0,0,0,0,0c0,0,0,0,0,0c-0.1,0-0.2,0.1-0.3,0
		c-0.1,0-0.3-0.2-0.4-0.4l-4.4-6.1c-0.2-0.2-0.3-0.4-0.2-0.5c0-0.1,0-0.2,0.1-0.3c0,0,0,0,0,0c0,0,0,0,0,0c0,0,0.1-0.1,0.1-0.2
		c0-0.1,0-0.1-0.1-0.3l-0.1-0.2l-2.3,1.6l-0.4,0.3l0.2,0.2C56.5,79.4,56.6,79.5,56.6,79.5z"/>
	<path class="st0" d="M61.9,80.5c0.1,0.2,0.2,0.4,0.4,0.5c0.8,1.1,1.8,1.8,3.1,2.3c1.2,0.5,2.4,0.3,3.4-0.5l0.4-0.3
		c0.6-0.4,0.9-0.9,1.1-1.5c0.2-0.6,0.2-1.2,0.2-2l-0.6,0l-0.4,0.3c0,0,0,0,0,0.1c0,0,0,0,0,0.1c0,0,0,0.1,0,0.1c0,0,0,0.1,0,0.1
		c0,0.4,0,0.8-0.1,1.2c-0.1,0.4-0.3,0.7-0.6,1.1c-0.7,0.4-1.3,0.5-2,0.2c-0.7-0.3-1.3-0.7-1.9-1.2c-0.2-0.2-0.3-0.3-0.5-0.5
		c-0.2-0.2-0.3-0.3-0.4-0.5c-0.2-0.2-0.3-0.4-0.5-0.6c-0.2-0.2-0.3-0.5-0.4-0.7c-0.3-0.6-0.6-1.3-0.7-2c-0.1-0.7,0.1-1.3,0.6-1.8
		c0.4-0.2,0.8-0.3,1.1-0.3c0.3,0.1,0.6,0.2,0.9,0.4c0.1,0.1,0.2,0.1,0.3,0.2c0.1,0.1,0.2,0.1,0.3,0.2c0.2,0.1,0.3,0.2,0.4,0.2
		c0.1,0,0.2,0,0.3-0.1l0.2-0.2l0.4-0.3l-1.6-2.1L64.9,73l-0.4,0.3c0,0,0,0,0,0c0,0,0,0,0,0c-0.1,0-0.1,0-0.2,0c-0.1,0-0.2,0-0.3,0
		c-0.2,0-0.4,0.1-0.7,0.2c-0.2,0.1-0.5,0.2-0.8,0.4l-0.4,0.3c-0.9,0.7-1.3,1.5-1.3,2.6c0,1,0.2,2,0.7,2.9
		C61.7,80.1,61.8,80.3,61.9,80.5z"/>
	<path class="st0" d="M67.3,71.2c0.1,0,0.1,0,0.2,0c0,0,0,0,0,0c0,0,0,0,0,0c0.1,0,0.2,0,0.3,0c0.1,0,0.2,0.2,0.3,0.5l3.2,6.8
		c0.1,0.3,0.2,0.5,0.1,0.6c0,0.1-0.1,0.2-0.2,0.2c0,0,0,0,0,0c0,0,0,0,0,0c-0.1,0-0.1,0.1-0.1,0.1c0,0.1,0,0.1,0,0.2l0.1,0.2
		l2.5-1.2l0.5-0.2l-0.1-0.2c-0.1-0.1-0.1-0.2-0.2-0.2c-0.1,0-0.1,0-0.2,0c0,0,0,0,0,0c0,0,0,0-0.1,0c-0.1,0-0.2,0-0.3,0
		c-0.1,0-0.2-0.2-0.4-0.5l-1.5-3.2l3.3-1.5l1.5,3.2c0.1,0.3,0.2,0.5,0.1,0.6c0,0.1-0.1,0.2-0.2,0.2c0,0,0,0,0,0c0,0,0,0,0,0
		c-0.1,0-0.1,0.1-0.1,0.1c0,0.1,0,0.1,0,0.2l0.1,0.2l2.5-1.2l0.5-0.2L79.2,76c-0.1-0.1-0.1-0.2-0.2-0.2c-0.1,0-0.1,0-0.2,0
		c0,0,0,0,0,0c0,0,0,0,0,0c-0.1,0-0.2,0-0.3,0c-0.1,0-0.2-0.2-0.4-0.5l-3.2-6.8c-0.1-0.3-0.2-0.5-0.1-0.6c0-0.1,0.1-0.2,0.2-0.2
		c0,0,0,0,0,0c0,0,0,0,0,0c0.1,0,0.1-0.1,0.1-0.1c0-0.1,0-0.1,0-0.3L75,67.1l-2.5,1.2L72,68.5l0.1,0.3c0.1,0.1,0.1,0.2,0.2,0.2
		c0.1,0,0.1,0,0.2,0c0,0,0,0,0,0c0,0,0,0,0,0c0.1,0,0.2,0,0.3,0c0.1,0,0.2,0.2,0.3,0.5l1.4,2.9l-3.3,1.5l-1.4-2.9
		c-0.1-0.3-0.2-0.5-0.1-0.6c0-0.1,0.1-0.2,0.2-0.2c0,0,0,0,0,0c0,0,0,0,0,0c0.1,0,0.1-0.1,0.1-0.1c0,0,0-0.1,0-0.3L70,69.4l-2.5,1.2
		L67,70.8l0.1,0.3C67.2,71.2,67.3,71.2,67.3,71.2z"/>
	<path class="st0" d="M80.5,75.1c1,0.8,2.2,1,3.4,0.6l0.5-0.2c1.3-0.4,2.1-1.2,2.5-2.5c0.4-1.3,0.4-2.6,0-3.9
		c-0.4-1.3-1.1-2.4-2.2-3.2c-1-0.8-2.2-1-3.4-0.6l-0.5,0.2c-1.3,0.4-2.1,1.2-2.5,2.5c-0.4,1.3-0.4,2.6,0,3.9
		C78.7,73.3,79.4,74.3,80.5,75.1z M79.9,67.7c0.1-0.8,0.6-1.3,1.4-1.6c0.8-0.2,1.4,0,1.9,0.5c0.5,0.5,0.9,1.1,1.3,1.8
		c0.1,0.3,0.2,0.5,0.3,0.8c0.1,0.3,0.2,0.5,0.2,0.7c0.1,0.2,0.1,0.4,0.2,0.6c0.1,0.2,0.1,0.4,0.1,0.6c0.2,0.8,0.2,1.6,0,2.4
		c-0.1,0.8-0.6,1.3-1.4,1.6l0,0c-0.8,0.2-1.4,0-1.9-0.5c-0.5-0.5-1-1.1-1.3-1.8c-0.1-0.3-0.2-0.5-0.3-0.8c-0.1-0.3-0.2-0.5-0.3-0.7
		c-0.1-0.2-0.1-0.4-0.2-0.6c0-0.2-0.1-0.4-0.2-0.6C79.8,69.2,79.8,68.4,79.9,67.7z"/>
	<path class="st0" d="M88,63.6c0,0,0.1,0.1,0.1,0.1c0,0,0,0,0,0c0,0,0,0,0,0c0,0,0.1,0.1,0.1,0.1c0,0,0,0,0.1,0l0.3,0.3l1,7.3
		c0.1,0.5,0.1,0.9,0,1.1c-0.1,0.2-0.2,0.3-0.2,0.4c0,0-0.1,0.1-0.1,0.1c0,0.1,0,0.1,0,0.2l0.1,0.2l2.1-1.1l0.5-0.2L91.8,72
		c-0.1-0.1-0.1-0.2-0.2-0.2c-0.1,0-0.2,0-0.2,0c0,0,0,0,0,0c-0.1,0-0.2,0-0.3,0c-0.1,0-0.2-0.1-0.2-0.2c0-0.1,0-0.1-0.1-0.2
		c0-0.1,0-0.1,0-0.2c0,0,0-0.1,0-0.1c0,0,0,0,0-0.1c0-0.1,0-0.1,0-0.2c0,0,0-0.1,0-0.1l-0.2-1l2.8-1.4l0.9,0.8l0,0c0,0,0,0,0.1,0.1
		c0,0,0.1,0,0.1,0.1c0,0,0.1,0.1,0.1,0.1c0,0,0.1,0.1,0.1,0.1c0,0,0.1,0.1,0.1,0.1c0,0.1,0.1,0.1,0.1,0.1c0.1,0.1,0.1,0.2,0,0.3
		c0,0.1-0.1,0.1-0.2,0.2c-0.1,0.1-0.1,0.1-0.2,0.2c0,0.1,0,0.2,0,0.3l0.1,0.2l2.6-1.4l0.5-0.2l-0.1-0.2c-0.1-0.1-0.1-0.2-0.2-0.2
		c0,0-0.1,0-0.1,0c-0.1,0-0.2,0-0.3,0c-0.1,0-0.4-0.2-0.7-0.4l-7-6.2c0,0,0,0,0,0c0,0,0,0-0.1-0.1c0,0-0.1,0-0.1-0.1c0,0,0,0-0.1,0
		l-0.5,0.3c0,0,0,0-0.1,0.1c0,0.1-0.1,0.1-0.1,0.1c0,0,0,0,0,0c0,0.1-0.1,0.1-0.1,0.2c0,0,0,0.1-0.1,0.1c0,0,0,0.1-0.1,0.1
		c0,0.1-0.1,0.1-0.1,0.2c0,0,0,0.1,0,0.1c0,0,0,0.1,0,0.1c0,0,0,0.1,0,0.1c0,0,0,0.1,0,0.1C87.9,63.5,87.9,63.5,88,63.6z M92.7,67.9
		l-2.3,1.2l-0.5-3.7L92.7,67.9z"/>
	<path class="st0" d="M94.8,64.2c0.1,0.2,0.2,0.4,0.3,0.6c0.7,1.1,1.7,2,2.8,2.5c1.2,0.6,2.3,0.5,3.5-0.2l0.4-0.3
		c0.6-0.4,1-0.9,1.2-1.4c0.2-0.5,0.3-1.2,0.3-1.9l-0.6-0.1l-0.4,0.3c0,0,0,0,0,0.1c0,0,0,0,0,0.1c0,0,0,0.1,0,0.1c0,0,0,0.1,0,0.1
		c0,0.4-0.1,0.8-0.2,1.2c-0.1,0.4-0.3,0.7-0.7,1c-0.7,0.4-1.4,0.4-2,0c-0.7-0.3-1.3-0.8-1.8-1.4c-0.2-0.2-0.3-0.4-0.5-0.5
		c-0.1-0.2-0.3-0.4-0.4-0.6c-0.1-0.2-0.3-0.4-0.4-0.7c-0.1-0.2-0.3-0.5-0.4-0.8c-0.3-0.7-0.5-1.3-0.5-2.1c-0.1-0.7,0.2-1.3,0.7-1.7
		c0.4-0.2,0.8-0.3,1.1-0.2c0.3,0.1,0.6,0.2,0.9,0.4c0.1,0.1,0.2,0.1,0.3,0.2c0.1,0.1,0.2,0.2,0.3,0.2c0.1,0.1,0.3,0.2,0.4,0.3
		c0.1,0.1,0.2,0.1,0.3,0l0.3-0.2l0.4-0.3l-1.4-2.2L98.4,57L98,57.3c0,0,0,0,0,0c0,0,0,0,0,0c-0.1,0-0.2,0-0.2,0c-0.1,0-0.2,0-0.3,0
		c-0.2,0-0.4,0.1-0.7,0.1c-0.2,0.1-0.5,0.2-0.8,0.4l-0.4,0.3c-0.9,0.6-1.4,1.4-1.5,2.4c-0.1,1,0.1,2,0.5,3
		C94.6,63.8,94.7,64,94.8,64.2z"/>
	<path class="st0" d="M102,54.9c0,0,0.1,0.1,0.1,0.1c0,0,0,0,0,0c0,0,0,0,0,0c0,0,0.1,0.1,0.1,0.1c0,0,0.1,0,0.1,0l0.4,0.3l1.7,7.2
		c0.1,0.5,0.2,0.9,0.1,1.1c-0.1,0.2-0.1,0.3-0.2,0.4c0,0.1-0.1,0.1-0.1,0.2c0,0,0,0.1,0.1,0.2l0.1,0.2l1.9-1.3l0.4-0.3l-0.1-0.2
		c-0.1-0.1-0.2-0.2-0.2-0.2c-0.1,0-0.2,0-0.2,0c0,0,0,0,0,0c-0.1,0-0.2,0-0.3,0c-0.1,0-0.2-0.1-0.3-0.2c0,0-0.1-0.1-0.1-0.2
		c0-0.1-0.1-0.1-0.1-0.2c0,0,0-0.1,0-0.1c0,0,0,0,0-0.1c0-0.1,0-0.1,0-0.2c0,0,0-0.1,0-0.1l-0.3-0.9l2.6-1.7l1,0.7l0,0
		c0,0,0,0,0.1,0.1c0,0,0.1,0,0.1,0.1c0,0,0.1,0.1,0.1,0.1c0,0,0.1,0.1,0.1,0.1c0,0,0.1,0.1,0.1,0.1c0,0,0.1,0.1,0.1,0.1
		c0.1,0.1,0.1,0.2,0.1,0.3c0,0.1-0.1,0.1-0.1,0.2c-0.1,0.1-0.1,0.1-0.1,0.2c0,0.1,0,0.2,0,0.3l0.1,0.2l2.4-1.6l0.4-0.3l0,0l-0.4,0.2
		l-0.1-0.2c-0.1-0.1-0.1-0.2-0.1-0.3c0,0,0,0,0,0c-0.1,0-0.1,0-0.2,0c-0.1,0-0.4-0.1-0.7-0.4l-7.6-5.4c0,0,0,0,0,0c0,0,0,0-0.1-0.1
		c0,0-0.1,0-0.1,0c0,0-0.1,0-0.1,0l-0.4,0.3c0,0,0,0-0.1,0.1c0,0.1-0.1,0.1-0.1,0.2c0,0,0,0,0,0c0,0.1,0,0.1-0.1,0.2
		c0,0.1,0,0.1,0,0.1c0,0,0,0.1,0,0.1c0,0.1,0,0.1-0.1,0.2c0,0,0,0.1,0,0.1c0,0,0,0.1,0,0.1c0,0,0,0.1,0,0.1
		C101.9,54.8,101.9,54.8,102,54.9C101.9,54.9,101.9,54.9,102,54.9z M107.2,58.7l-2.2,1.5l-0.9-3.7L107.2,58.7z"/>
	<path class="st0" d="M111.8,59.2c0,0,0.1,0.1,0.2,0.2l0.1,0.2l1.7-1l0.4-0.3l-0.1-0.2c-0.1-0.1-0.2-0.2-0.2-0.2c-0.1,0-0.1,0-0.2,0
		c0,0-0.1,0-0.1,0c0,0,0,0-0.1,0c-0.1,0-0.3,0-0.4-0.1c-0.2-0.1-0.4-0.4-0.6-0.8l-3.1-5.3l8.3,4.5l0.5-0.3l0.5-0.3l-4.1-7
		c-0.3-0.4-0.4-0.7-0.4-0.9c0-0.2,0-0.3,0.1-0.4c0,0,0,0,0.1-0.1c0,0,0,0,0,0c0.1-0.1,0.1-0.1,0.1-0.2c0-0.1,0-0.2-0.1-0.3l-0.1-0.2
		l-2,1.2l-0.5,0.3l0.1,0.2c0.1,0.1,0.2,0.2,0.2,0.2c0.1,0,0.1,0,0.2,0c0,0,0,0,0.1,0c0,0,0,0,0.1,0c0.1,0,0.2,0,0.4,0.1
		c0.2,0.1,0.4,0.4,0.6,0.8l2.2,3.7l-6.5-3.5l-2.1,1.2l-0.5,0.3l0.1,0.2c0.1,0.1,0.1,0.2,0.2,0.2c0.1,0,0.1,0,0.2-0.1c0,0,0,0,0,0
		c0,0,0,0,0,0c0.1,0,0.2,0,0.3,0c0.1,0,0.2,0.2,0.4,0.4l3.5,5.9c0.3,0.4,0.4,0.7,0.4,0.9c0,0.2,0,0.3-0.1,0.4c0,0,0,0,0,0.1
		c0,0,0,0-0.1,0.1c0,0.1-0.1,0.1-0.1,0.2c0,0,0.1,0,0.2,0C111.7,59.2,111.8,59.2,111.8,59.2z"/>
	<path class="st0" d="M118.6,45.3c0,0,0.1,0.1,0.1,0.1c0,0,0,0,0,0.1c0,0,0,0,0,0c0,0,0.1,0.1,0.1,0.1c0,0,0,0,0.1,0l0.3,0.3l0,7.4
		c0,0.5-0.1,0.9-0.2,1.1c-0.1,0.2-0.2,0.3-0.3,0.3c-0.1,0-0.1,0.1-0.1,0.1c0,0,0,0.1,0,0.2l0.1,0.2l2.2-0.8l0.5-0.2l-0.1-0.2
		c0-0.1-0.1-0.2-0.2-0.2c-0.1,0-0.2,0-0.2,0c0,0,0,0,0,0c-0.1,0-0.2,0-0.3,0c-0.1,0-0.2-0.1-0.2-0.3c0-0.1,0-0.1,0-0.2
		c0-0.1,0-0.2,0-0.2c0,0,0-0.1,0-0.1c0,0,0-0.1,0-0.1c0-0.1,0-0.1,0-0.2c0,0,0-0.1,0-0.1l0-1l2.9-1.1l0.8,0.9l0,0c0,0,0,0,0.1,0.1
		c0,0,0,0.1,0.1,0.1c0,0,0,0.1,0.1,0.1c0,0,0,0.1,0.1,0.1c0,0,0.1,0.1,0.1,0.2c0,0,0.1,0.1,0.1,0.1c0,0.1,0,0.2,0,0.3
		c-0.1,0.1-0.1,0.1-0.2,0.2c-0.1,0-0.1,0.1-0.2,0.2c-0.1,0.1-0.1,0.2,0,0.3l0.1,0.2l2.7-1l0.5-0.2l-0.1-0.2c0-0.1-0.1-0.2-0.1-0.2
		c0,0-0.1,0-0.1,0c-0.1,0-0.2,0-0.3,0c-0.1,0-0.4-0.2-0.6-0.5l-6.2-7.1c0,0,0,0,0,0c0,0,0,0,0-0.1c0,0-0.1,0-0.1-0.1c0,0,0,0-0.1,0
		l-0.5,0.2c0,0,0,0-0.1,0.1c0,0-0.1,0.1-0.1,0.1c0,0,0,0,0,0c0,0.1-0.1,0.1-0.1,0.1c0,0-0.1,0.1-0.1,0.1c0,0,0,0-0.1,0.1
		c0,0-0.1,0.1-0.1,0.2c0,0,0,0.1-0.1,0.1c0,0,0,0.1,0,0.1c0,0,0,0.1,0,0.1c0,0,0,0.1,0,0.1C118.6,45.2,118.6,45.3,118.6,45.3z
		 M122.9,50.2l-2.5,0.9l0-3.8L122.9,50.2z"/>
	<path class="st0" d="M133.9,52.4C133.9,52.4,133.9,52.4,133.9,52.4c0.1,0,0.1,0,0.1,0c1,0.1,2-0.2,3-1c1-0.8,1.6-2,1.8-3.6
		c0.2-1.4,0-2.6-0.6-3.7c-0.6-1-1.6-1.6-2.9-1.8l-3.8-0.6l-0.5-0.1l0,0.3c0,0.1,0,0.2,0,0.3c0.1,0,0.1,0.1,0.2,0.1c0,0,0,0,0,0
		c0,0,0,0,0,0c0.1,0,0.2,0.1,0.2,0.2c0.1,0.1,0.1,0.3,0,0.6l-1.1,7.5c0,0.3-0.1,0.5-0.2,0.6c-0.1,0.1-0.2,0.1-0.3,0.1c0,0,0,0,0,0
		c0,0,0,0,0,0c-0.1,0-0.1,0-0.2,0c-0.1,0-0.1,0.1-0.1,0.2l0,0.3l3.8,0.6L133.9,52.4z M132.2,51.6l1.3-8.8l1,0.2
		c1.1,0.2,1.8,0.7,2.1,1.7c0.3,1,0.4,2,0.2,3.1c-0.2,1.4-0.6,2.5-1.3,3.2c-0.6,0.7-1.5,1-2.6,0.8L132.2,51.6z"/>
	<path class="st0" d="M138.9,52.2c-0.1,0.3-0.2,0.4-0.3,0.5c-0.1,0.1-0.2,0.1-0.3,0c0,0,0,0,0,0c0,0,0,0,0,0c-0.1,0-0.1,0-0.2,0
		c-0.1,0-0.1,0.1-0.2,0.2l-0.1,0.2l6.4,2.3l0.5,0.2l0.9-2.5l-0.2-0.1l-0.5-0.2c-0.2-0.1-0.3,0-0.4,0c-0.1,0.1-0.2,0.2-0.3,0.4
		c0,0.1-0.1,0.1-0.1,0.2c0,0.1-0.1,0.1-0.1,0.2c-0.2,0.2-0.4,0.4-0.6,0.5c-0.3,0.1-0.7,0.1-1.3-0.1l-1.6-0.6l1.4-4l0.5,0.2
		c0.3,0.1,0.5,0.2,0.5,0.4c0.1,0.1,0.1,0.3,0.1,0.4c0,0,0,0,0,0c0,0,0,0,0,0c0,0.1,0,0.2,0,0.3c0,0.1,0.1,0.2,0.3,0.2l0.2,0.1
		l0.5,0.2l0.9-2.5l-0.2-0.1l-0.5-0.2c-0.2-0.1-0.3-0.1-0.3,0c-0.1,0.1-0.1,0.1-0.2,0.2c0,0,0,0,0,0c0,0,0,0,0,0.1
		c-0.1,0.1-0.2,0.2-0.3,0.2c-0.1,0.1-0.4,0-0.7-0.1l-0.5-0.2l1.3-3.7l1.3,0.5c0.4,0.2,0.7,0.3,0.8,0.6c0.1,0.2,0.2,0.4,0.2,0.7
		c0,0,0,0.1,0,0.2c0,0.1,0,0.1,0,0.1c0,0.2,0,0.3,0,0.4c0,0.1,0.1,0.2,0.3,0.3l0.2,0.1l0.5,0.2l0.8-2.4l-0.5-0.2c-0.1,0-0.2,0-0.3,0
		c-0.1,0-0.2,0-0.3,0c-0.1,0-0.1,0-0.2,0c-0.1,0-0.1,0-0.2-0.1l-5-1.8l-0.1,0.3c0,0.1,0,0.2,0,0.3c0,0,0.1,0.1,0.2,0.1c0,0,0,0,0,0
		c0,0,0,0,0,0c0.1,0,0.1,0.1,0.2,0.2c0,0.1,0,0.3-0.1,0.6L138.9,52.2z"/>
	<path class="st0" d="M148.6,57.7C148.6,57.7,148.6,57.7,148.6,57.7C148.7,57.7,148.7,57.7,148.6,57.7c0.1-0.1,0.1-0.1,0.1-0.1
		c0,0,0.1,0,0.1,0c0,0,0.1,0.1,0.1,0.1c0,0,0.1,0.1,0.1,0.2c0.1,0.1,0.3,0.3,0.4,0.4c0.2,0.1,0.3,0.3,0.5,0.4l0.5,0.3
		c0.7,0.4,1.5,0.5,2.3,0.2c0.8-0.3,1.4-0.8,1.9-1.6c0.5-0.8,0.6-1.5,0.3-2.1c-0.2-0.6-0.5-1.2-0.9-1.7c-0.1-0.1-0.1-0.2-0.2-0.2
		c-0.1-0.1-0.1-0.2-0.2-0.2c-0.3-0.4-0.6-0.8-0.8-1.2c-0.2-0.4-0.2-0.8,0.1-1.3c0.2-0.4,0.5-0.6,0.8-0.7c0.3-0.1,0.7-0.1,1,0
		c0.3,0.2,0.5,0.4,0.5,0.7c0.1,0.3,0.1,0.5,0,0.8c0,0.1,0,0.2,0,0.3c0,0.1,0,0.2-0.1,0.3c0,0.1,0,0.3,0,0.4c0,0.1,0,0.2,0.1,0.2
		l0.4,0.2l0.5,0.3l1.1-2l-0.5-0.3l-0.5-0.2c0,0,0,0,0,0c0,0,0,0,0,0c0,0,0-0.1-0.1-0.1c0,0,0-0.1-0.1-0.1c-0.1-0.1-0.2-0.3-0.3-0.4
		c-0.1-0.1-0.3-0.3-0.5-0.4l-0.5-0.2c-0.6-0.3-1.3-0.4-2-0.2c-0.7,0.2-1.2,0.7-1.6,1.3c-0.4,0.8-0.5,1.5-0.3,2.1
		c0.2,0.6,0.5,1.1,0.9,1.6c0,0.1,0.1,0.1,0.1,0.1c0,0,0.1,0.1,0.1,0.1c0.4,0.5,0.6,0.9,0.9,1.4c0.2,0.5,0.2,1-0.2,1.6
		c-0.3,0.5-0.6,0.8-1.1,1c-0.5,0.1-0.9,0.1-1.4-0.1c-0.4-0.3-0.6-0.5-0.7-0.8c-0.1-0.3-0.2-0.6-0.2-0.9c0-0.2,0-0.4,0-0.5
		c0-0.2,0-0.3,0-0.4c0-0.1,0-0.2,0-0.2c0-0.1,0-0.1-0.1-0.1l-0.4-0.2l-0.5-0.3l-1.3,2.4l0.5,0.3L148.6,57.7z"/>
	<path class="st0" d="M154.2,59.8c-0.2,0-0.3,0-0.5,0c-0.1,0-0.1,0-0.2,0c0,0-0.1,0.1-0.2,0.2l-0.1,0.2l2,1.2l0.5,0.3l0.1-0.2
		c0.1-0.1,0.1-0.2,0-0.3c0-0.1-0.1-0.1-0.1-0.2c0,0,0,0,0,0c-0.1-0.1-0.1-0.1-0.2-0.2c0-0.1,0-0.2,0.1-0.3c0-0.1,0.1-0.1,0.1-0.2
		c0-0.1,0.1-0.1,0.2-0.2c0,0,0,0,0.1-0.1c0,0,0,0,0.1,0c0,0,0.1-0.1,0.1-0.1c0,0,0.1-0.1,0.1-0.1L157,59l2.7,1.5l-0.2,1.2l0,0
		c0,0,0,0.1,0,0.1c0,0,0,0.1,0,0.1c0,0,0,0.1,0,0.1c0,0,0,0.1,0,0.1c0,0.1,0,0.1,0,0.2c0,0.1,0,0.1-0.1,0.2
		c-0.1,0.1-0.1,0.2-0.2,0.2c-0.1,0-0.2,0-0.2,0c-0.1,0-0.2,0-0.3,0c-0.1,0-0.2,0.1-0.2,0.2l-0.1,0.2l2.5,1.4l0.5,0.3l0,0l-0.2-0.1
		l0.1-0.2c0.1-0.1,0.1-0.2,0.2-0.2c0,0,0,0,0,0c-0.1-0.1-0.1-0.1-0.2-0.3c-0.1-0.1-0.1-0.4,0-0.8l1.5-9.3c0,0,0,0,0,0c0,0,0,0,0-0.1
		c0,0,0-0.1,0-0.1c0,0,0-0.1,0-0.1l-0.5-0.2c0,0,0,0-0.1,0c-0.1,0-0.1,0-0.2,0c0,0,0,0,0,0c-0.1,0-0.1,0-0.2,0c-0.1,0-0.1,0-0.1,0
		c0,0-0.1,0-0.1,0c-0.1,0-0.1,0-0.2,0c0,0-0.1,0-0.1,0c0,0-0.1,0-0.1,0c0,0-0.1,0-0.1,0c0,0-0.1,0-0.1,0.1c0,0,0,0.1,0,0.1
		c0,0.1,0,0.1,0,0.2c0,0,0,0,0,0.1c0,0,0,0,0,0c0,0.1,0,0.1,0,0.1c0,0,0,0.1,0,0.1l-0.1,0.5l-5.7,4.8
		C154.7,59.6,154.4,59.7,154.2,59.8z M160.5,56.1l-0.6,3.7l-2.3-1.3L160.5,56.1z"/>
	<path class="st0" d="M161.4,64.5l-0.1,0.2l1.9,1.1l0.5,0.3l0.1-0.2c0.1-0.1,0.1-0.2,0.1-0.3c0-0.1-0.1-0.1-0.1-0.2c0,0,0,0-0.1-0.1
		c0,0,0,0-0.1-0.1c-0.1-0.1-0.1-0.2-0.1-0.4c0-0.2,0.1-0.5,0.4-1l3-5.3l0.3,9.5l0.5,0.3l0.5,0.3l4-7.1c0.2-0.4,0.4-0.7,0.6-0.8
		c0.2-0.1,0.3-0.1,0.4-0.1c0,0,0.1,0,0.1,0c0,0,0,0,0.1,0c0.1,0,0.1,0,0.2,0c0.1,0,0.1-0.1,0.2-0.2l0.1-0.2l-2-1.1l-0.5-0.3
		l-0.1,0.2c-0.1,0.1-0.1,0.2-0.1,0.3c0,0.1,0.1,0.1,0.1,0.2c0,0,0,0,0,0c0,0,0,0,0.1,0.1c0.1,0.1,0.1,0.2,0.1,0.4
		c0,0.2-0.1,0.5-0.4,0.9l-2.1,3.8l-0.2-7.4l-2.2-1.2l-0.5-0.3L166,56c-0.1,0.1-0.1,0.2,0,0.3c0,0.1,0.1,0.1,0.1,0.1c0,0,0,0,0,0
		c0,0,0,0,0,0c0.1,0.1,0.1,0.1,0.2,0.3c0,0.1,0,0.3-0.2,0.5l-3.3,6c-0.2,0.4-0.4,0.7-0.6,0.8c-0.2,0.1-0.3,0.1-0.4,0.1
		c0,0-0.1,0-0.1,0c0,0,0,0-0.1,0c-0.1,0-0.1,0-0.2,0l0,0c0,0,0,0.1,0.1,0.1C161.5,64.3,161.5,64.4,161.4,64.5z"/>
	<path class="st0" d="M177.2,63C177.3,63,177.3,63.1,177.2,63C177.3,63.1,177.3,63.1,177.2,63c0.1,0.1,0.2,0.2,0.2,0.3
		c0,0.1,0,0.3-0.2,0.5l-3.6,5.8c-0.3,0.4-0.5,0.7-0.6,0.8c-0.2,0.1-0.3,0.1-0.4,0.1c0,0-0.1,0-0.1,0c0,0,0,0-0.1,0
		c-0.1,0-0.1,0-0.2,0c-0.1,0-0.1,0.1-0.2,0.2L172,71l2.1,1.3l0.4,0.3l0.1-0.2c0.1-0.1,0.1-0.2,0.1-0.3c0-0.1-0.1-0.1-0.1-0.2
		c0,0,0,0-0.1-0.1c0,0,0,0-0.1-0.1c-0.1-0.1-0.1-0.2-0.1-0.4c0-0.2,0.1-0.5,0.4-0.9l3.2-5.2l-0.1,9.5l0.5,0.3l0.4,0.3l4.2-6.9
		c0.3-0.4,0.5-0.7,0.6-0.8c0.2-0.1,0.3-0.1,0.4-0.1c0,0,0.1,0,0.1,0c0,0,0,0,0.1,0c0.1,0,0.2,0,0.2,0c0.1,0,0.1-0.1,0.2-0.2l0.1-0.2
		l-2-1.2l-0.4-0.3l-0.1,0.2c-0.1,0.1-0.1,0.2-0.1,0.3c0,0.1,0.1,0.1,0.1,0.2c0,0,0,0,0,0.1c0,0,0,0,0.1,0.1c0.1,0.1,0.1,0.2,0.1,0.4
		c0,0.2-0.1,0.5-0.4,0.9l-2.2,3.7l0-7.4l-2.1-1.3l-0.4-0.3l-0.1,0.2c-0.1,0.1-0.1,0.2-0.1,0.3C177.1,62.9,177.2,63,177.2,63z"/>
	<path class="st0" d="M185.1,67.9C185.1,67.9,185.1,67.9,185.1,67.9C185.1,68,185.1,68,185.1,67.9c0.1,0.1,0.2,0.2,0.2,0.3
		c0,0.1-0.1,0.3-0.2,0.5l-4.1,6.3c-0.2,0.3-0.3,0.4-0.4,0.4c-0.1,0-0.2,0-0.3,0c0,0,0,0,0,0c0,0,0,0,0,0c-0.1,0-0.1,0-0.2-0.1
		c-0.1,0-0.1,0-0.2,0.2l-0.1,0.2l2.3,1.5l0.4,0.3l0.1-0.2c0.1-0.1,0.1-0.2,0.1-0.2c0-0.1-0.1-0.1-0.1-0.1c0,0,0,0,0,0c0,0,0,0,0,0
		c-0.1-0.1-0.1-0.1-0.1-0.3c0-0.1,0.1-0.3,0.2-0.6l4.1-6.3c0.2-0.2,0.3-0.4,0.4-0.4c0.1,0,0.2,0,0.3,0c0,0,0,0,0,0c0,0,0,0,0,0
		c0.1,0,0.1,0,0.2,0.1c0.1,0,0.1-0.1,0.2-0.2l0.1-0.2l-2.3-1.5l-0.4-0.3l-0.1,0.2c-0.1,0.1-0.1,0.2-0.1,0.2
		C185,67.8,185,67.9,185.1,67.9z"/>
	<path class="st0" d="M185.9,73.2c-0.1,0.2-0.2,0.4-0.4,0.5c-0.7,1.2-1,2.4-0.9,3.7c0.1,1.3,0.7,2.3,1.8,3l0.5,0.3
		c0.6,0.4,1.2,0.5,1.8,0.5c0.6,0,1.2-0.3,1.9-0.6l-0.2-0.6l-0.5-0.2c0,0,0,0-0.1,0c0,0,0,0-0.1,0c0,0-0.1,0-0.1,0c0,0-0.1,0-0.1,0
		c-0.4,0.1-0.7,0.3-1.1,0.3c-0.4,0.1-0.8,0-1.2-0.2c-0.6-0.4-0.9-1-1-1.8c0-0.8,0.1-1.5,0.4-2.2c0.1-0.2,0.2-0.4,0.3-0.7
		c0.1-0.2,0.2-0.4,0.3-0.6c0.1-0.2,0.3-0.4,0.4-0.7c0.2-0.2,0.3-0.5,0.5-0.7c0.5-0.6,1-1,1.6-1.4c0.6-0.4,1.2-0.4,1.8-0.1
		c0.4,0.3,0.6,0.6,0.7,0.9c0.1,0.3,0.1,0.7,0,1c0,0.1,0,0.2-0.1,0.4c0,0.1-0.1,0.2-0.1,0.3c0,0.2-0.1,0.4,0,0.5
		c0,0.1,0.1,0.2,0.2,0.3l0.3,0.2l0.5,0.3l1.3-2.3l-0.4-0.2l-0.5-0.2c0,0,0,0,0,0c0,0,0,0,0,0c0-0.1-0.1-0.1-0.1-0.2
		c0-0.1-0.1-0.1-0.1-0.2c-0.1-0.2-0.2-0.3-0.4-0.5c-0.2-0.2-0.4-0.4-0.7-0.5l-0.5-0.2c-0.9-0.5-1.9-0.6-2.8-0.2
		c-1,0.4-1.8,1-2.4,1.8C186.2,72.8,186,73,185.9,73.2z"/>
	<path class="st0" d="M193.4,77.6c-0.8,1.1-1.2,2.3-1.2,3.7c0,1.3,0.5,2.3,1.6,3.1l0.4,0.3c1.1,0.7,2.3,0.9,3.5,0.4
		c1.3-0.5,2.3-1.2,3-2.4c0.8-1.1,1.2-2.4,1.2-3.7c0-1.3-0.5-2.3-1.6-3.1l-0.4-0.3c-1.1-0.7-2.3-0.9-3.5-0.4
		C195.2,75.7,194.2,76.5,193.4,77.6z M194.7,79.4c0.1-0.2,0.3-0.4,0.4-0.6c0.1-0.2,0.2-0.3,0.4-0.5c0.1-0.2,0.3-0.3,0.4-0.5
		c0.5-0.6,1.2-1.1,1.8-1.5c0.7-0.4,1.4-0.3,2.1,0.1c0.6,0.5,0.9,1.1,0.8,1.9c-0.1,0.7-0.3,1.4-0.7,2.1c-0.1,0.3-0.3,0.5-0.4,0.7
		c-0.1,0.2-0.3,0.4-0.4,0.6c-0.1,0.2-0.2,0.3-0.4,0.5c-0.1,0.2-0.3,0.3-0.4,0.5c-0.5,0.6-1.1,1.1-1.8,1.5c-0.7,0.4-1.4,0.4-2.1-0.1
		l0,0c-0.6-0.5-0.9-1.1-0.8-1.9c0.1-0.7,0.3-1.5,0.6-2.1C194.4,79.9,194.6,79.6,194.7,79.4z"/>
	<path class="st0" d="M199.3,86.6c-0.2,0.2-0.4,0.3-0.5,0.3c-0.1,0-0.2,0-0.3-0.1c0,0,0,0,0,0c0,0,0,0,0,0c-0.1,0-0.1-0.1-0.2-0.1
		c-0.1,0-0.1,0-0.2,0.1l-0.2,0.2l-0.3-0.3l5.1,4.9L203,92l0.2-0.2l-0.5-0.9l0.2-0.1c0.1-0.1,0.2-0.1,0.2-0.1c0,0,0.1,0,0.1,0.1
		c0.1,0.1,0.2,0.2,0.4,0.2c0,0,0.1,0,0.2,0l0.9-1l-0.2-0.2l-0.4-0.4c-0.1-0.1-0.2-0.1-0.3-0.1c-0.1,0-0.2,0.1-0.4,0.2
		c-0.1,0-0.1,0.1-0.2,0.1c-0.1,0-0.1,0.1-0.2,0.1c-0.2,0.1-0.5,0.2-0.8,0.2c-0.3,0-0.6-0.2-1-0.6l-1.2-1.1l5.7-5.9
		c0.2-0.2,0.4-0.3,0.5-0.3c0.1,0,0.2,0,0.3,0.1c0,0,0,0,0,0c0,0,0,0,0,0c0.1,0,0.1,0.1,0.2,0.1c0.1,0,0.1,0,0.2-0.1l0.2-0.2l-2-1.9
		l-0.4-0.4l-0.2,0.2c-0.1,0.1-0.1,0.2-0.1,0.2c0,0.1,0,0.1,0.1,0.2c0,0,0,0,0,0c0,0,0,0,0,0c0.1,0.1,0.1,0.2,0.1,0.3
		c0,0.1-0.1,0.3-0.3,0.5L199.3,86.6z"/>
	<path class="st0" d="M203.8,93l0.3,0.5l0.2-0.1c0.1-0.1,0.2-0.1,0.2-0.2c0-0.1,0-0.2,0-0.2c0,0,0,0,0,0c0-0.1,0-0.2,0-0.3
		c0-0.1,0.1-0.2,0.2-0.2c0,0,0.1-0.1,0.2-0.1c0.1,0,0.1,0,0.2-0.1c0,0,0.1,0,0.1,0c0,0,0,0,0.1,0c0.1,0,0.1,0,0.2,0c0,0,0.1,0,0.1,0
		l1-0.2l1.5,2.7l-0.8,0.9l0,0c0,0,0,0-0.1,0.1c0,0,0,0.1-0.1,0.1c0,0-0.1,0.1-0.1,0.1c0,0-0.1,0.1-0.1,0.1c0,0-0.1,0.1-0.1,0.1
		c0,0-0.1,0.1-0.1,0.1c-0.1,0.1-0.2,0.1-0.3,0c-0.1,0-0.1-0.1-0.2-0.2c-0.1-0.1-0.1-0.1-0.2-0.2c-0.1,0-0.2,0-0.3,0l-0.2,0.1
		l1.3,2.3l0.8-0.2c0.1-0.1,0.2-0.3,0.4-0.6l6-7.2c0,0,0,0,0,0c0,0,0,0,0.1-0.1c0,0,0-0.1,0-0.1c0,0,0-0.1,0-0.1l-0.3-0.4
		c0,0,0,0-0.1-0.1c-0.1,0-0.1-0.1-0.2-0.1c0,0,0,0,0,0c-0.1,0-0.1-0.1-0.2-0.1c0,0-0.1,0-0.1-0.1c0,0-0.1,0-0.1-0.1
		c-0.1,0-0.1-0.1-0.2-0.1c0,0-0.1,0-0.1,0c0,0-0.1,0-0.1,0c0,0-0.1,0-0.1,0c0,0-0.1,0-0.1,0c0,0-0.1,0-0.1,0.1c0,0-0.1,0.1-0.1,0.1
		c0,0,0,0,0,0c0,0,0,0,0,0c0,0-0.1,0.1-0.1,0.1c0,0,0,0,0,0.1l-0.3,0.3l-7.3,1.2c-0.4,0.1-0.7,0.1-0.9,0l-0.7,0.7L203.8,93z
		 M210.9,91.2l-2.4,2.9l-1.3-2.3L210.9,91.2z"/>
	<path class="st0" d="M207.6,98.6c0,0.1,0,0.1,0,0.1c0,0-0.1,0.1-0.2,0.2l-0.2,0.1l-0.3-0.5l-0.1-0.2l-0.6,0.2l0.1,0.6l0.1,0.5
		c0,0,0,0,0,0c0,0,0,0,0,0c0,0,0,0,0.1,0c0,0,0.1,0,0.1,0c0,0.1,0,0.1,0,0.2c0,0.1,0,0.1,0,0.2c0,0.2,0,0.4,0,0.6
		c0,0.2,0,0.4,0.1,0.6l0.1,0.5c0.2,0.8,0.7,1.4,1.5,1.8c0.8,0.4,1.6,0.5,2.5,0.2c0.9-0.2,1.5-0.7,1.8-1.2c0.3-0.6,0.5-1.2,0.6-1.8
		c0-0.1,0-0.2,0-0.3c0-0.1,0-0.2,0-0.3c0.1-0.5,0.2-1,0.3-1.4c0.2-0.4,0.5-0.7,1-0.8c0.4-0.1,0.8-0.1,1.1,0.1
		c0.3,0.2,0.6,0.4,0.7,0.7c0,0.4,0,0.6-0.2,0.9c-0.2,0.2-0.3,0.4-0.5,0.6c-0.1,0.1-0.2,0.1-0.3,0.2c-0.1,0.1-0.2,0.1-0.3,0.2
		c-0.1,0.1-0.2,0.2-0.3,0.2c-0.1,0.1-0.1,0.2-0.1,0.2l0.1,0.4l0.1,0.5l2.2-0.6l-0.1-0.5l-0.2-0.5c0,0,0,0,0,0c0,0,0,0,0,0
		c0,0,0-0.1,0-0.1c0,0,0-0.1,0-0.2c0-0.1,0.1-0.3,0.1-0.5c0-0.2,0-0.4-0.1-0.6l-0.1-0.5c-0.2-0.7-0.6-1.2-1.2-1.6
		c-0.6-0.4-1.3-0.4-2.1-0.2c-0.9,0.2-1.4,0.6-1.7,1.2c-0.3,0.6-0.4,1.2-0.5,1.8c0,0.1,0,0.1,0,0.2c0,0.1,0,0.1,0,0.2
		c-0.1,0.6-0.2,1.1-0.4,1.6c-0.2,0.5-0.6,0.8-1.2,1c-0.5,0.1-1,0.1-1.4-0.1c-0.4-0.2-0.7-0.6-0.9-1c-0.1-0.4,0-0.8,0.1-1.1
		c0.2-0.3,0.3-0.5,0.5-0.7c0.1-0.1,0.3-0.2,0.4-0.3c0.1-0.1,0.2-0.2,0.3-0.3c0.1,0,0.1-0.1,0.2-0.1c0,0,0.1-0.1,0.1-0.1l-0.1-0.4
		l-0.1-0.5l-1.2,0.3c0,0-0.1,0.1-0.1,0.1C207.6,98.4,207.6,98.5,207.6,98.6z"/>
	<path class="st0" d="M210.2,108.8c-0.1,0-0.2-0.1-0.2-0.2c0,0,0,0,0,0c0,0,0,0,0,0c0-0.1-0.1-0.1-0.1-0.2c0,0-0.1,0-0.2,0l-0.3,0.1
		l1,3.7l0.1,0.5c0,0,0,0.1,0,0.1c0,0,0,0,0,0.1c0.3,1,1,1.7,2.1,2.3c1.1,0.6,2.4,0.7,4,0.3c1.4-0.4,2.4-1,3.1-2
		c0.7-1,0.9-2.1,0.6-3.3l-0.9-3.7l-0.1-0.5l-0.3,0.1c-0.1,0-0.2,0.1-0.2,0.1c0,0.1,0,0.1,0,0.2c0,0,0,0,0,0c0,0,0,0,0,0
		c0,0.1,0,0.2-0.1,0.3c-0.1,0.1-0.2,0.2-0.5,0.2l-7.3,1.9C210.5,108.8,210.3,108.9,210.2,108.8z M219.3,108.5l0.2,0.9
		c0.3,1.1,0,2-0.7,2.6c-0.8,0.7-1.7,1.1-2.8,1.4c-1.4,0.4-2.6,0.4-3.5,0.1c-0.9-0.3-1.5-1-1.7-2.1l-0.2-0.7L219.3,108.5z"/>
	<path class="st0" d="M220.5,115.7c0,0.1,0,0.2-0.1,0.3c-0.1,0.1-0.3,0.2-0.5,0.2l-7.5,1.2c-0.3,0.1-0.5,0-0.6,0
		c-0.1-0.1-0.2-0.1-0.2-0.2c0,0,0,0,0,0c0,0,0,0,0,0c0-0.1,0-0.1-0.1-0.2c0-0.1-0.1-0.1-0.2,0l-0.3,0l-0.1-0.4l1.2,7.1l0.1,0.5
		l2.6-0.4l0-0.2l-0.1-0.5c0-0.2-0.1-0.3-0.2-0.3c-0.1,0-0.3-0.1-0.5-0.1c-0.1,0-0.1,0-0.2,0c-0.1,0-0.1,0-0.2,0
		c-0.3,0-0.5-0.1-0.7-0.3c-0.2-0.2-0.4-0.6-0.5-1.2l-0.3-1.7l4.2-0.7l0.1,0.5c0,0.3,0,0.5-0.1,0.6c-0.1,0.1-0.2,0.2-0.3,0.3
		c0,0,0,0,0,0c0,0,0,0,0,0c-0.1,0.1-0.2,0.1-0.3,0.2c-0.1,0.1-0.1,0.2-0.1,0.4l0,0.2l0.1,0.5l2.6-0.4l0-0.2l-0.1-0.5
		c0-0.2-0.1-0.3-0.2-0.3c-0.1,0-0.2-0.1-0.3-0.1c0,0,0,0,0,0c0,0,0,0-0.1,0c-0.1,0-0.3-0.1-0.4-0.2c-0.1-0.1-0.2-0.3-0.2-0.6
		l-0.1-0.5l3.8-0.6l0.2,1.4c0.1,0.5,0,0.8-0.1,1c-0.1,0.2-0.3,0.4-0.5,0.5c0,0-0.1,0.1-0.1,0.1c0,0-0.1,0-0.1,0.1
		c-0.1,0.1-0.2,0.1-0.3,0.2c-0.1,0.1-0.1,0.2-0.1,0.4l0,0.3l0.1,0.5l2.5-0.4l-0.1-0.5c-0.1-0.1-0.1-0.1-0.1-0.2
		c0-0.1-0.1-0.2-0.1-0.3c0-0.1,0-0.1-0.1-0.2c0-0.1,0-0.1,0-0.2l-0.9-5.2l-0.3,0c-0.1,0-0.2,0.1-0.2,0.1
		C220.5,115.5,220.5,115.6,220.5,115.7C220.5,115.6,220.5,115.7,220.5,115.7C220.5,115.7,220.5,115.7,220.5,115.7z"/>
	<path class="st0" d="M214.9,128.8c-0.1,0-0.2-0.1-0.2-0.2c0,0,0,0,0,0c0,0,0,0,0,0c0-0.1-0.1-0.1-0.1-0.2c0,0-0.1,0-0.2,0l-0.2,0.1
		l0.8,2.7l0.1,0.5l0.2-0.1c0.1,0,0.2-0.1,0.2-0.1c0-0.1,0-0.1,0-0.2c0,0,0,0,0,0c0,0,0,0,0,0c0-0.1,0-0.2,0.1-0.3
		c0.1-0.1,0.2-0.2,0.5-0.3l3.4-1l1,3.5l-3.4,1c-0.3,0.1-0.5,0.1-0.6,0.1c-0.1,0-0.2-0.1-0.2-0.2c0,0,0,0,0,0c0,0,0,0,0,0
		c0-0.1-0.1-0.1-0.1-0.2c0,0-0.1-0.1-0.3,0l-0.2,0.1l0.8,2.7l0.1,0.5l0.2-0.1c0.1,0,0.2-0.1,0.2-0.2c0-0.1,0-0.1,0-0.2c0,0,0,0,0,0
		c0,0,0,0,0,0c0-0.1,0-0.2,0.1-0.3c0.1-0.1,0.2-0.2,0.5-0.3l7.2-2.2c0.3-0.1,0.5-0.1,0.6,0c0.1,0,0.2,0.1,0.2,0.2c0,0,0,0,0,0
		c0,0,0,0,0,0c0,0.1,0.1,0.1,0.1,0.2c0,0,0.1,0,0.3,0l0.2-0.1l-0.8-2.7l-0.2-0.5l-0.3,0.1c-0.1,0-0.2,0.1-0.2,0.2c0,0.1,0,0.1,0,0.2
		c0,0,0,0,0,0c0,0,0,0,0,0c0,0.1,0,0.2-0.1,0.3c-0.1,0.1-0.2,0.2-0.5,0.3l-3.1,0.9l-1-3.5l3.1-0.9c0.3-0.1,0.5-0.1,0.6-0.1
		c0.1,0,0.2,0.1,0.2,0.2c0,0,0,0,0,0c0,0,0,0,0,0c0,0.1,0.1,0.1,0.1,0.2c0,0,0.1,0,0.3,0l0.3-0.1l-0.8-2.7l-0.1-0.5l-0.3,0.1
		c-0.1,0-0.2,0.1-0.2,0.1c0,0.1,0,0.1,0,0.2c0,0,0,0,0,0c0,0,0,0,0,0c0,0.1,0,0.2-0.1,0.3c-0.1,0.1-0.2,0.2-0.5,0.3l-7.2,2.2
		C215.2,128.9,215,128.9,214.9,128.8z"/>
	<path class="st0" d="M225.9,135.3c0,0.1,0,0.1,0,0.2c0,0,0,0,0,0c0,0,0,0,0,0c0,0.1,0,0.2-0.1,0.3c-0.1,0.1-0.2,0.2-0.5,0.2
		l-7.4,1.3c-0.3,0.1-0.5,0-0.6,0c-0.1-0.1-0.2-0.1-0.2-0.2c0,0,0,0,0,0c0,0,0,0,0,0c0-0.1,0-0.1-0.1-0.2c0,0-0.1-0.1-0.2,0l-0.2,0
		l0.5,2.7l0.1,0.5l0.2,0c0.1,0,0.2-0.1,0.2-0.1c0-0.1,0-0.1,0-0.2c0,0,0,0,0,0c0,0,0,0,0,0c0-0.1,0-0.2,0.1-0.3
		c0.1-0.1,0.3-0.2,0.6-0.2l7.4-1.3c0.3,0,0.5,0,0.6,0c0.1,0.1,0.2,0.1,0.2,0.2c0,0,0,0,0,0c0,0,0,0,0,0c0,0.1,0.1,0.1,0.1,0.2
		c0,0,0.1,0.1,0.3,0l0.3,0l-0.5-2.7l-0.1-0.5l-0.3,0C226,135.2,226,135.3,225.9,135.3z"/>
	<path class="st0" d="M226.8,139.9C226.8,139.9,226.8,139.9,226.8,139.9C226.8,140,226.8,140,226.8,139.9c0,0.2-0.1,0.3-0.1,0.4
		c-0.1,0.1-0.3,0.1-0.6,0.1l-7.5,0.5c-0.3,0-0.5,0-0.6-0.1c-0.1-0.1-0.1-0.1-0.2-0.2c0,0,0,0,0,0c0,0,0,0,0,0c0-0.1,0-0.1-0.1-0.2
		c0,0-0.1-0.1-0.2-0.1l-0.3,0l0.2,3.8l0,0.5c0,0,0,0.1,0,0.1c0,0,0,0,0,0.1c0.1,1,0.6,1.9,1.6,2.7c1,0.8,2.2,1.1,3.8,1
		c1.4-0.1,2.6-0.5,3.5-1.4c0.9-0.8,1.3-1.9,1.2-3.2l-0.2-3.8l0-0.5l-0.3,0c-0.1,0-0.2,0-0.2,0.1
		C226.8,139.8,226.8,139.8,226.8,139.9z M226.9,143.2c0.1,1.1-0.3,1.9-1.2,2.4c-0.9,0.5-1.9,0.8-3,0.8c-1.4,0.1-2.6-0.1-3.4-0.6
		c-0.8-0.5-1.3-1.3-1.3-2.4l0-0.8l8.9-0.6L226.9,143.2z"/>
	<path class="st0" d="M227.5,153.7C227.5,153.6,227.5,153.6,227.5,153.7c0-0.1-0.1-0.1-0.1-0.2c0-0.1,0-0.1,0-0.1c0,0,0-0.1-0.1-0.1
		c0-0.1-0.1-0.1-0.1-0.2c0,0,0-0.1-0.1-0.1c0,0,0-0.1-0.1-0.1c0,0,0-0.1-0.1-0.1c0,0-0.1,0-0.1,0c0,0-0.1,0-0.1,0
		c-0.1,0-0.1,0-0.2,0c0,0,0,0-0.1,0c0,0,0,0,0,0c0,0-0.1,0-0.1,0c0,0-0.1,0-0.1,0l-0.4,0.1l-6.5-3.5c-0.5-0.3-0.8-0.5-0.8-0.7
		c-0.1-0.2-0.1-0.3-0.2-0.4c0-0.1,0-0.1-0.1-0.2c0,0-0.1-0.1-0.2-0.1l-0.3,0l-0.3,2.3l-0.1,0.5l0.2,0c0.1,0,0.2,0,0.3-0.1
		c0.1-0.1,0.1-0.1,0.1-0.2c0,0,0,0,0,0c0-0.1,0.1-0.2,0.1-0.2c0.1-0.1,0.2-0.1,0.3-0.1c0.1,0,0.1,0,0.2,0.1c0.1,0,0.1,0.1,0.2,0.1
		c0,0,0.1,0,0.1,0c0,0,0,0,0.1,0c0.1,0,0.1,0,0.1,0.1c0,0,0.1,0,0.1,0.1l0.9,0.4l-0.4,3.1l-1.1,0.3l0,0c0,0-0.1,0-0.1,0
		c0,0-0.1,0-0.1,0c0,0-0.1,0-0.1,0c0,0-0.1,0-0.1,0c-0.1,0-0.1,0-0.2,0c-0.1,0-0.1,0-0.2,0c-0.1,0-0.2-0.1-0.2-0.1
		c0-0.1,0-0.2-0.1-0.2c0-0.1,0-0.2-0.1-0.2c0-0.1-0.1-0.1-0.2-0.1l-0.3,0l-0.3,2.6l0.2-0.4l-0.2,0.4l0,0l0.2,0.1
		c0.1,0,0.2,0.1,0.2,0.2c0,0.1,0,0.1,0,0.2c0,0,0,0,0,0c0,0,0,0,0,0c0,0.1,0,0.2,0,0.3c0,0,0-0.1,0.1-0.1c0-0.1,0.1-0.2,0.2-0.3
		c0.1-0.1,0.3-0.2,0.8-0.3l9.1-2.1c0,0,0,0,0,0c0,0,0.1,0,0.1,0c0,0,0.1,0,0.1,0c0,0,0.1,0,0.1,0l0.1-0.5c0,0,0,0,0-0.1
		C227.5,153.8,227.5,153.7,227.5,153.7z M220.5,154.2l0.3-2.6l3.3,1.8L220.5,154.2z"/>
	<path class="st0" d="M216.8,157.4l-0.2,0l0.1-0.5l0-0.3l0,0l0,0v0l-2.5,6.2l-0.2,0.5l2.4,0.9l0.1-0.3l0.2-0.5c0.1-0.1,0-0.3,0-0.3
		c-0.1-0.1-0.2-0.2-0.3-0.3c-0.1,0-0.1-0.1-0.2-0.1c-0.1,0-0.1-0.1-0.2-0.1c-0.2-0.2-0.3-0.4-0.4-0.6c-0.1-0.3-0.1-0.7,0.2-1.2
		l0.6-1.5l7.6,3c0.3,0.1,0.4,0.2,0.5,0.3c0,0.1,0.1,0.2,0,0.3c0,0,0,0,0,0c0,0,0,0,0,0c0,0.1,0,0.1,0,0.2c0,0.1,0.1,0.1,0.2,0.2
		l0.2,0.1l1-2.6l0.2-0.5l-0.3-0.1c-0.1-0.1-0.2-0.1-0.3,0c0,0-0.1,0.1-0.1,0.2c0,0,0,0,0,0c0,0,0,0,0,0c0,0.1-0.1,0.1-0.2,0.2
		c-0.1,0-0.3,0-0.6-0.1l-7-2.8c-0.3-0.1-0.4-0.2-0.5-0.3c0,0,0,0,0,0c0,0,0,0,0,0C217,157.4,216.9,157.4,216.8,157.4z"/>
	<path class="st0" d="M218,165.5c-1.4-0.9-2.7-1.3-3.9-1c-1.2,0.2-2.2,0.9-3,2.2l-0.3,0.4c-0.1,0.1-0.2,0.3-0.3,0.5
		c-0.1,0.3-0.3,0.5-0.4,0.9c-0.2,0.4-0.3,0.8-0.3,1.1c-0.1,0.4,0,0.6,0.2,0.7l0.3,0.2c0.1-0.1,0.2-0.2,0.3-0.2
		c0.1,0,0.2,0.1,0.4,0.2l1.7,1.2c0,0,0,0,0,0c0,0,0,0,0.1,0c0,0,0,0,0.1,0c0,0,0,0,0,0c0,0,0.1,0,0.1,0.1c0,0,0.1,0,0.1,0.1
		c0.1,0.1,0.1,0.1,0.2,0.2c0,0.1,0.1,0.1,0.1,0.2l1.3-2l0.3-0.4l-0.2-0.1c-0.2-0.1-0.3-0.1-0.3-0.1c-0.1,0-0.1,0.1-0.2,0.1
		c0,0,0,0,0,0.1c0,0,0,0-0.1,0.1c-0.1,0.1-0.3,0.1-0.5,0c-0.2,0-0.6-0.2-1.1-0.6c-0.5-0.3-0.9-0.7-1.1-1c-0.2-0.4-0.2-0.8,0.1-1.3
		c0.6-0.8,1.4-1.1,2.3-1c0.9,0.1,1.8,0.5,2.6,1c0.1,0.1,0.2,0.1,0.3,0.2c0.1,0.1,0.2,0.1,0.3,0.2c0.2,0.1,0.4,0.3,0.6,0.4
		c0.2,0.1,0.4,0.3,0.6,0.5c0.6,0.5,1.1,1.1,1.4,1.8c0.4,0.7,0.4,1.3,0,1.9c-0.3,0.4-0.6,0.6-1,0.6c-0.3,0-0.7,0-1-0.1
		c-0.1,0-0.2,0-0.3-0.1c-0.1,0-0.2-0.1-0.3-0.1c-0.2-0.1-0.4-0.1-0.6-0.1c-0.2,0-0.3,0.1-0.4,0.2l-0.2,0.3l-0.3,0.4l2.2,1.5l0.3-0.4
		l0.3-0.4c0,0,0,0,0,0c0,0,0,0,0,0c0.1,0,0.1,0,0.2-0.1c0.1,0,0.1-0.1,0.2-0.1c0.2-0.1,0.4-0.2,0.6-0.4s0.4-0.4,0.6-0.7l0.3-0.4
		c0.6-1,0.8-2.1,0.3-3.3C220.2,167.4,219.3,166.3,218,165.5z"/>
	<polygon class="st0" points="210.3,170.5 210.3,170.5 210.3,170.5 	"/>
	<path class="st0" d="M213.2,172.9c-1.2-0.7-2.4-1-3.7-0.8c-1.3,0.1-2.3,0.7-2.9,1.9l-0.3,0.5c-0.7,1.2-0.7,2.3-0.1,3.6
		c0.6,1.2,1.4,2.2,2.6,2.8c1.2,0.7,2.4,1,3.8,0.9c1.3-0.1,2.3-0.7,3-1.9l0.2-0.5c0.6-1.1,0.7-2.3,0.1-3.6
		C215.3,174.6,214.4,173.6,213.2,172.9z M215.1,179.3c-0.5,0.6-1,0.9-1.8,0.9c-0.7,0-1.5-0.2-2.2-0.5c-0.3-0.1-0.5-0.2-0.7-0.3
		c-0.2-0.1-0.5-0.2-0.7-0.4c-0.2-0.1-0.4-0.2-0.6-0.3c-0.2-0.1-0.4-0.2-0.5-0.4c-0.7-0.5-1.2-1.1-1.6-1.7c-0.4-0.6-0.5-1.3-0.1-2.1
		l0,0c0.4-0.6,1-0.9,1.8-0.9c0.7,0,1.5,0.2,2.2,0.5c0.3,0.1,0.5,0.2,0.8,0.3c0.2,0.1,0.5,0.2,0.7,0.4c0.2,0.1,0.4,0.2,0.5,0.3
		c0.2,0.1,0.4,0.2,0.6,0.4c0.7,0.5,1.2,1.1,1.6,1.7C215.4,177.8,215.4,178.5,215.1,179.3z"/>
	<path class="st0" d="M238,122.7c-0.7-3.9-6.3-20.2-6.9-25c-0.7-4.8-1.8-7-2.7-11.5c-0.9-4.4-5.2-9.3-8.9-12.6
		c-3.8-3.3-14.9-8.6-15.4-8.8l-3.1-1.7v-8.3c0,0,1.6-0.1,1.6-1.1c0-1-0.4-1.2-0.4-1.2s1.5-0.7,1.4-2.2c0-1.7-1.4-2.4-1.4-2.4
		s1.2-0.5,1.2-1.9c0-1,0.2-1.3,0.2-1.3s3.9-1,3.9-3c0-2.1-1.8-2.3-1.8-2.3s0.8-1.8-1.2-2.5c0.9-1,2.9-3.5,2.5-7.3
		c0,0-1.1-4.3-3.1-6.6c0,0,0,0-3.1-3.7c-3.1-3.7,1.1-9.4,1.1-9.4c0,0-0.1,0-0.2,0c0,0,0,0,0,0c-2.8,0.1-9.1,2.4-9.8,2.7
		c-0.2-0.1-0.4-0.1-0.6-0.1c-2.2-0.1-5.1,3.9-5.1,3.9c-3,1.2-3.6,5.1-3.6,5.1c-2.5,0.6-2.3,5.2-2.3,5.2c-1.9,0.7-1,3.9-1,3.9
		c-2.6,3.1,0.2,6.2,0.7,6.7c-0.3,0.4-0.7,0.5-0.7,1.4c0,0.5,0.5,1,0.6,1.1c-0.6,0.2-2,0.4-2,2.2c0,2.4,4.4,2.8,4.4,2.8s0,0.2,0,1.2
		c0,1,1.3,1.7,1.3,1.7s-1.6,0.6-1.6,2.6c0,1.4,1.6,2,1.6,2s-0.4,0.1-0.4,1.1c0,1.5,1.2,1.3,1.2,1.3v1.7c-0.2-0.1-0.4-0.1-0.6-0.2
		c-1.8-0.5-5.2-4.7-10.7-8.2c-5.5-3.5-8.5-7.8-14-11.7c-5.5-3.9-6.8-3-12.4-5.4c-5.6-2.4-10.6-4.7-14.6-4.8c-4-0.1-14,3.1-17.3,5
		c-3.3,1.9-5.7,2.6-10.5,4.6c-4.8,2-10.5,8.4-16.6,12.4c-6.1,4-7.4,6.5-9.9,7.1c-0.8,0.2-2.1,0.6-3.6,1v-0.9c0,0,1.6-0.1,1.6-1.1
		c0-1-0.4-1.2-0.4-1.2s1.5-0.7,1.4-2.2c0-1.7-1.4-2.4-1.4-2.4s1.2-0.5,1.2-1.9c0-1,0.2-1.3,0.2-1.3s3.9-1,3.9-3
		c0-2.1-1.8-2.3-1.8-2.3s0.8-1.8-1.2-2.5c0.9-1,2.9-3.5,2.5-7.3c0,0-1.1-4.3-3.1-6.6c0,0,0,0-3.1-3.7c-3.1-3.7,1.1-9.4,1.1-9.4
		c-3,0.1-9.9,2.7-9.9,2.7c-2.3-0.8-5.6,3.8-5.6,3.8c-3,1.2-3.6,5.1-3.6,5.1c-2.5,0.6-2.3,5.2-2.3,5.2c-1.9,0.7-1,3.9-1,3.9
		c-2.5,3-0.1,5.9,0.6,6.6c-0.4,0.5-0.8,0.5-0.8,1.5c0,0.5,0.5,1,0.6,1.1c-0.7,0.2-2,0.4-2,2.2c0,2.4,4.4,2.8,4.4,2.8s0,0.2,0,1.2
		c0,1,1.3,1.7,1.3,1.7s-1.6,0.6-1.6,2.6c0,1.4,1.6,2,1.6,2s-0.4,0.1-0.4,1.1c0,1.5,1.2,1.3,1.2,1.3v7c-2.7,1.3-5.5,2.7-7.1,3.5
		c-3.8,1.7-7.9,4.4-11.2,7.6c-3.3,3.3-6.2,10.5-7.6,14.3c-1.4,3.8-2.7,11.3-2.9,15.1c-0.2,3.8-1,10.2-3.4,15.8
		c-2.4,5.6-3.3,10.9-4,17.6c-0.7,6.7-0.7,16.3,0.5,21.3c1.3,5,2.3,6.9,3.8,10.3c1.5,3.4,6.2,12.7,9.3,19.7c2.6,5.7,7.4,10.6,9,12.2
		c-0.4,0.9,0.1,1.4,0.3,2c0.4,0.9,3.6,3.3,3.5,4.1c0,0.7-4.3,0.1-6.4,4.1c-1.6,3.1-0.9,8.2-0.3,10.6c0.6,2.4,7.6,6.4,9,6.8l14,0.9
		l0.9,23.6c0,0,2.1,0.6,4.2,0l0.6-22.8l3.9,2.3c0,0-4.5,2.7-3.5,6.1c1,3.3,3.4,9.4,8.5,9.1c5.1-0.3,6.3-3.2,6.1-4.4
		c-0.2-1.2-0.2-2.4,0.5-2.5c0.7-0.1,2.2,7.2,8.9,6.4c6.7-0.8,10.6-4.4,10.6-4.4s-5.7,0.4-9.6-2.3c-3.9-2.7-6.9-5.3-9.1-4.7
		c-2.2,0.6-2.1,1.4-2.7,4.2c0,0-4.8,0.8-4.6-1.5c0.2-2.4,3.3-1.9,3.2-4.4c-0.1-2.5,0.3-10.9-12-13.6l0.1-5.7c9.1-1.4,8-5.9,8-5.9
		s-2.5-4.3-3.7-4.8c-1.2-0.5-4.2-0.2-4.3-0.1l0,1.2v1.7c0,0,0,0,0,0v0.1c0,0-3.9-0.1-4.5-0.1c-0.1,0-0.2,0-0.3,0
		c-0.3,0-0.6-0.1-0.9-0.2l-0.1,0v0c-0.1,0-0.2,0-0.3-0.1c-0.3-0.1-0.5-0.2-0.5-0.2l0-0.1c-0.8-0.4-1.6-0.8-2.5-1.3
		c-0.8-0.4-1.7-0.8-2.4-1.1c-1.9-0.6-3.9-1.2-3.5-1.9c0,0,0,0,0,0c0,0,0-0.1,0-0.1c0.1-0.1,0.2-0.2,0.4-0.3c0.1-0.1,0.3-0.1,0.5-0.2
		c0.7-0.2,1.9-0.4,3.3-0.5c1.4-0.1,3-0.2,4.2-0.1c0.4,0,0.9,0,1.2,0l0.9,0l0,0c0.7,0,1.1,0,1.1,0c0.5,0,1.1,0.1,1.5,0.1l-0.2,0v0
		c0.5,0,1,0,1.4,0v0l-0.6,0c7.3-0.1,6-4.5,6-4.5c0.8-1.3,0.6-2.2,0.6-2.2c1.7-1.9,1.4-3.6,1.3-4.1c0,0,0,0,0-0.1
		c0.1-0.1,0-0.1,0-0.1c-0.3-1.4-1.5-4.6-5.9-8.3l0.3-12.3c0,0,1.5,0.1,1.5-1.3c0-0.8-0.3-0.9-0.3-0.9s1.6-0.5,1.6-2.4
		c0-1.9-1.5-2.5-1.5-2.5s0.9,0,0.9-1c0-1.1-0.9-1.1-0.9-1.1H72l2.7-70c6.2-3.4,13.9-4.4,17.7-6.7c4-2.4,4.2-4.4,10.6-7.4
		c6.4-3,8.4-5.9,10.1-7.2c1.8-1.3,5.8-2.8,8.1-3.5c2.3-0.7,7-4,9.3-4c2.3,0,2.1,0.2,5.3,1c3.3,0.7,2.8,2.7,7.6,3.7
		c4.8,1,9.9,6.5,10.9,7.7c1,1.2,1.5,1.6,5.2,2.5c3.7,0.9,5.4,5,9.7,7.1c4.1,2.1,15.8,5.6,16.6,5.8l2.7,71.2h-0.5c0,0-0.9,0-0.9,1.1
		c0,1,0.9,1,0.9,1s-1.5,0.7-1.5,2.5c0,1.9,1.6,2.4,1.6,2.4s-0.3,0.1-0.3,0.9c0,1.4,1.5,1.3,1.5,1.3l0.3,11.1
		c-1,0.7-6.8,4.9-6.4,13.6c0,0-4.1,3.1-3.4,7.7c0.7,4.6,2,7.8,3.8,8.3c1.5,0.4,5.2,0.4,6.3,0.4l0.2,6.4c-4,0.7-5.9,3.9-11.2,7
		c-5.3,3.1-3.8,8.8-3.8,8.8c-0.8,0.7-10.9,7.5-12.8,7.6c-1.8,0.1-8.7-0.6-8.7-0.6c3,5.1,10.8,4.9,13,4.7c2.3-0.2,5.3-2.8,5.8-3.5
		c0.6-0.7,3.7-2.4,3.7-2.4c0.2,2.2,1.8,4.1,5,3.4c3.2-0.8,7.5-5.2,7.5-8.2c0-2.9-3.1-5.5-3.1-5.5c0.7-0.9,4.7-2,4.8-2l0.7,21.7
		c0,0,2.9,0.6,4.7-0.1l0.2-23.7c1.1,0.2,5.6,0.9,8.2,0.7c2.9-0.2,8.7-2.3,10.8-7.9l0.1-8.6c0,0-1-2.4-3.5-3.6
		c8.6-7.4,13.4-18.5,14.1-20.6c0.7-2.2,3.5-6,6.8-10.2c3.3-4.2,5.5-15.2,6.1-18c0.7-2.8,1.8-10.6,1.8-15.5
		C240.7,134.5,238.7,126.6,238,122.7z M91.1,237.4c4.9,4.5,10.9,5.2,10.9,5.2s-4.4,2.4-9,1.9c-4.7-0.6-7.3-7.6-7.3-7.6
		S87.2,233.8,91.1,237.4z M205.2,38.9c-0.3,0.7-1.2,0.6-4.6,0.1c-2.8-0.5-5.7-0.4-7.6-0.5c-1.9,0-4.9,0-7.6,0.5
		c-3.4,0.6-4.2,0.7-4.6-0.1c-0.5-1,0.9-1.2,0.9-1.2c2.9-0.6,9.1-0.8,11-0.9l0,0c0,0,0.1,0,0.3,0c0.2,0,0.3,0,0.3,0l0,0
		c1.9,0,8.1,0.2,11,0.9C204.2,37.7,205.6,37.9,205.2,38.9z M200,11.7c0,0-3.3,4.4,0.3,9.2c3.6,4.8,8.5,10.7,1.2,15.2
		c0,0,2.8-6.5-1.5-11.4C195.5,19.7,196.8,13.8,200,11.7z M192.2,15.7c0.8-2.6,3.2-2.8,3.2-2.8s-4.1,2.4-0.8,7.1c0,0-1.5-3.9,2-6.8
		c0,0-2.4,4.6,1.1,10.6c3.4,6,4.4,7,1.9,11.6c0,0,1.2-5.1-2.8-10.3C192.8,20,191.4,18.3,192.2,15.7z M182.7,23.7
		c2.4,7.7,6.4,8.4,6.4,8.4c-7.7-9.2-3.3-13.3-3.3-13.3c-0.1,4.8,3.2,6.8,3.2,6.8c-4.5-7.7,2-11.4,2-11.4c-1,2.4-0.8,2.2,1.1,6.8
		c2,4.6,5.4,7.2,6.2,10.9c0.7,3.7-2.9,3.9-2.9,3.9c-0.2-4.6-4.2-6.8-4.2-6.8c3.1,5.1,1.5,6.8,1.5,6.8c-2.4,0-5.4,0.1-5.4,0.1
		c-0.2-2.2-1.6-4.1-1.6-4.1C181.8,27.3,182.7,23.7,182.7,23.7z M181.2,27.8c0,0,2.4,3.1,3.1,4.7c0.7,1.6,1.4,2.7,0,4.1
		c0,0-0.4-2.8-1.7-4.4C181.3,30.6,181,29.3,181.2,27.8z M180.6,31.4c0,0,1.4,3.8,2.3,5c0,0-0.3,0.9-1.5,0.1
		C180.3,35.7,180.3,33,180.6,31.4z M180.1,42.9c-0.6-0.5-2-1.6,0.5-2.5c2.5-0.9,9.2-1.3,11.8-1.3h1.1c2.5,0,9.3,0.4,11.8,1.3
		c2.5,0.9,1.1,2,0.5,2.5c-0.7,0.5-2.2,1.3-3.6,0.7c-1.3-0.5-5-1.4-9.2-1.5c-4.2,0.1-7.9,1-9.2,1.5C182.4,44.1,180.8,43.4,180.1,42.9
		z M183.8,44.6c2.4-1.5,6.4-1.7,8.8-1.7h0.7c2.4,0,6.5,0.2,8.8,1.7c0,0,0.9,1.7-0.8,2.8c-1.3,0.8-4.1-0.2-8.4-0.2
		c-4.3,0-7.1,1-8.4,0.2C182.9,46.4,183.8,44.6,183.8,44.6z M183.6,49.1c1.6-0.9,6.6-1.1,9.3-1.1c0,0,0,0,0.1,0c0,0,0,0,0.1,0
		c2.7,0,7.7,0.1,9.3,1.1c0.8,0.4,0.7,2.9-1.8,2.5c-2.5-0.4-4.8-0.5-7.5-0.5c-2.7,0-5,0.1-7.5,0.5C183,52,182.8,49.6,183.6,49.1z
		 M184.4,53.4c0-1.7,8.5-1.8,8.5-1.8h0.2c0,0,8.5,0.1,8.5,1.8c0,1.7-3.9,0.4-5.6,0.4c-1,0-2.3-0.1-3-0.1c-0.8,0-2,0.1-3,0.1
		C188.2,53.8,184.3,55,184.4,53.4z M200,55l-0.1,7.8l-2.5-1.3l0-6.4H200z M196.2,55v5.7c-2.1-1.2-6-2.3-6-2.3v-3.4L196.2,55z
		 M189.5,58.4c-0.4-0.1-3.7-1.3-3.7-1.3V55h3.7V58.4z M78.3,39.4c-0.3,0.7-1.2,0.6-4.6,0.1C71,39,68,39.1,66.1,39
		c-1.9,0-4.9,0-7.6,0.5c-3.4,0.6-4.2,0.7-4.6-0.1c-0.5-1,0.9-1.2,0.9-1.2c2.9-0.6,9.1-0.8,11-0.9l0,0c0,0,0.1,0,0.3,0
		c0.2,0,0.3,0,0.3,0l0,0c1.9,0,8.1,0.2,11,0.9C77.4,38.3,78.8,38.4,78.3,39.4z M73.1,12.3c0,0-3.3,4.4,0.3,9.2
		c3.6,4.8,8.5,10.7,1.2,15.1c0,0,2.8-6.5-1.6-11.4C68.7,20.3,70,14.4,73.1,12.3z M65.3,16.3c0.8-2.6,3.2-2.8,3.2-2.8
		s-4.1,2.4-0.8,7.1c0,0-1.5-3.9,2-6.8c0,0-2.4,4.6,1.1,10.6c3.4,6,4.4,7,1.9,11.6c0,0,1.2-5.1-2.8-10.3
		C65.9,20.6,64.5,18.9,65.3,16.3z M55.8,24.3c2.4,7.7,6.4,8.4,6.4,8.4c-7.7-9.2-3.3-13.2-3.3-13.2c-0.1,4.8,3.2,6.8,3.2,6.8
		c-4.5-7.7,2-11.4,2-11.4c-1,2.4-0.8,2.2,1.1,6.8c2,4.6,5.4,7.2,6.2,10.9c0.7,3.7-2.9,3.9-2.9,3.9c-0.2-4.6-4.2-6.8-4.2-6.8
		c3.1,5.1,1.5,6.8,1.5,6.8c-2.4,0-5.4,0.1-5.4,0.1c-0.2-2.2-1.6-4-1.6-4C55,27.9,55.8,24.3,55.8,24.3z M54.3,28.3
		c0,0,2.3,3.1,3.1,4.7c0.7,1.6,1.4,2.7,0,4.1c0,0-0.4-2.8-1.7-4.4C54.4,31.2,54.1,29.9,54.3,28.3z M53.7,31.9c0,0,1.4,3.8,2.3,5
		c0,0-0.3,0.9-1.5,0.1C53.4,36.3,53.4,33.5,53.7,31.9z M53.3,43.4c-0.6-0.5-2-1.6,0.5-2.5c2.5-0.9,9.2-1.3,11.8-1.3h1.1
		c2.5,0,9.3,0.4,11.8,1.3c2.5,0.9,1.2,2,0.5,2.5c-0.7,0.5-2.2,1.3-3.6,0.7c-1.3-0.5-5-1.4-9.2-1.5c-4.2,0.1-7.9,1-9.2,1.5
		C55.5,44.7,54,44,53.3,43.4z M57,45.2c2.4-1.5,6.4-1.7,8.8-1.7h0.7c2.4,0,6.5,0.2,8.8,1.7c0,0,0.9,1.7-0.8,2.8
		c-1.3,0.8-4.1-0.2-8.4-0.2c-4.3,0-7.1,1-8.4,0.2C56.1,46.9,57,45.2,57,45.2z M56.8,49.7c1.6-0.9,6.6-1.1,9.3-1.1c0,0,0,0,0,0
		c0,0,0,0,0.1,0c2.7,0,7.7,0.1,9.3,1.1c0.8,0.4,0.7,2.9-1.8,2.5c-2.5-0.4-4.8-0.5-7.5-0.5c-2.7,0-5,0.1-7.5,0.5
		C56.1,52.5,56,50.1,56.8,49.7z M57.5,54c0-1.7,8.5-1.8,8.5-1.8h0.2c0,0,8.5,0.1,8.5,1.8s-3.9,0.4-5.6,0.4c-1,0-2.3-0.1-3-0.1
		c-0.8,0-2,0.1-3,0.1C61.4,54.3,57.5,55.6,57.5,54z M72.8,55.6v0.9c0,0-3.3,0.7-3.7,0.8v-1.7H72.8z M68.4,55.6v1.8
		c0,0-3.9,1.1-6,2.3v-4.1L68.4,55.6z M61.1,55.6v4.5l-2.5,1.6l-0.1-6H61.1z M48.3,207.2c0,0,5.9,3,8.6,4.6c0,0-10.2-0.8-14.7,3
		C42.2,214.8,42.8,207.5,48.3,207.2z M50.8,225.9c-2.9-0.4-10.2-5.4-8.3-9.1c0,0,3.8,1.5,9.1,1.9c5.4,0.4,12.5,1.2,12.5,1.2l0.2,7.1
		C64.4,226.9,53.7,226.3,50.8,225.9z M64.4,218.5c0,0-3.2-0.3-6.9-0.7c-1.5-0.2-3-0.3-4.6-0.5c-2.4-0.3-4.6-0.6-5.9-0.8
		c-0.4-0.1-0.8-0.1-1.1-0.2c-1-0.2-1.6-0.4-1.7-0.5c-0.1-0.7,0.9-1.5,3.5-2.1c0.8-0.2,1.8-0.4,2.9-0.5h0c3.1-0.4,7.7,0.1,10.6,0.4
		c1,0.1,2.1,0.2,3.1,0.3L64.4,218.5z M66.1,250.6l-1.1-36.1h1.4l0.5,36.1H66.1z M68,250.8h-0.8l-0.5-36.3h1.4L68,250.8z M69.2,250.6
		h-0.8l-0.1-36.1h1.3L69.2,250.6z M83.6,240.3c1.8-0.6,0.1,5.2-3.3,5.2c-3.4,0-6.8-4.9-6.8-4.9S81.7,240.9,83.6,240.3z M78.5,235.5
		c-2.4,2.6-0.5,3.8-0.5,3.8s-5.6,1.3-5.7-2.4c-0.1-3.7,7.9-8.2,7.9-8.2C82,232.1,80.9,232.9,78.5,235.5z M79.1,226.2
		c0.6,2.1-3.8,4-3.8,4l-5.1-2.8v-6.8C72.1,221,78.6,224.2,79.1,226.2z M60.1,204.7c4.3,2.4,7.1,2,7.1,2c6.3,0.1,7.7-2.5,7.7-2.5
		l2.4,4c-2,2.9-5.6,4.5-11.5,4.2c-5.9-0.3-13.5-3.9-13.5-3.9c-1.8-3.9,1.5-7.5,1.5-7.5C54.1,201.9,55.8,202.3,60.1,204.7z
		 M74.4,193.9c-0.8,1-0.6,2.4-0.7,3.6c-0.1,0.6-1.3,1.2-2.9,1.4c-1.7,0.2-12-0.7-15.8,0c-3.8,0.7-4.4,7.3-4.4,7.3s-3.1-3.1-4-4.3
		c-0.9-1.2-1.4-2.1,1.1-4.3c2.5-2.2,5.2-5.7,7.5-5.4c2.3,0.3,7.9,0.9,10.5,0.8c2.6-0.1,7.9-0.7,9.1-1.7
		C74.8,191.3,75.1,192.9,74.4,193.9z M27.1,138.7c-0.5-3.9,0.2-7.1,1.1-9.8c1-2.7,5.3-14.9,6.1-20.3C35,103.1,35,96.2,36.1,94
		c1.1-2.2,7.4-16,11.1-18.2c3.7-2.1,12.8-8.4,17.4-10.6c4.7-2.1,7.5-2.7,12.1-3.5c4.7-0.7,8.5-5.2,12.4-7.7
		c3.9-2.5,12.6-7.4,16.6-11.2c4-3.8,7.2-5,12.3-6.4c5.1-1.5,6.7-4.2,14.8-3.6c8.1,0.6,13.3,3,18.4,5.7c5.1,2.7,14.1,9.2,18.6,13.4
		c4.4,4.1,7,6.9,11.5,8.7c4.5,1.8,7.9,2.2,13.1,5c5.2,2.8,17.9,8.6,21.4,11.3c3.5,2.7,5.5,5.3,7,8.5c1.4,3.2,3.4,6.8,3.6,10.9
		c0.2,4.1,0.2,8.2,3,14.6c2.8,6.4,3.5,12.3,4.7,17.1c1.2,4.8,1.7,14.3,1.5,18.3c-0.2,3.9-3.1,15.7-5.2,18.5
		c-2.1,2.8-6.1,10.7-8.5,14.6c-2.4,3.8-4.8,13-11.1,17.8l0-0.5c0,0-0.5-2.3-2.4-4.2c-0.6-0.7-1.4-1.3-2.3-1.6
		c-1-0.4-2.2-0.7-3.6-0.7c-1.6,0-2.9,0.1-4.1,0.2c-0.6,0-0.9,0.1-0.9,0.1l0.2-12.3c0,0,5.8-3,8.4-10.7c2.5-7.8,2.7-12.9,2.7-15.6
		c0.1-2.7,2.7-3.9,2.2-14.3c-0.5-10.3-2.9-9.6-3.7-15.1c-0.8-5.5-2.9-14.6-3.4-18.5c-0.5-3.9-1.6-10.7-13.5-18.3
		c0,0-6.9-3.4-11.7-4.2c-4.8-0.8-9.6-3.8-11.2-5.3c-1.6-1.6-3.5-4.9-8.1-5.7c-4.7-0.8-3.5-3.8-7.4-5.8c-3.9-1.9-6.8-3.3-12.6-6.1
		c-5.8-2.8-9.8-2.2-14.6,0c-4.8,2.2-8.1,4.7-13.5,7.2c-5.5,2.5-4.5,3.8-13.4,7.8c-3.3,2.1-7.5,7-9.2,7.2c-1.7,0.1-6.9,0.5-14.3,4.4
		c-7.3,3.9-11.5,3.6-12.6,10.8c-1.2,7.2-2.2,14-4.1,17.2c-1.8,3.2-3.9,13.7-6,19.1c-2.1,5.3-2.1,15.2-1.4,18.8
		c0.7,3.6,2.8,16.3,12.1,27.9l0.8,13.1c0,0-0.3-0.1-0.9-0.2c-1.8-0.4-6.1-1.1-8.1-0.7c-2.7,0.5-6.1,4.8-6.1,4.8s-7.2-6.3-11-16.9
		c0,0-1.6-2.9-4.4-7.5c-2.8-4.6-5.1-14.3-5.2-19.7C27.1,146.4,27.6,142.6,27.1,138.7z M63,158.8l-0.7,0c0,0-0.8,0.1-0.8,1.1
		c0,1.1,0.7,1.2,0.7,1.2s-1.3,0.6-1.3,2.4c0,1.8,1.7,2.6,1.7,2.6s-0.3,0.1-0.3,0.9c0,1,0.9,1,0.9,1l0.3,14.4L63,171
		c-5.8-6.9-9.8-26.5-8.7-30.7c1.1-4.1,4.1-14.9,4.7-17.1c0.4-1.6,1.8-6.1,2.7-9.1L63,158.8z M62.8,111.9l2.3-10.3l0.4,57h-1.8
		L62.8,111.9z M63.4,161.7c1,0,1.9,0.8,1.9,1.9c0,1-0.8,1.9-1.9,1.9c-1,0-1.9-0.8-1.9-1.9C61.5,162.5,62.4,161.7,63.4,161.7z
		 M63.8,168.2h1.6l0.3,23.2H64L63.8,168.2z M66.1,191.3l0-23.2h1.8l0,22.9L66.1,191.3z M68.3,191.1l0.3-22.9h1.7L70,190.9
		L68.3,191.1z M72.9,188.1c-0.6-1.1-1.6-2-2.1-2.5c0,0,0.9,0.5,1.9,2.1C72.7,187.8,72.8,188,72.9,188.1c0.3,0.6,0.5,1.3,0.4,2
		c0,0.3-0.1,0.5-0.1,0.5c-0.7,0.2-1.5,0.5-2.4,0.8l2.4-0.8c0.1-0.2,0.1-0.3,0.1-0.5C73.3,189.6,73.2,188.9,72.9,188.1z M71,181.6
		c0,0,3.5,3.3,4.2,5.5c0.7,2.2-0.5,2.3-0.5,2.3c-0.3-2.3-3.8-5.5-3.8-5.5L71,181.6z M71.8,167.5h-8.5c-0.2,0-0.4-0.2-0.4-0.5
		c0-0.3,0.2-0.5,0.4-0.5h8.5c0.2,0,0.4,0.2,0.4,0.5C72.2,167.2,72,167.5,71.8,167.5z M65.5,163.5c0-1,0.8-1.9,1.9-1.9
		c1,0,1.9,0.8,1.9,1.9c0,1-0.8,1.9-1.9,1.9C66.4,165.4,65.5,164.6,65.5,163.5z M73.3,163.5c0,1-0.8,1.9-1.9,1.9
		c-1,0-1.9-0.8-1.9-1.9c0-1,0.8-1.9,1.9-1.9C72.5,161.7,73.3,162.5,73.3,163.5z M72.3,159.5c0.3,0,0.5,0.2,0.5,0.5
		c0,0.3-0.2,0.5-0.5,0.5h-9.7c-0.2,0-0.5-0.2-0.5-0.5c0-0.3,0.2-0.5,0.5-0.5H72.3z M66,97.8c1.1-2.9,3.5-5.1,3.5-5.1l-1.2,65.9h-1.9
		L66,97.8z M71.1,158.5h-1.6l0.8-66.6l3.1-1.8L71.1,158.5z M171.3,81.7c-4.6-1.8-6-4.3-7.8-5.9c-1.8-1.6-5.9-2.3-7-2.8
		c-1.1-0.5-3.9-4.3-6.3-6.4c-2.4-2.1-6.5-2.4-8.3-3.6c-1.8-1.2-5.9-3.8-10.1-3.8c-4.1,0-7.9,3.2-11.3,4.3c-3.3,1.1-6.2,2.9-8.1,4
		c-1.9,1.1-7.9,5.9-10.9,7c-2.9,1.1-8.1,6.3-9.9,7.3c-1.7,1-5.7,1.8-9.9,2.8c-4.2,1-10.5,5.6-12.5,6.4c-2,0.8-4.4,5.3-5.6,8.6
		c-1.2,3.3-1.6,9.8-2,11.6c-0.4,1.7-2.4,7-3.4,10.1c-1,3-3.2,11.2-3.9,14c-0.7,2.8-1.6,3.8-0.5,14.8c1.1,11,8.6,23.9,8.6,23.9v2.7
		c-9.8-9.8-11-29.1-11.3-34c-0.3-4.9,2-12.9,5.4-21.8c3.4-8.9,3.5-12.2,5.1-19.8c1.6-7.6,2.2-10,7.3-12.5c5.1-2.5,14.6-6.6,18.6-7
		c4-0.4,9.8-5.9,16.1-10c6.3-4.1,8.3-5.1,18.1-10.8c9.8-5.6,15.2-2.2,17.1-1.4c1.9,0.8,8.2,4.3,10.9,5.3c2.6,1,4.5,5.3,8.6,6.6
		c4.1,1.3,6,3.9,10,6.8c3.9,2.9,7.9,3.6,16.1,5.9c8.1,2.3,12,7.9,15.1,11.6c3.1,3.6,4.7,14.7,5.2,20.4c0.5,5.7,4,14.1,4.8,16.6
		c0.8,2.5,0.2,12.1-1.5,17.2c-1.7,5.1,0.1,2.5-1.8,12.2c-1.9,9.7-8.6,14.7-8.6,14.7l0.1-3.6c2-1.6,5.3-6.9,6.4-10.8
		c1.1-3.8,0.9-8.7,2.3-14.5c1.4-5.7,1.7-12.2,1.5-14.1c-0.2-1.9-3.2-7.8-4.2-13.2c-1-5.3-1.2-11.4-3.8-18.8
		c-3-8.4-8.8-12.8-13.1-14.8C182.6,85,175.9,83.5,171.3,81.7z M198.1,166.2c0,0,1.7-0.9,1.7-2.6c0-1.8-1.3-2.4-1.3-2.4
		s0.7-0.1,0.7-1.2c0-1-0.8-1.1-0.8-1.1l-0.7,0l1.3-55.5c2.3,6,2.8,11.7,3.3,16.2c0.5,5,3.8,12.9,4.5,16c0.7,3.1-0.4,8.5-1.2,11.2
		c-0.7,2.7-1,6.1-2.6,14.6c-1.3,7.2-4.5,9.7-5.5,10.3l0-3.3c0,0,0.9,0,0.9-1C198.5,166.3,198.1,166.2,198.1,166.2z M197.3,165.4
		c-1,0-1.9-0.8-1.9-1.9c0-1,0.8-1.9,1.9-1.9c1,0,1.9,0.8,1.9,1.9C199.1,164.6,198.3,165.4,197.3,165.4z M196.9,158.5h-1.8l0.5-62.8
		l2.6,4.6L196.9,158.5z M194.7,94.6l-0.4,63.9h-1.9l-1.1-67.3C191.3,91.2,193.5,93,194.7,94.6z M187.4,88.4l3.1,1.8l0.8,68.3h-1.6
		L187.4,88.4z M188,160c0-0.3,0.2-0.5,0.5-0.5h9.7c0.3,0,0.5,0.2,0.5,0.5c0,0.3-0.2,0.5-0.5,0.5h-9.7C188.2,160.5,188,160.3,188,160
		z M195.1,163.5c0,1-0.8,1.9-1.9,1.9c-1,0-1.9-0.8-1.9-1.9c0-1,0.8-1.9,1.9-1.9C194.3,161.7,195.1,162.5,195.1,163.5z M187.4,163.5
		c0-1,0.8-1.9,1.9-1.9c1,0,1.9,0.8,1.9,1.9c0,1-0.8,1.9-1.9,1.9C188.2,165.4,187.4,164.6,187.4,163.5z M188.9,167.5
		c-0.2,0-0.4-0.2-0.4-0.5c0-0.3,0.2-0.5,0.4-0.5h8.5c0.2,0,0.4,0.2,0.4,0.5c0,0.3-0.2,0.5-0.4,0.5H188.9z M196.9,168.2l-0.2,22.4
		H195l0.3-22.4H196.9z M194.6,190.5h-1.7l0-22.4h1.8L194.6,190.5z M192.4,190.5h-1.7l-0.3-22.4h1.7L192.4,190.5z M189.9,185.3
		l0.1,5.1c0,0-0.8,0-1.6-0.3c0,0,0,0,0,0c0,0-2-0.4-0.9-2.4C188.4,186,189.6,185.5,189.9,185.3z M185.3,187c0.6-2.2,2.1-4.5,4.4-5.1
		v2.2c0,0-3,1.7-3.3,5.2C186.3,189.2,184.7,189.2,185.3,187z M185.7,190.4c0,0,0.4,0.8,3.8,1.4c3.4,0.6,9.1-0.6,13-0.6
		c3.9,0,6,4,6,4s-1.4,4.9-2.5,4.1c-1.1-0.8-3.4-2-9.8-2.4c-6.3-0.4-7.3,0.8-9.6,0.1C183.4,196.1,185.7,190.4,185.7,190.4z
		 M203.5,200.3c-0.1,1.8-6.1,1.9-6.1,1.9v-3.9C197.4,198.4,203.5,198.5,203.5,200.3z M196.4,198.5l-0.2,4l-1.6-0.1l0.1-4
		L196.4,198.5z M194.3,198.5l-0.1,4l-1.5,0l0-4L194.3,198.5z M192.3,202.4l-1.5-0.1l-0.1-3.9l1.5,0L192.3,202.4z M190.3,202.1
		c-0.5,0-3-0.2-3-0.2l-0.1-3.5l3,0.3L190.3,202.1z M183.6,195.6c-0.2,1.1,2.3,2.7,2.3,2.7s0.8,3.8-0.2,3.7c-0.9-0.1-4.3-0.7-4.3-2.8
		C181.4,197.1,183.6,195.6,183.6,195.6z M175.7,236.6c-0.2,0.8-3.5,2.4-6.2,4.5c-2.6,2.2-9.6,1.2-12-0.8c0,0,7.3,0.7,10.3-1.7
		c3-2.4,7.5-5.2,7.5-5.2S176,235.8,175.7,236.6z M187.5,232.2c-0.2,4.3-3.3,6.8-7,7.7c-3.7,0.8-3.6-5.7-3.6-5.7s2.5,1,5.7,0.9
		C185.9,235,187.5,232.2,187.5,232.2z M186.2,230.4c0.1,1.2-1.9,1.9-1.9,1.9c-1.5-0.8,0.5-3.4,0.5-3.4S186.2,229.2,186.2,230.4z
		 M182.6,228.6c-1.6,3.5-0.6,5-0.6,5s-4.5,0-5.3-1.5c0,0-1.8-4.7,2.4-7.9c4.2-3.2,9.7-6.7,11-7l0.2,7.2
		C190.4,224.3,184.2,225.1,182.6,228.6z M192.1,246.1l-1.2-36.8l1.4-0.1l0.6,36.9H192.1z M194,246.2h-0.8l-0.6-37l1.4-0.1L194,246.2
		z M195.5,246l-1,0l0.1-36.9l1.5-0.1L195.5,246z M185.4,208.1c-3.1-0.2-3.9-6.3-3.9-6.3c1.5,1.2,10,2.8,17.2,1.7
		c7.2-1.1,10.3-5.4,10.3-5.4s1.2,4.5,0.4,6.2c-0.8,1.7-7.1,3.4-10.2,3.8C196.3,208.4,188.5,208.3,185.4,208.1z M196.5,209.3
		c0,0,5,0.2,6.5-0.4c1.5-0.6,3.6,2.5,3.7,4c0,0-3.3-0.4-5,0c-1.7,0.4-5.2,0.6-5.2,0.6L196.5,209.3z M214.2,209.8c0,0,1.4,1.3-0.4,6
		c-1.8,4.6-5.8,6.8-9.5,7.1c-3.8,0.3-7.6-0.8-7.6-0.8l-0.1-7.2c4.1-1.3,8.1-0.3,11.5-0.7C211.7,213.7,214.2,209.8,214.2,209.8z
		 M212.7,206.9c1.7,3.9-4.3,6.5-4.4,5.4c-0.1-1.2-2.4-3.6-2.4-3.6S211,203,212.7,206.9z M238.8,149.8c-0.8,5.8-2.7,8.4-3.4,13.7
		c-0.7,5.3-6.2,12.2-8.4,15.1c-2.1,3-4.5,7.6-7.1,13.1c-2.6,5.5-8.4,10.9-8.4,10.9l-0.7-4.3c2.3-1.7,4.5-4.3,7-7.1
		c2.5-2.9,3.1-8.5,8.1-16.1c7.8-10.7,6.7-13.2,9.2-20.7c2.5-7.5,1.6-10.9,1.5-18c-0.1-7.1-3.3-18.1-4.6-22.5
		c-1.3-4.4-3.6-7.7-3.8-14.5c-0.2-6.8-3.2-12.6-3.2-12.6c-3.7-9.9-10-12.4-14.4-14.6c-4.4-2.1-11.2-5.9-15.7-8.3
		c-4.5-2.3-13.6-4.9-16-6.2c-2.3-1.3-7.2-6.3-11.2-9.8c-4-3.5-13.9-10.3-20.3-13.2c-6.4-2.9-12.2-4.1-17.5-3.7
		c-5.3,0.4-13.9,4.7-18,6.1c-4.1,1.4-8.8,5.8-12.6,9c-3.8,3.2-8.4,4.9-13.9,9.4c-5.5,4.5-6.4,4.5-11.4,5.3c-5,0.7-7.5,1.9-10.5,3.2
		c-3,1.3-7.1,4.5-11.8,6.7c-4.6,2.1-8.3,4.5-9.7,8.2c-1.4,3.7-3,6.6-5.5,10.9c-2.5,4.3-2.6,8.7-2.6,12.1c0,3.3-1.3,10.2-4.2,18
		c-2.9,7.8-4.3,14.8-3.6,19.1c0.6,4.3-0.6,8.7-0.2,13.3c0.5,4.5,1.9,11,2.9,13.4c0.9,2.4,2.3,6.3,5.1,10.9c2.8,4.5,1.7,3.2,5.1,9.7
		c3.4,6.4,8.3,10.4,8.3,10.4l-2.2,2.1c-9-10.5-7.7-11.3-11.4-18.2c-3.7-6.9-8.6-18.2-9.7-22.6c-1.1-4.5-0.9-14.5-0.9-18.9
		c0-4.5,1.5-13.4,4.5-19.6c3.1-6.2,2.3-11.2,3.3-19.8c1-8.5,1-4.1,4.2-13.5c3.2-9.4,4.9-12.2,10-15.4c5.1-3.2,12.9-7.1,18.4-9.6
		c5.5-2.4,13.5-3.8,18.4-6.3c4.9-2.5,8.8-6.3,14.9-11.6c6.1-5.3,6.5-5.8,13.2-8c6.7-2.2,12.9-6.9,21.4-7.1
		c8.5-0.2,16.5,4.9,23.3,7.2c6.8,2.3,8.8,7.2,14.8,11.4c5.9,4.2,10,9.6,16.8,11.8c6.8,2.2,13.8,5.4,17.4,7.3
		c3.6,1.9,10.4,4.7,16.5,9.8c6.1,5.1,7.9,11.5,9,16.2c1.1,4.7,0.3,6.2,3.2,16.2c2.9,10,5.7,14.3,6.6,22.6
		C239.8,139,239.5,144,238.8,149.8z"/>
	<path class="st0" d="M64,205.1L64,205.1c0,0-0.1,0-0.1-0.1C63.9,205.1,64,205.1,64,205.1z"/>
	<path class="st0" d="M67.8,205.6L67.8,205.6c-0.4,0-0.9,0-1.3,0L67.8,205.6z"/>
	<path class="st0" d="M68.8,205.6c-0.1,0-0.3,0-0.4,0v0H68.8z"/>
</g>
</svg>
