<?xml version="1.0" encoding="utf-8"?>
<!-- Generator: Adobe Illustrator 25.4.1, SVG Export Plug-In . SVG Version: 6.00 Build 0)  -->
<svg version="1.1" id="Layer_1" xmlns="http://www.w3.org/2000/svg" xmlns:xlink="http://www.w3.org/1999/xlink" x="0px" y="0px"
	 viewBox="0 0 200 200" style="enable-background:new 0 0 200 200;" xml:space="preserve">
<style type="text/css">
	.st0{fill:#004086;}
</style>
<path class="st0" d="M196.7,77.1L196.7,77.1L196.7,77.1c0-0.2,0-0.2,0-0.2l0,0l0,0l0,0l0,0l0,0L163,28.4l0,0l0,0l0,0l0,0L109.7,2.1
	l0,0l0,0h-0.2l0,0l0,0l0,0l0,0l0,0l-63,18.5l0,0l0,0l0,0l0,0l0,0L12.8,60.1c0,0,0,0,0,0.2l0,0l0,0l-9.5,64.7l0,0l0,0l0,0l0,0
	c0,0,0,0,0,0.2l0,0l0,0l0,0l0,0l33.5,48.5l0,0l0,0l0,0l0,0L90,200.1h0.2l0,0l0,0l0,0l0,0l0,0l63-18.5l0,0l0,0l0,0l33.2-39.5l0,0l0,0
	l0,0L196.7,77.1L196.7,77.1z M140,181.1c-0.5,0.2-1,0.5-1,1l-46.7-9.5c0-0.5,0-0.7,0-1.2c0-1.2-0.2-2.2-1-3.2l41.5-25
	c2.2,3.5,5.7,6,10,6.5L140,181.1z M170.5,84.4l-30.7-12.2c0.7-1.5,1-3.2,1-5.2c0-3.7-1.5-7-3.7-9.2l20.7-23.5c0.5,0.5,1.2,0.7,2,0.7
	c0.2,0,0.5,0,0.7-0.2L176,79.1C173.2,80.1,171.5,82.1,170.5,84.4z M86,165.3c-0.2,0-0.5,0-0.5,0l0.7-32c7.5-0.2,13.7-5,16.2-11.7
	l28.5,10c-0.2,1.2-0.5,2.5-0.5,4c0,2.5,0.7,5,1.7,7l-41.5,25C89.5,166.3,88,165.3,86,165.3z M34.3,118.8l20.2-49.2
	c1,0.2,2,0.5,3.2,0.5c1.2,0,2.5-0.2,3.5-0.7l15.5,29.5c-5.7,3-9.7,9.2-9.7,16.2c0,1.2,0,2.2,0.2,3.2l-29,5.5
	C37.8,121.6,36.3,119.8,34.3,118.8z M114,66.9c0,4,1.7,7.5,4.7,10l-21.2,24.5c-3.2-3-7.5-4.7-12.2-4.7c-2.7,0-5.5,0.7-7.7,1.7
	L62,68.9c2.5-1.2,4.5-3.7,5-6.5L114,66.9z M131.2,130.8l-28.5-10c0.5-1.7,1-3.7,1-5.7c0-5-2-9.7-5.5-13l21.2-24.5
	c2.2,1.7,5,2.7,8,2.7c0.7,0,1.7,0,2.5-0.2l10.2,41.7C136,123.3,132.7,126.6,131.2,130.8z M156.7,33.6L136,57.1
	c-2.2-2.2-5.2-3.5-8.5-3.5c-2.5,0-4.7,0.7-6.5,1.7l-16.7-29.2c1.5-1,2.5-2.5,3-4.2l48.7,9.2v0.2C156,32.4,156.2,32.9,156.7,33.6z
	 M95,25.6c1.2,1.2,3,2,5,2c1.2,0,2.2-0.2,3.2-0.7l16.7,29c-3.2,2.2-5.5,6-5.7,10.2l-47-4.2c0-0.5,0.2-0.7,0.2-1.2
	c0-2.2-0.7-4.5-2.2-6L95,25.6z M53.5,69.4l-20,49.2c-1-0.2-1.7-0.5-2.7-0.5c-0.5,0-1.2,0-1.7,0.2l-16-45l35.5-9
	C49.5,66.4,51.3,68.4,53.5,69.4z M38.5,124.8l29-5.5c2,8,9,14,17.5,14l-0.7,32.2c-1.5,0.2-2.7,1.2-3.5,2.5l-43.2-37.5
	c0.7-1.2,1.2-2.7,1.2-4.5C38.8,125.6,38.8,125.1,38.5,124.8z M145,121.1c-1.2,0-2.7,0.2-4,0.5l-10.2-41.7c3.7-1,6.7-3.5,8.5-7
	l31,12.2c-0.2,1-0.5,2-0.5,3.2c0,3,1.2,5.5,3.5,7.5l-20,27.5C150.5,121.8,148,121.1,145,121.1z M179.5,78.4c-1.2,0-2.2,0.2-3.2,0.5
	l-15.5-44.5c0,0,0.2,0,0.2-0.2l34.2,42.7l-7.7,5.2C185.5,79.9,182.7,78.4,179.5,78.4z M188.7,67.1L162,33.6c0.5-0.5,0.7-1.2,0.7-2.2
	c0-0.7-0.2-1.2-0.5-1.7l0.5-0.2L188.7,67.1z M162,28.6l-0.2,0.2c-0.5-0.5-1.2-1-2.2-1s-2,0.5-2.5,1.2L121.5,8.6L162,28.6z
	 M109.5,3.1l46.7,27v0.2l-49-9.2c0-0.2,0-0.5,0-0.7c0-2.7-1.5-5-3.5-6.2L109.5,3.1z M108.5,3.1L103,13.6c-1-0.5-2-0.7-3-0.7
	c-4,0-7,3-7.2,7l-43.2,0.7L108.5,3.1z M92.8,20.6c0,1.5,0.7,3,1.7,4.2L64.8,53.6c-1.7-1.7-4.2-3-7-3c-1,0-1.7,0.2-2.5,0.5L47,21.4
	L92.8,20.6z M46,22.1l8,29.5c-3.7,1.5-6.2,5-6.2,9c0,1,0.2,1.7,0.5,2.7l-35,9L46,22.1z M13.5,60.6l28.2-33.5L13,71.1L13.5,60.6z
	 M12,71.4v1.5l-1,6L12,71.4z M12.5,74.6l15.5,44c-2.7,1-5,3.5-5.5,6.5l-18.2-0.2L12.5,74.6z M4.5,125.6l18,0.5c0,0,0,0,0,0.2
	c0,4.5,3.7,8,8,8c0.2,0,0.7,0,1,0l5,37.7L4.5,125.6z M32.5,134.1c1.7-0.5,3.2-1.5,4.2-2.7l43.5,37.5c-0.5,0.7-0.7,1.7-0.7,2.7
	l-42,1.5L32.5,134.1z M39,173.8l40.7-1.5c0.5,3,2.7,5.2,5.7,5.2l4.5,21.2L39,173.8z M86.5,177.8c2.5-0.2,4.5-1.7,5.2-4l46.7,9.5
	l-47.7,16L86.5,177.8z M112.5,192.8l26.7-9c0.2,0.2,0.7,0.5,1.2,0.5c0.7,0,1.2-0.5,1.5-1.2l5.7-0.7L112.5,192.8z M153.5,180.8
	l-11.2,1.5v-0.2l40.2-35.7L153.5,180.8z M141.5,181.3c-0.2,0-0.2-0.2-0.5-0.2l2.5-31c0.5,0,1,0,1.5,0c7,0,13-5,14.2-11.7l26.5,3.5
	L141.5,181.3z M159.5,137.6c0-0.7,0.2-1.2,0.2-2c0-4.7-2.5-9.2-6-11.7l20-27.5c1.7,1.2,3.7,2,6,2c0.2,0,0.2,0,0.5,0l6.2,43
	L159.5,137.6z M186.7,138.6L181,98.1c4.7-0.7,8.5-4.7,8.5-9.7c0-2-0.5-3.7-1.5-5.5l7.7-5L186.7,138.6z"/>
</svg>
